<?xml version="1.0" encoding="utf-8"?>
<!-- Generator: Adobe Illustrator 24.2.1, SVG Export Plug-In . SVG Version: 6.00 Build 0)  -->
<svg version="1.1" id="Capa_1" xmlns="http://www.w3.org/2000/svg" xmlns:xlink="http://www.w3.org/1999/xlink" x="0px" y="0px"
	 viewBox="0 0 70 70" style="enable-background:new 0 0 70 70;" xml:space="preserve">
<style type="text/css">
	.st0{fill:#05783F;}
</style>
<g>
	<g>
		<path class="st0" d="M36.4,68c-8.3,0-22.4-2.3-27.1-7.7c0-10.9,5.4-16.4,11.7-18.8c2.1-0.8,3.8-0.8,6,0.2c5.4,2.7,11,2.7,16.3-0.1
			c1.8-0.9,3.3-1,5.1-0.3c6.6,2.3,12.2,7.6,12.2,19C58.4,63.3,47.2,68,36.4,68z"/>
		<path class="st0" d="M38.6,2.4c9.5,2.5,15.2,8.5,17.5,18.3c0.8,3.5,1.9,6.8,1.7,10.4c-0.2,3.5-1.3,4.3-4.7,4.8
			c-3.7,0.6-7.2,2-10.7,3.1c-1.3,0.4-2.5,0.6-3.8,0.5c-1.3-0.1-2.4-0.7-2.4-2.2c0-1.4,1-2.2,2.3-2.2c1.2-0.1,2.4,0,3.5,0.2
			c1.3,0.3,2.5,0.3,3.8-0.1c4-1.1,4.5-1.6,4.5-5.7c0-2.6-0.3-5.2,1.4-7.5c0.5-0.7,0.2-1.5,0.1-2.3c-1.4-7.6-8.3-13.5-16.3-13.7
			C27.4,5.9,20.1,11.4,18.4,19c-0.2,1-0.7,2.1-0.1,2.9c2,2.8,1.3,5.9,1.4,8.9c0,3.1-1.4,4.8-3.6,4.9c-2.3,0-3.9-1.7-3.8-4.7
			c0.3-12.2,5.6-25.9,19.2-28.7C33.2,2.1,33.8,2,34.9,2C36.1,2,37.4,2.1,38.6,2.4z"/>
		<path class="st0" d="M48.9,25.3c0.1,1.3-0.2,2.7-0.6,4.2c-1.4,4.6-2.2,5.1-7,4.6C40.4,34,39.5,34,38.6,34
			c-2.9,0.2-4.1,1.6-3.3,4.3c0.7,2.5-0.4,2.5-2.2,2.3c-0.2,0-0.4-0.1-0.6-0.1c-6.9-1.4-12.4-9.9-11.3-17.5c1-7.1,7.4-12.2,14.8-11.9
			C43.2,11.6,48.9,17.7,48.9,25.3z"/>
	</g>
</g>
</svg>
