<svg xmlns="http://www.w3.org/2000/svg" viewBox="0 0 1500 130"><defs><style>.cls-1{fill:#279152;}</style></defs><g id="Capa_2" data-name="Capa 2"><g id="Capa_1-2" data-name="Capa 1"><g id="Capa_2-2" data-name="Capa 2"><g id="Capa_1-2-2" data-name="Capa 1-2"><path class="cls-1" d="M1345.9,129.86c-260.26-.6-520.54,1.17-780.81-.89-18.86-.15-37.65-1-56.47-1.69q-38.12-1.38-76-4.67c-27.38-2.4-54.59-5.69-81.29-11.2-17.43-3.62-34.56-8.24-49.37-16.63C263.61,73,222.09,56.19,178.66,42.32A1148.77,1148.77,0,0,0,44.29,8.59C29.62,5.79,15,2.78.06,1,.31.72-.52.05.62.08H5.15Q749.95.1,1494.79,0c4.25,0,5.25.8,5.21,4.19-.17,16-.15,32-.13,48.06,0,13.35-5.72,26.35-16.51,36.47l-.19.18c-24.1,21.89-54.74,34.18-90.18,39.12C1384.45,129.2,1348.88,129.87,1345.9,129.86Z"/></g></g></g></g></svg>