<?xml version="1.0" encoding="utf-8"?>
<!-- Generator: Adobe Illustrator 24.2.1, SVG Export Plug-In . SVG Version: 6.00 Build 0)  -->
<svg version="1.1" id="Capa_1" xmlns="http://www.w3.org/2000/svg" xmlns:xlink="http://www.w3.org/1999/xlink" x="0px" y="0px"
	 viewBox="0 0 70 70" style="enable-background:new 0 0 70 70;" xml:space="preserve">
<style type="text/css">
	.st0{fill:#05783F;}
</style>
<g>
	<path class="st0" d="M57.2,24.9c-2.5-1.6-3.1-3.5-1.7-6.1c1.5-3,0.8-4.2-2.5-4.6c-3.6-0.4-4.2-1.1-4.7-5c-0.3-2.7-1.6-3.5-4.1-2.5
		c-4,1.7-4.3,1.6-6.9-1.9C36.8,4.1,36.5,2,35.1,2c-1.5,0-2.2,2.4-2.8,3.3c-1.5,2.6-3.5,3-6.1,1.7c-3.1-1.6-4.3-0.8-4.6,2.8
		c-0.2,2.8-1.6,4.2-4.4,4.4c-3.7,0.3-4.3,1.4-2.7,4.9c1.2,2.4,0.6,4.2-1.6,5.7c-3.2,2.2-3.3,3.4-0.1,5.5c2.3,1.6,2.9,3.4,1.6,5.9
		c-1.6,3.2-0.9,4.5,2.6,4.7c2.9,0.2,4.3,1.6,4.5,4.5c0.2,3.4,1.5,4.2,4.7,2.6c2.5-1.3,4.4-0.7,5.9,1.6c2,3,3.5,3,5.4,0
		c1.6-2.5,3.5-2.9,6.2-1.6c2.9,1.5,4.3,0.7,4.5-2.6c0.2-3.1,1.7-4.5,4.8-4.6c3.1-0.1,3.9-1.6,2.4-4.4c-1.4-2.8-0.9-4.7,1.7-6.4
		C60.1,28.3,60.1,26.7,57.2,24.9z M45.9,25.3c-3.2,3.1-6.3,6.2-9.4,9.4c-1.9,2-3.6,2.2-5.6,0.1c-1.5-1.6-3.1-3.2-4.7-4.7
		c-1.3-1.3-1.8-2.8-0.3-4.2c1.4-1.4,2.8-0.9,4,0.4c1.1,1.3,2.1,2.6,3.6,4.5c3.3-3.5,6-6.3,8.7-9.2c1.4-1.5,3-2.4,4.6-0.7
		C48.3,22.6,47.2,24,45.9,25.3z"/>
	<path class="st0" d="M42.7,68c-2-4.8-3.6-8.6-5.1-12.2c1.3-1.1,2.4-2.1,3.6-3c0.4-0.3,1.1-0.6,1.5-0.5c4.1,1.6,7.2,0,10.2-3.1
		c1.6,3.9,3.1,7.6,5,12.1C50.8,59,45.8,60.8,42.7,68z"/>
	<path class="st0" d="M27.9,68c2-4.8,3.6-8.6,5.1-12.2c-1.3-1.1-2.4-2.1-3.6-3c-0.4-0.3-1.1-0.6-1.5-0.5c-4.1,1.6-7.2,0-10.2-3.1
		c-1.6,3.9-3.1,7.6-5,12.1C19.8,59,24.8,60.8,27.9,68z"/>
</g>
</svg>
