<svg id="Capa_1" data-name="Capa 1" xmlns="http://www.w3.org/2000/svg" viewBox="0 0 1200 1200"><defs><style>.cls-1{fill:#fff;fill-rule:evenodd;}</style></defs><title>CARRITO blanco</title><path class="cls-1" d="M952.23,163.71l-100.36,554L215.18,788.53S191,799,186.58,832.46c-4.46,33.72,14.27,48,21.93,52.23a91.67,91.67,0,0,0,12.64,5.87l686.53-87.48L1024.07,242.4,1149.13,239s20.55-18.26,20-43.93-17.34-33.72-17.34-33.72Z"/><path class="cls-1" d="M864.38,303c-4.53-3.67-14.58-2.7-17.67-2.57L73.09,333.87s-51.85,1.23-22.38,53.67l96.15,167.58v.25h.2L261.18,749.66l538.09-57.13L864.94,316.4C865.32,314.33,867.58,306.19,864.38,303ZM608.22,494.57l-.38-61.75,52-3.2.32,61.21Zm51.91,21.84.19,56.18L608.47,577l-.25-56.66Zm-132.8-16.06-.19-62.56,51.79-3.27.19,62.16Zm52,22.15.25,57-51.72,4.43-.32-57.43ZM527,411.64l-.31-52,51.9-2.77.13,51.82Zm-80.57,94.52-.25-63.37,52-3.27.5,62.93Zm52.29,22.44.25,57.66-51.84,4.46-.32-58.13ZM446,416.48l-.25-52.91L497.67,361l.38,52.44ZM365.82,512l-.44-64.2,52-3.2.25,63.63Zm52,22.69.37,58.44-51.91,4.43-.38-59ZM365.19,421.13l-.44-53.45,52-2.67.32,53.2Zm-81.07,4.78-.31-54.14,52-2.58.37,53.64Zm52.29,23.76.5,64.45-52,3.7-.5-64.82Zm-51,95.14L337.1,541l.57,58.89-51.85,4.43Zm81.26,79.34,51.72-4.58.37,66.77-51.52,5.15ZM447.2,617l52-4.68.25,66.12-51.84,5.12ZM528,609.8l51.59-4.53.26,65.17-51.6,5.15Zm80.56-7.17,51.85-4.46.25,64.2-51.78,5.24ZM607.72,407l-.2-51.47,52-2.6.13,51.12Zm81.19,107.25,79.88-6.13-10,56.09-69.69,5.91Zm0-25.48-.13-61L784.31,422l-10.87,60.83ZM795.12,349c2.58,2.6.82,9,.57,10.68l-6.79,37.11-100.3,5.69-.13-50.81,92.26-4.47C783.31,347,791.6,346.19,795.12,349Zm-638.33,29.5,98.1-5.22.57,54.4-108.35,6.54-8.6-14.52C114.69,379.78,156.79,378.46,156.79,378.46Zm99.43,141.43-54.93,3.9-38.21-63.16,92.63-5.91Zm.19,27.12.5,59.77-4.46.38L217.25,550ZM286.2,662.12,286,631.29l51.9-4.65.51,67.65-30.23,3Zm403.15-2.58-.12-64.07,65-5.75L742.7,654.16Z"/><path class="cls-1" d="M420.93,1003.62c.32,54.14-46.81,105.52-105.19,114.82S209.58,1090,209.08,1034.13c-.62-55.71,46.63-106.93,105-114.51C372.8,911.89,420.5,949.48,420.93,1003.62Z"/><path class="cls-1" d="M885.49,933.74c-.06,50.08-47.57,98.79-106.08,108.72s-106.15-24.32-106.27-76.3S720.39,865.7,779,857.57,885.18,883.67,885.49,933.74Z"/></svg>