<?xml version="1.0" encoding="utf-8"?>
<!-- Generator: Adobe Illustrator 24.2.1, SVG Export Plug-In . SVG Version: 6.00 Build 0)  -->
<svg version="1.1" id="Capa_1" xmlns="http://www.w3.org/2000/svg" xmlns:xlink="http://www.w3.org/1999/xlink" x="0px" y="0px"
	 viewBox="0 0 688.3 239.6" style="enable-background:new 0 0 688.3 239.6;" xml:space="preserve">
<style type="text/css">
	.st0{fill:#FFFFFF;}
	.st1{fill-rule:evenodd;clip-rule:evenodd;fill:#7C7B7B;}
	.st2{fill:#EB6608;}
	.st3{fill:#7C7B7B;}
	.st4{fill:#1A1413;}
	.st5{font-family:'Arial-BoldMT';}
	.st6{font-size:22.32px;}
	.st7{letter-spacing:-0.9;}
</style>
<path class="st0" d="M665,229.1H23.3c-11.9,0-21.5-9.6-21.5-21.5V32c0-11.9,9.6-21.5,21.5-21.5H665c11.9,0,21.5,9.6,21.5,21.5v175.5
	C686.5,219.4,676.8,229.1,665,229.1z"/>
<path class="st1" d="M432.2,157.6v-41.8c0.5-46.2-36.5-84-82.7-84.5s-84,36.5-84.5,82.7c0,0.6,0,1.2,0,1.8c0,0.1,16.7,0.1,16.7,0
	c0-37,30-66.9,66.9-66.9s66.9,30,66.9,66.9v41.8H432.2z"/>
<path class="st2" d="M348.6,137l-14.3-14.3v-21.6l14.3,14.2l32.4-32.5c-17.9-17.9-47-17.9-64.9,0s-17.9,47,0,64.9s47,17.9,64.9,0
	c8.6-8.6,13.4-20.3,13.4-32.4c0-6.9-1.5-13.6-4.5-19.8L348.6,137z"/>
<path class="st3" d="M376.5,198.8c-4.1-1.3-5-4.9-4.8-8.9h6c0,2.7,0.1,5,3.4,5c2.1,0,3-1.3,3-3.3c0-5.2-12.2-5.5-12.2-14.1
	c0-4.5,2.2-8.1,9.5-8.1c5.9,0,8.8,2.6,8.4,8.6h-5.9c0-2.1-0.3-4.3-2.8-4.3c-1.6-0.2-3,0.9-3.1,2.5c0,0.2,0,0.4,0,0.6
	c0,5.5,12.2,5,12.2,14c0,5-2.5,7-5.5,7.8L376.5,198.8z"/>
<path class="st3" d="M405.1,178.9c0.1-2.7-0.4-5-3.6-5c-3.7,0-3.7,5-3.7,10.6c0,9,0.9,10.6,4.3,10.6c1,0,2-0.2,3-0.6v-6.4h-3.3v-4.4
	h9.4v14.6c-0.6,0.1-1.6,0.3-2.8,0.5H398c-5.6-1.4-6.4-5.8-6.4-14.6c0-7.3,0.4-14.6,10.2-14.6c5.9,0,9.6,3.3,9.3,9.3L405.1,178.9z"/>
<path class="st3" d="M422.5,169.6c5.3,0,8.1,2.1,8.5,6.7v2h-5.9c0-2.1-0.5-4.3-3-4.3c-1.5-0.2-2.9,0.9-3.1,2.5c0,0.2,0,0.4,0,0.6
	c0,5,10.4,5,12,12.1v4.2c-0.4,2.8-2.5,5-5.3,5.6h-8.4c-4.2-1.3-5.1-4.9-4.8-8.9h6.1c0,2.7,0.1,5,3.4,5c2,0,3-1.3,3-3.3
	c0-5.2-12.2-5.5-12.2-14.1C413,173.2,415.1,169.6,422.5,169.6L422.5,169.6z"/>
<polygon class="st2" points="353.7,198.8 442.9,198.8 442.9,199.9 353.7,199.9 353.7,198.8 "/>
<polygon class="st2" points="431,164.3 432.2,164.3 432.2,205.9 431,205.9 431,164.3 "/>
<path class="st2" d="M265.9,121.5l12.7-1.5l0.2,1.6l-5.5,0.6l0.5,4.5l5.5-0.7l0.3,1.6l-12.7,1.5l-0.2-1.6l5.8-0.7l-0.5-4.4l-5.8,0.7
	L265.9,121.5z"/>
<path class="st2" d="M266.3,129.8l-0.3-2.8l5.8-0.7l-0.4-3.3l-5.8,0.7l-0.3-2.8l13.9-1.6l0.3,2.8l-5.5,0.6l0.4,3.3l5.5-0.6l0.3,2.8
	L266.3,129.8z M267.3,128v0.5l11.5-1.4v-0.4l-5.5,0.6l-0.7-5.6l5.5-0.6l-0.1-0.4l-11.5,1.3l0.1,0.5l5.8-0.7l0.6,5.6L267.3,128z"/>
<path class="st2" d="M280.6,132.7l0.5,2l-11.3,7.3l-0.5-1.7l2.7-1.7l-1.3-4.8l-3.2-0.2l-0.4-1.6L280.6,132.7z M279.4,134L279.4,134
	l-7.1-0.2l1.1,3.9L279.4,134z"/>
<path class="st2" d="M269.5,142.9l-0.8-3l2.7-1.7l-1-3.9l-3.2-0.1l-0.7-2.8l14.6,0.7l0.8,2.8L269.5,142.9z M270.1,140.5l0.1,0.5
	l10.3-6.6l-0.3-1.2l-12.1-0.6l0.1,0.4l3.2,0.1l1.5,5.6L270.1,140.5z M273,138.7l-1.5-5.5l8.3,0.2l0.2,0.9l-0.4,0.3L273,138.7z
	 M273.1,134.4l0.6,2.4l3.7-2.3L273.1,134.4z"/>
<path class="st2" d="M281.4,145.8c0.6-0.2,1.2-0.5,1.6-1c0.2-0.5,0.2-1,0-1.5c-0.2-0.8-0.9-1.3-1.6-1.4c-0.2,0-0.6-0.2-2.6,0.6
	l-3.2,1.3c-2.9,1.2-2.8,2.3-2.4,3.5c0.2,0.4,0.9,1.8,3.2,0.8l0.6,1.5c-3.7,1.6-4.8-1-5.1-1.8c-0.6-1.5-1.5-3.8,3.1-5.7l3.3-1.4
	c3.4-1.4,4.9-0.3,5.9,2s0.1,3.8-2.2,4.6L281.4,145.8z"/>
<path class="st2" d="M274.9,150.7c-1.6,0-3-1.1-3.5-2.6c-0.6-1.4-1.8-4.3,3.4-6.4l3.3-1.4c3.3-1.4,5.4-0.6,6.6,2.3
	c0.5,1,0.6,2.2,0.2,3.2c-0.6,1.1-1.6,1.8-2.8,2.1l-0.5,0.2l-1.1-2.6l0.6-0.2c0.7-0.3,1.1-0.5,1.3-0.8c0.1-0.3,0.1-0.7-0.1-1
	c-0.4-1-1.1-1.1-1.1-1.1h-0.1c-0.8,0.1-1.5,0.3-2.2,0.6l-3.2,1.3c-2.7,1.1-2.4,1.9-2,2.7c0.2,0.5,0.7,0.8,1.2,0.8
	c0.4,0,0.9-0.1,1.3-0.3l0.5-0.2l1,2.6l-0.5,0.2C276.5,150.5,275.7,150.7,274.9,150.7z M281,140.7c-0.8,0-1.6,0.2-2.3,0.6l-3.4,1.4
	c-4.1,1.7-3.4,3.6-2.8,4.9c0.3,1.1,1.3,1.9,2.4,1.9c0.5,0,0.9-0.1,1.4-0.3l-0.2-0.5c-0.4,0.1-0.8,0.1-1.2,0.2c-1,0-1.9-0.6-2.3-1.5
	c-0.8-1.9,0-3.1,2.6-4.2l3.2-1.3c0.8-0.4,1.7-0.6,2.6-0.7h0.2c1,0.1,1.9,0.8,2.3,1.8c0.2,0.7,0.2,1.4,0,2.1
	c-0.3,0.5-0.8,0.9-1.3,1.1l0.2,0.5c0.7-0.2,1.2-0.7,1.5-1.3c0.3-0.7,0.2-1.6-0.2-2.3C283.1,141.4,282.3,140.7,281,140.7L281,140.7z"
	/>
<path class="st2" d="M286,154.4c0.6-0.2,1.1-0.7,1.4-1.2c0.1-0.5,0-1.1-0.3-1.5c-0.7-1.2-1.6-1.2-1.8-1.2s-0.6-0.1-2.5,1l-3,1.7
	c-2.7,1.6-2.5,2.6-1.9,3.8c0.2,0.4,1.1,1.6,3.3,0.4l0.8,1.4c-3.4,2.1-4.9-0.4-5.3-1.1c-0.8-1.4-2-3.5,2.3-6l3.1-1.8
	c3.1-1.8,4.8-1,6.1,1.2s0.6,3.7-1.6,4.8L286,154.4z"/>
<path class="st2" d="M279.7,160.2c-1.4-0.1-2.7-0.9-3.3-2.2c-0.6-0.9-0.9-1.9-0.8-3c0.3-1.4,1.4-2.6,3.4-3.8l3.1-1.8
	c3.1-1.8,5.3-1.3,6.9,1.4c0.6,0.9,0.8,2.1,0.6,3.2c-0.4,1.1-1.3,2-2.5,2.5l-0.5,0.3l-1.4-2.5l0.5-0.3c0.7-0.4,1.1-0.7,1.2-0.9
	c0-0.3,0-0.7-0.2-1c-0.2-0.5-0.7-0.8-1.2-0.9c0,0-0.1,0-0.1,0c-0.8,0.2-1.5,0.5-2.2,0.9l-2.9,1.8c-2.5,1.4-2.1,2.2-1.7,2.9
	c0.2,0.4,0.7,0.6,1.1,0.6c0.5,0,1-0.2,1.4-0.4l0.5-0.3l1.4,2.4l-0.5,0.3C281.7,159.8,280.7,160.2,279.7,160.2z M285.3,149.5
	c-0.9,0.1-1.8,0.4-2.6,0.9l-3.1,1.8c-1.7,1-2.6,2-2.8,3c0,0.8,0.2,1.6,0.7,2.2c0.4,0.9,1.3,1.5,2.3,1.6c0.6,0,1.2-0.2,1.7-0.4
	l-0.3-0.4c-1.2,0.7-2.9,0.3-3.6-0.9c-1-1.8-0.4-3.1,2.1-4.6l2.9-1.7c0.8-0.6,1.7-0.9,2.7-1.1h0.2c1,0.1,1.8,0.6,2.2,1.5
	c0.3,0.6,0.4,1.3,0.3,2c-0.3,0.5-0.7,1-1.2,1.3l0.3,0.5c0.6-0.3,1.1-0.8,1.4-1.5c0.1-0.8,0-1.6-0.5-2.2
	C287.2,150,286.4,149.5,285.3,149.5z"/>
<path class="st2" d="M281,163.7l10.1-7.8l2.3,3c1.1,1.4,1.7,3.2-0.7,5c-1.3,1.2-3.4,1.1-4.6-0.3c-0.1-0.1-0.2-0.3-0.3-0.4l-1.3-1.7
	L282,165L281,163.7z M287.6,160.7l1.1,1.4c0.6,1,1.8,1.3,2.8,0.7c0.1-0.1,0.2-0.1,0.3-0.2c0.9-0.5,1.2-1.7,0.7-2.6
	c0-0.1-0.1-0.1-0.1-0.2l-1.3-1.8L287.6,160.7z"/>
<path class="st2" d="M281.9,165.8l-1.7-2.2l11-8.5l2.6,3.5c1.7,2.1,1.4,4.2-0.8,5.9c-0.7,0.6-1.6,1-2.5,1c-1.3-0.1-2.5-0.7-3.3-1.8
	l-0.9-1.2L281.9,165.8z M286.6,160.7l1.6,2.2c0.6,0.7,1.4,1.2,2.3,1.3c0.7,0,1.3-0.3,1.8-0.7c1.6-1.3,1.8-2.6,0.6-4.2l-2-2.6
	l-9.2,7.1l0.3,0.4L286.6,160.7z M290.4,163.7L290.4,163.7c-0.9,0-1.7-0.5-2.2-1.2l-1.5-1.9l4.4-3.4l1.8,2.2c0.3,0.5,0.5,1.1,0.4,1.7
	c-0.1,0.8-0.5,1.4-1.1,1.9C291.7,163.5,291.1,163.7,290.4,163.7L290.4,163.7z M288.4,160.8l0.7,0.9c0.3,0.4,0.8,0.7,1.3,0.8l0,0
	c0.4,0,0.7-0.2,1-0.4c0.4-0.2,0.6-0.6,0.7-1c0-0.3-0.1-0.6-0.2-0.9l-1-1.3L288.4,160.8z"/>
<path class="st0" d="M295.7,65.4l0.2,0.2c0.5,0.6,1.3,0.6,1.9,0.2c0.1,0,0.1-0.1,0.2-0.2c0.6-0.4,0.7-1.2,0.3-1.8
	c-0.1-0.1-0.2-0.2-0.3-0.3c-1.3-1.3-3.8,1.6-5.7-0.2c-0.9-0.8-1-2.3-0.2-3.2c0.1-0.1,0.1-0.1,0.2-0.2c0.7-0.9,2-1.2,2.9-0.5
	c0.2,0.1,0.4,0.3,0.5,0.5l-0.8,0.8c-0.7-0.7-1.3-0.9-2-0.1c-0.5,0.4-0.6,1.2-0.2,1.6c0,0.1,0.1,0.1,0.2,0.2c1.4,1.3,3.8-1.6,5.8,0.2
	c1.3,1.2,0.9,2.5-0.1,3.6c-1.7,1.8-3.1,0.5-3.7-0.1L295.7,65.4z"/>
<path class="st0" d="M296.8,67.3c-0.8-0.1-1.5-0.4-2-1l-0.1-0.1l0.9-0.9l0.3,0.3c0.3,0.3,0.6,0.5,1,0.5c0.3,0,0.7-0.2,0.9-0.4
	c0.5-0.4,0.7-1.1,0.3-1.7c-0.1-0.1-0.1-0.2-0.2-0.2c-0.2-0.2-0.5-0.3-0.8-0.3c-0.5,0-1,0.1-1.5,0.3c-0.6,0.2-1.2,0.4-1.9,0.4
	c-0.6,0-1.1-0.2-1.5-0.7c-1-0.9-1-2.4-0.1-3.3c0.1-0.1,0.2-0.2,0.2-0.2c0.7-1,2.1-1.2,3.1-0.5c0.2,0.1,0.4,0.3,0.5,0.5L296,60l-1,1
	l-0.1-0.1c-0.7-0.7-1.2-0.7-1.9-0.1c-0.2,0.2-0.3,0.5-0.4,0.8c0,0.3,0.1,0.6,0.4,0.9c0.2,0.2,0.5,0.3,0.8,0.3c0.5,0,1-0.2,1.5-0.3
	c0.6-0.2,1.2-0.4,1.8-0.4c1.4,0.1,2.5,1.2,2.5,2.6c-0.1,0.7-0.4,1.3-0.9,1.8C298.3,66.9,297.6,67.3,296.8,67.3z M295.1,66.2
	c0.4,0.5,1.1,0.8,1.7,0.9c0.7-0.1,1.3-0.4,1.7-0.9c0.5-0.4,0.8-1,0.9-1.6c0-0.7-0.2-1.3-0.8-1.8c-0.4-0.4-0.9-0.6-1.5-0.6
	c-0.6,0-1.2,0.2-1.8,0.4c-0.5,0.2-1,0.3-1.5,0.3c-0.4,0-0.7-0.1-1-0.3c-0.3-0.3-0.5-0.7-0.4-1.1c0-0.3,0.2-0.7,0.4-0.9
	c0.5-0.6,1.3-0.7,1.9-0.2c0.1,0.1,0.1,0.1,0.2,0.2l0.6-0.6c-0.7-0.9-1.9-1-2.8-0.3c-0.1,0.1-0.3,0.2-0.4,0.4c-0.9,0.7-1.1,2.1-0.3,3
	c0.1,0.1,0.1,0.2,0.2,0.2c0.4,0.4,0.9,0.6,1.4,0.6c0.6,0,1.2-0.2,1.8-0.4c0.5-0.2,1-0.3,1.6-0.4c0.8,0,1.5,0.6,1.5,1.4
	c0,0.5-0.2,0.9-0.6,1.2c-0.3,0.3-0.7,0.5-1.1,0.5c-0.4,0-0.9-0.2-1.2-0.5l-0.1-0.1L295.1,66.2z"/>
<path class="st0" d="M298.8,54.2l0.8-0.7l1.7,5.5l2.1,2.5l-0.8,0.7l-2.1-2.5l-5.2-2.5l0.9-0.8l4,2L298.8,54.2z"/>
<path class="st0" d="M302.6,62.4l-2.2-2.5l-5.3-2.5l1.1-1l3.8,1.9l-1.4-4l1-0.9l1.7,5.6l2.2,2.5L302.6,62.4z M295.5,57.2l5,2.5
	l2.1,2.3l0.6-0.6l-2.1-2.4l-1.6-5.3l-0.6,0.6l1.4,4.4l-4.1-2.1L295.5,57.2z"/>
<path class="st0" d="M305.3,56.7l0.1,0.2c0.5,0.7,1.4,0.8,2.1,0.3c0.6-0.5,0.8-1.3,0.4-2c-1.1-1.5-4.1,0.9-5.6-1.2
	c-0.8-1-0.6-2.3,0.4-3.1c0.1-0.1,0.2-0.1,0.3-0.2c1.3-0.9,2.4-0.8,3.3,0.6l-0.9,0.7c-0.5-0.7-1.1-1.1-2-0.5
	c-0.6,0.3-0.8,1.1-0.5,1.6c0,0.1,0.1,0.1,0.1,0.2c1.1,1.5,4-0.9,5.6,1.3c1.1,1.5,0.4,2.7-0.8,3.5c-2,1.5-3.1-0.1-3.6-0.7L305.3,56.7
	z"/>
<path class="st0" d="M306.4,58.9c-0.9-0.1-1.7-0.6-2.1-1.4l-0.1-0.1l1.1-0.8l0.3,0.3c0.2,0.4,0.6,0.6,1,0.7c0.3,0,0.6-0.1,0.8-0.3
	c0.3-0.2,0.6-0.5,0.7-0.8c0.1-0.4,0-0.7-0.3-1c-0.3-0.3-0.7-0.5-1.2-0.5c-0.4,0-0.7,0-1.1,0.1c-0.4,0.1-0.9,0.1-1.3,0.1
	c-0.8,0-1.5-0.3-2-1c-0.8-1.1-0.6-2.6,0.5-3.4c0.1-0.1,0.1-0.1,0.2-0.1c0.9-0.8,2.3-0.8,3.1,0.1c0.2,0.2,0.3,0.4,0.4,0.6l0.1,0.1
	l-1.1,0.8l0-0.1c-0.6-0.8-1.1-1-1.8-0.5c-0.3,0.2-0.5,0.4-0.5,0.7c-0.1,0.3,0,0.7,0.2,0.9c0.3,0.4,0.7,0.5,1.1,0.5
	c0.4,0,0.7-0.1,1.1-0.1c0.4-0.1,0.8-0.1,1.3-0.1c0.8-0.1,1.6,0.3,2.1,1c1,1.3,0.7,2.6-0.8,3.6C307.6,58.7,307,58.9,306.4,58.9z
	 M304.5,57.5c0.4,0.7,1.1,1.1,1.8,1.2c0.6,0,1.1-0.3,1.5-0.6c0.9-0.7,1.8-1.8,0.8-3.3c-0.4-0.6-1.2-1-1.9-0.9c-0.4,0-0.8,0-1.3,0.1
	c-0.4,0.1-0.7,0.1-1.1,0.1c-0.5,0.1-1-0.2-1.3-0.6c-0.2-0.3-0.3-0.8-0.2-1.2c0.1-0.3,0.3-0.6,0.6-0.8c0.8-0.6,1.4-0.4,2.1,0.4
	l0.7-0.5c-0.5-1-1.7-1.3-2.7-0.8c-0.2,0.1-0.3,0.2-0.4,0.3c-1,0.6-1.4,1.9-0.8,2.9c0.1,0.1,0.1,0.2,0.2,0.3c0.4,0.6,1.1,0.9,1.8,0.8
	c0.4,0,0.8-0.1,1.3-0.1c0.4-0.1,0.8-0.1,1.1-0.1c0.5,0,1,0.2,1.4,0.6c0.3,0.3,0.4,0.8,0.3,1.2c-0.1,0.4-0.4,0.8-0.7,1
	c-0.3,0.2-0.6,0.3-1,0.3c-0.5,0-1-0.3-1.3-0.8l-0.1-0.1L304.5,57.5z"/>
<path class="st0" d="M311.3,45.8l0.5,0.8l-1.9,1.1l3.8,6.5l-1,0.5l-3.8-6.5l-1.9,1.2l-0.5-0.8L311.3,45.8z"/>
<path class="st0" d="M312.7,55l-0.1-0.1l-3.8-6.4l-1.9,1.1l-0.6-1l5-2.9l0.6,1l-1.9,1.1l3.8,6.6L312.7,55z M308.9,48.1L308.9,48.1
	l3.9,6.5l0.8-0.4l-3.9-6.5l2-1.1l-0.4-0.6l-4.6,2.7l0.4,0.6L308.9,48.1z"/>
<path class="st0" d="M316.6,52.7l-3.6-7.7l4-1.8l0.4,0.8l-3,1.4l1.2,2.5l2.8-1.3l0.4,0.9l-2.8,1.3l1.3,2.7l3-1.4l0.4,0.8L316.6,52.7
	z"/>
<path class="st0" d="M316.5,52.8v-0.1l-3.8-7.8h0.1l4.1-2l0.5,1.1l-3,1.4l1.1,2.3l2.8-1.3l0.5,1.1l-2.8,1.3l1.1,2.4l3.1-1.4l0.5,1.1
	h-0.1L316.5,52.8z M313.1,45l3.6,7.5l3.8-1.8l-0.3-0.6l-3.1,1.4l-1.3-2.9l2.8-1.3l-0.3-0.6l-2.8,1.3l-1.3-2.7l3-1.4l-0.3-0.6
	L313.1,45z"/>
<path class="st0" d="M322.9,49.8l-1,0.3l-2.7-8.1l1.7-0.6l4.3,6.1l0,0l-0.2-7.5l1.7-0.5l2.7,8.1l-1,0.3l-2.4-7.2l0,0l0.1,8l-1,0.3
	l-4.6-6.5l0,0L322.9,49.8z"/>
<path class="st0" d="M321.9,50.3l-2.8-8.3l1.9-0.6l0.1,0.1l4.1,5.8l-0.2-7.2l1.9-0.6l2.8,8.3l-1.3,0.4l-2.2-6.6l0.1,7.3l-1.1,0.3
	l-4.3-5.9l2.3,6.7L321.9,50.3z M319.4,42.1L322,50l0.8-0.3l-2.4-7.2l0.2-0.1l0.1,0.1l4.6,6.3l0.8-0.3l-0.2-8l0.2-0.1l0.1,0.1
	l2.4,7.1l0.8-0.3l-2.6-7.8l-1.5,0.5l0.2,7.5l-0.2,0.1l-0.1-0.1l-4.3-6L319.4,42.1z"/>
<path class="st0" d="M336.6,40c0-0.4-0.1-0.8-0.4-1.2c-0.3-0.2-0.6-0.3-1-0.2c-0.5,0-1,0.4-1.2,0.8c-0.1,0.6-0.1,1.2,0.1,1.8
	l0.3,2.3c0.4,2.1,1,2.2,1.9,2.1c0.3,0,1.3-0.3,1.1-2l1.1-0.2c0.5,2.6-1.4,2.9-2,3c-1,0.2-2.6,0.3-3.1-2.9l-0.4-2.4
	c-0.4-2.4,0.5-3.2,2.2-3.5s2.5,0.5,2.6,2.2L336.6,40z"/>
<path class="st0" d="M335.7,46.6c-1.4,0-2.2-1-2.6-3l-0.4-2.4c-0.2-0.9-0.1-1.9,0.4-2.7c0.5-0.6,1.2-0.9,2-1
	c1.7-0.3,2.6,0.5,2.7,2.2v0.1l-1.3,0.3l0-0.1c0-0.4-0.2-0.8-0.4-1.1c-0.2-0.1-0.5-0.2-0.7-0.2c-0.1,0-0.1,0-0.2,0
	c-0.5,0-0.9,0.3-1.1,0.7v0.1c0,0.1-0.2,0.4,0.1,1.7l0.4,2.3c0.3,1.7,0.9,2,1.4,2c0.1,0,0.2,0,0.4,0c0.4-0.1,1.2-0.4,1-1.8v-0.1
	l1.3-0.2v0.1c0.2,0.8,0.1,1.6-0.3,2.2c-0.4,0.5-1,0.9-1.7,0.9C336.3,46.6,336,46.6,335.7,46.6z M335.7,37.7c-0.2,0-0.4,0-0.6,0.1
	c-0.7,0-1.4,0.4-1.8,0.9c-0.4,0.7-0.6,1.6-0.3,2.5l0.4,2.4c0.4,2.6,1.5,2.9,2.3,2.9c0.2,0,0.5,0,0.7-0.1c0.6,0,1.2-0.3,1.6-0.8
	c0.4-0.6,0.5-1.3,0.3-2l-0.9,0.1c0.2,1.6-0.8,1.9-1.1,2c-0.1,0-0.3,0.1-0.4,0c-0.9,0-1.4-0.6-1.6-2.2l-0.4-2.3
	c-0.2-0.6-0.2-1.2,0-1.8l0,0c0.2-0.6,0.7-0.9,1.3-1h0.2c0.3,0,0.6,0.1,0.9,0.3c0.3,0.3,0.4,0.7,0.5,1.1l0.9-0.1
	C337.4,38.4,336.8,37.7,335.7,37.7L335.7,37.7z"/>
<path class="st0" d="M340.4,45.7l-0.6-8.5l4.4-0.3l0.1,1l-3.3,0.2l0.2,2.7l3.1-0.2l0,0.9l-3.1,0.3l0.2,3l3.4-0.3l0.1,1L340.4,45.7z"
	/>
<path class="st0" d="M340.2,45.9v-0.1l-0.6-8.6l4.6-0.3l0.1,1.2l-3.3,0.2l0.2,2.5l3.1-0.2l0,1.2l-3,0.2l0.2,2.7l3.4-0.2l0.1,1.2
	L340.2,45.9z M339.9,37.4l0.5,8.3l4.3-0.3l-0.1-0.7l-3.3,0.3l-0.2-3.2l3-0.2v-0.7L341,41l-0.2-3l3.3-0.2l-0.1-0.7L339.9,37.4z"/>
<path class="st0" d="M347.4,41.5l0,3.9h-1.1l0.1-8.5l2.9,0.1c1-0.1,1.9,0.7,2,1.8c0,0.1,0,0.2,0,0.3c0.1,1-0.6,1.8-1.6,1.9l0,0
	c1,0.2,1.3,0.5,1.4,2.2c0,0.7,0.1,1.5,0.3,2.2h-1.1c-0.2-0.9-0.3-1.9-0.3-2.8c0-0.6-0.5-1.1-1.2-1.1c0,0-0.1,0-0.1,0L347.4,41.5z
	 M347.4,40.6h1.6c0.8,0,1.2-0.7,1.2-1.4c0.1-0.6-0.4-1.2-1-1.2c0,0-0.1,0-0.1,0h-1.6L347.4,40.6z"/>
<path class="st0" d="M351.5,45.6h-1.4v-0.1c-0.2-0.6-0.3-1.3-0.3-1.9c0-0.3,0-0.7,0-1c0-0.6-0.4-1-1-1c-0.1,0-0.1,0-0.2,0h-1.1
	l-0.1,3.9h-1.4v-0.2l0.1-8.6h3.1c1.1-0.1,2.1,0.7,2.1,1.8c0,0.1,0,0.3,0,0.4c0.1,0.8-0.4,1.6-1.2,1.9c0.7,0.2,1,0.7,1,2.2
	c0,0.8,0.1,1.5,0.3,2.2L351.5,45.6z M350.2,45.3h0.9c-0.1-0.7-0.2-1.4-0.2-2.1c0-1.7-0.4-2-1.3-2.1h-0.1v-0.2h0.1
	c0.9-0.1,1.6-0.9,1.5-1.8c0.1-1-0.6-1.9-1.6-2c-0.1,0-0.2,0-0.3,0h-2.8l-0.1,8.3h0.8l0.1-3.9h1.4c0.9,0,1.3,0.4,1.4,1.2
	c0,0.3,0,0.7,0,1C350,44.2,350.1,44.8,350.2,45.3L350.2,45.3z M349,40.7L349,40.7h-1.7v-2.9h1.7c0.7,0,1.2,0.5,1.2,1.2
	c0,0.1,0,0.1,0,0.2C350.2,39.9,349.9,40.7,349,40.7L349,40.7z M347.5,40.4l1.5,0l0,0c0.6,0,1.1-0.6,1.1-1.2c0,0,0-0.1,0-0.1
	c0.1-0.6-0.4-1.1-0.9-1.2c0,0,0,0-0.1,0h-1.5L347.5,40.4z"/>
<path class="st0" d="M358.3,37.5l-0.1,1l-2.2-0.2l-0.6,7.6l-1.1-0.1l0.7-7.5l-2.3-0.3l0.1-0.9L358.3,37.5z"/>
<path class="st0" d="M355.4,45.9l-1.3-0.1l0.6-7.5l-2.2-0.2l0.1-1.2l5.8,0.5l-0.1,1.2l-2.2-0.2L355.4,45.9z M354.3,45.6l0.9,0.1
	l0.7-7.5l2.2,0.2l0.1-0.7l-5.3-0.4l-0.1,0.7l2.2,0.2L354.3,45.6z"/>
<path class="st0" d="M359.9,46.3l-1.1-0.2l1.2-8.4l1,0.2L359.9,46.3z"/>
<path class="st0" d="M360,46.4l-1.4-0.2l0.1-0.1l1.2-8.5l1.3,0.2v0.1L360,46.4z M359,46.1l0.8,0.1L361,38l-0.8-0.1L359,46.1z"/>
<path class="st0" d="M361.8,46.6l1.7-8.3l4.1,0.8l-0.2,0.9l-3.1-0.6l-0.5,2.7l2.9,0.6l-0.2,0.9l-2.9-0.6l-0.8,3.8L361.8,46.6z"/>
<path class="st0" d="M363,46.9l-1.3-0.3l1.7-8.6l4.4,0.9l-0.2,1.2l-3.1-0.6L364,42l2.9,0.6l-0.2,1.2l-2.9-0.6L363,46.9z M362,46.5
	l0.9,0.2l0.7-3.8l3,0.6l0.1-0.7l-2.9-0.6l0.6-2.9l3.1,0.6l0.2-0.7l-3.9-0.8L362,46.5z"/>
<path class="st0" d="M368.2,48.1l-1-0.3l2.2-8.2l1,0.3L368.2,48.1z"/>
<path class="st0" d="M368.3,48.2l-1.3-0.3l2.2-8.5l1.3,0.3L368.3,48.2z M367.3,47.7l0.8,0.2l2.1-8l-0.8-0.2L367.3,47.7z"/>
<path class="st0" d="M375.8,43.9c0.2-0.4,0.2-0.8,0.2-1.2c-0.2-0.3-0.5-0.6-0.8-0.7c-0.9-0.3-1.4,0.1-1.4,0.2s-0.4,0.2-0.8,1.6
	l-0.8,2.2c-0.6,2-0.1,2.4,0.7,2.7c0.4,0.1,1.3,0.3,1.9-1.3l1.1,0.3c-0.8,2.6-2.6,1.9-3.2,1.8c-1-0.3-2.5-0.9-1.5-4.1l0.8-2.3
	c0.8-2.3,2-2.6,3.6-2s1.9,1.6,1.3,3.1L375.8,43.9z"/>
<path class="st0" d="M373.6,49.9c-0.3,0-0.7-0.1-1-0.2c-0.9-0.3-2.6-0.9-1.5-4.2l0.7-2.3c0.6-1.6,1.4-2.3,2.5-2.3
	c0.4,0,0.8,0.1,1.2,0.2c0.6,0.2,1.2,0.6,1.5,1.2c0.2,0.7,0.2,1.4-0.1,2.1l0,0.1l-1.3-0.4v-0.1c0.2-0.4,0.2-0.8,0.1-1.2
	c-0.2-0.3-0.4-0.5-0.7-0.6c-0.2-0.1-0.4-0.1-0.5-0.1c-0.3,0-0.5,0.1-0.8,0.3l0,0c-0.1,0.1-0.4,0.3-0.8,1.5l-0.7,2.2
	c-0.7,1.9-0.1,2.3,0.6,2.5c0.1,0.1,0.3,0.1,0.4,0.1c0.5,0,1-0.4,1.3-1.2v-0.1l1.3,0.4l0,0.1C375.3,49.5,374.4,49.9,373.6,49.9z
	 M374.3,41.1c-1,0-1.8,0.7-2.3,2.2l-0.8,2.3c-1.1,3.1,0.5,3.6,1.4,3.9c0.3,0.1,0.7,0.2,1,0.2c0.9,0,1.6-0.6,2-1.8l-0.8-0.3
	c-0.4,1-1,1.3-1.5,1.3c-0.2,0-0.3,0-0.5-0.1c-0.9-0.3-1.4-0.9-0.7-2.9l0.7-2.2c0.4-1.3,0.6-1.5,0.8-1.6l0,0c0.3-0.2,0.6-0.4,0.9-0.3
	c0.2,0,0.4,0,0.6,0.1c0.4,0.1,0.7,0.4,0.9,0.7c0.1,0.4,0.1,0.8-0.1,1.2l0.8,0.3c0.3-0.6,0.3-1.2,0.1-1.8c-0.3-0.5-0.8-0.9-1.4-1
	C375.1,41.2,374.7,41.1,374.3,41.1L374.3,41.1z"/>
<path class="st0" d="M381.7,43.8l1.3,0.6l-1.1,8.9l-1.1-0.5l0.3-2.1l-3-1.4l-1.4,1.6l-1-0.4L381.7,43.8z M381.9,45L381.9,45
	l-3.1,3.5l2.5,1.2L381.9,45z"/>
<path class="st0" d="M382.1,53.5l-1.4-0.6l0.3-2.1l-2.8-1.3l-1.4,1.5l-1.2-0.6l0.1-0.1l6.1-6.7l1.4,0.6v0.1L382.1,53.5z M380.9,52.7
	l0.9,0.4l1-8.7l-1.1-0.5l-5.9,6.4l0.8,0.3l1.4-1.6l3.2,1.5L380.9,52.7z M381.3,49.9l-2.7-1.3l3.3-3.8l0.2,0.1L381.3,49.9z M379,48.5
	l2.1,1l0.6-4.2L379,48.5z"/>
<path class="st0" d="M390.5,48.5l-0.5,0.8l-2-1.1l-3.8,6.6l-1-0.6l3.8-6.5l-2-1.2l0.5-0.8L390.5,48.5z"/>
<path class="st0" d="M384.4,54.9l-1.1-0.7l3.8-6.5l-2-1.1l0.6-1l5,2.9l-0.6,1l-2-1.1L384.4,54.9z M383.5,54.1l0.7,0.4L388,48l2,1.1
	l0.4-0.6l-4.7-2.6l-0.4,0.6l2,1.1L383.5,54.1z"/>
<path class="st0" d="M388.2,57.2l-0.9-0.6l4.8-7l0.9,0.6L388.2,57.2z"/>
<path class="st0" d="M388.2,57.4l-1.1-0.7l4.9-7.2l1.1,0.7L388.2,57.4z M387.5,56.6l0.7,0.5l4.6-6.8l-0.7-0.5L387.5,56.6z"/>
<path class="st0" d="M391.8,56l1.8-2.2c1.1-1.3,2.5-1.6,3.9-0.5c1.1,0.8,1.4,2.3,0.7,3.4c-0.1,0.2-0.2,0.3-0.4,0.4l-1.8,2.2
	c-1.5,1.8-2.7,2-4.1,0.9S390.3,57.8,391.8,56z M395,58.7l1.8-2.2c1.1-1.3,0.2-2.2,0-2.4s-1.2-0.9-2.4,0.5l-1.8,2.2
	c-1.2,1.4-1,2.1-0.2,2.8S393.9,60.1,395,58.7L395,58.7z"/>
<path class="st0" d="M393.5,61c-0.7,0-1.3-0.3-1.8-0.7c-0.7-0.4-1.1-1.2-1.1-2c0.1-0.9,0.5-1.7,1.1-2.4l1.8-2.2
	c0.5-0.7,1.3-1.2,2.2-1.2c0.7,0,1.3,0.3,1.8,0.7c0.7,0.5,1.1,1.2,1.1,2c0,0.7-0.3,1.5-0.8,2l-1.8,2.2
	C395.5,60.3,394.5,60.9,393.5,61z M395.7,52.7c-0.8,0-1.5,0.5-2,1.1l-1.8,2.1c-0.6,0.6-1,1.4-1.1,2.3c0,0.7,0.4,1.4,1,1.8
	c0.4,0.4,1,0.7,1.6,0.7c1-0.1,1.8-0.7,2.4-1.5l1.8-2.2c0.5-0.5,0.7-1.2,0.7-1.9C398.1,53.9,397,52.8,395.7,52.7L395.7,52.7z
	 M393.3,60L393.3,60c-0.4,0-0.7-0.2-1-0.4c-0.4-0.3-0.7-0.7-0.7-1.2c0.1-0.7,0.5-1.3,0.9-1.7l1.8-2.2c0.8-1,1.8-1.1,2.5-0.5
	c0.3,0.2,0.5,0.5,0.6,0.8c0.1,0.6,0,1.3-0.5,1.8l-1.8,2.2C394.4,59.6,393.9,60,393.3,60z M395.9,53.8c-0.5,0-1,0.3-1.3,0.8l-1.8,2.2
	c-0.4,0.5-0.7,1-0.9,1.7c0,0.4,0.2,0.8,0.6,1c0.2,0.2,0.6,0.4,0.9,0.4c0.5,0,1-0.3,1.7-1.1l1.8-2.3c0.4-0.4,0.6-1,0.5-1.5
	c-0.1-0.3-0.3-0.5-0.5-0.7C396.5,53.9,396.2,53.8,395.9,53.8z"/>
<path class="st0" d="M405.6,61.4l-6.1,5.9l-1-1.1l3-7.5l0,0l-5.4,5.1l-0.7-0.7l6.2-5.9l1,1.1l-3,7.4l0,0l5.3-5L405.6,61.4z"/>
<path class="st0" d="M399.5,67.5l-1.2-1.2l2.9-7.2l-5.1,4.8l-0.8-0.9l0.1-0.1l6.3-6l1.2,1.3l-2.8,7.1l5-4.8l0.8,0.8l-0.1,0.1
	L399.5,67.5z M398.6,66.2l0.9,0.9l6-5.7l-0.5-0.5l-5.3,5l-0.2-0.1v-0.1l3-7.4l-0.9-1l-6,5.7l0.5,0.5l5.3-5.1l0.1,0.1v0.1L398.6,66.2
	z"/>
<path class="st1" d="M656.8,160.1v-41.8c0-46.2-37.4-83.6-83.6-83.6s-83.6,37.4-83.6,83.6h16.7c0.5-37,30.8-66.5,67.7-66.1
	c36.3,0.4,65.6,29.8,66.1,66.1v41.8H656.8z"/>
<path class="st2" d="M573.2,139.5L559,125.2v-21.6l14.3,14.3l32.5-32.4c-18-18-47.1-18.1-65.1-0.1c-18,18-18.1,47.1-0.1,65.1
	c18,18,47.1,18.1,65.1,0.1c13.9-13.8,17.5-34.9,9-52.5L573.2,139.5z"/>
<path class="st3" d="M601.2,201.3c-4.2-1.3-5-4.9-4.8-8.9h6.1c0,2.7,0.1,5,3.4,5c2,0,3-1.3,3-3.3c0-5.2-12.2-5.5-12.2-14.1
	c0-4.5,2.2-8.1,9.5-8.1c5.9,0,8.8,2.6,8.4,8.6h-5.8c0-2.2-0.4-4.4-2.8-4.4c-1.5-0.2-2.9,1-3.1,2.5c0,0.2,0,0.4,0,0.6
	c0,5.5,12.2,5,12.2,14.1c0,5-2.5,7-5.5,7.9L601.2,201.3z"/>
<path class="st3" d="M629.7,181.4c0-2.7-0.4-5-3.6-5c-3.8,0-3.8,5.1-3.8,10.6c0,9,0.9,10.6,4.4,10.6c1,0,2-0.2,3-0.6v-6.4h-3.3v-4.5
	h9.3v14.6c-0.6,0.1-1.7,0.3-2.8,0.5h-10.3c-5.6-1.4-6.3-5.8-6.3-14.6c0-7.3,0.3-14.6,10.3-14.6c5.9,0,9.6,3.3,9.2,9.3L629.7,181.4z"
	/>
<path class="st3" d="M647.1,172.1c5.3,0,8.2,2.1,8.6,6.7v2h-5.8c0-2.1-0.5-4.4-3-4.4c-1.5-0.2-2.9,0.9-3.1,2.4c0,0.2,0,0.4,0,0.6
	c0,5.1,10.4,5,11.9,12.2v4.2c-0.4,2.8-2.5,5-5.2,5.6H642c-4.2-1.3-5-4.9-4.8-8.9h6c0,2.7,0.1,5,3.4,5c2,0,3.1-1.3,3.1-3.3
	c0-5.2-12.2-5.5-12.2-14.1C637.6,175.7,639.7,172.1,647.1,172.1L647.1,172.1z"/>
<polygon class="st2" points="578.2,201.3 667.5,201.3 667.5,202.4 578.2,202.4 578.2,201.3 "/>
<polygon class="st2" points="655.6,166.7 656.8,166.7 656.8,208.4 655.6,208.4 655.6,166.7 "/>
<path class="st0" d="M520.3,67.9l0.2,0.2c0.5,0.6,1.4,0.6,1.9,0.2c0.1,0,0.1-0.1,0.2-0.2c0.6-0.4,0.7-1.2,0.3-1.8
	c-0.1-0.1-0.2-0.2-0.3-0.3c-1.4-1.3-3.8,1.6-5.7-0.2c-0.9-0.8-1.1-2.2-0.3-3.1c0.1-0.1,0.2-0.2,0.3-0.3c0.7-0.9,2-1.2,2.9-0.5
	c0.2,0.1,0.4,0.3,0.5,0.5l-0.8,0.8c-0.7-0.7-1.3-0.9-2-0.1c-0.5,0.4-0.6,1.2-0.1,1.7c0,0,0.1,0.1,0.1,0.1c1.3,1.3,3.8-1.6,5.8,0.2
	c1.3,1.3,0.9,2.5-0.1,3.6c-0.7,1-2.2,1.2-3.2,0.5c-0.2-0.1-0.4-0.3-0.5-0.5L520.3,67.9z"/>
<path class="st0" d="M521.5,69.8c-0.8,0-1.5-0.4-2-1l-0.1-0.1l0.9-1l0.3,0.3c0.3,0.3,0.6,0.5,1,0.5c0.4,0,0.7-0.2,0.9-0.4
	c0.5-0.4,0.7-1.1,0.3-1.7c-0.1-0.1-0.1-0.2-0.2-0.2c-0.2-0.2-0.5-0.3-0.9-0.3c-0.5,0-1,0.2-1.5,0.3c-0.6,0.2-1.2,0.4-1.8,0.4
	c-0.6,0-1.1-0.2-1.5-0.6c-1-0.9-1.1-2.4-0.2-3.3c0.1-0.1,0.2-0.2,0.3-0.2c0.7-1,2.1-1.2,3.1-0.5c0.2,0.1,0.4,0.3,0.5,0.5h0.1l-0.9,1
	l-0.1-0.1c-0.7-0.7-1.2-0.7-1.8-0.1c-0.2,0.2-0.4,0.5-0.4,0.8c0,0.3,0.1,0.7,0.4,0.9c0.2,0.2,0.5,0.3,0.8,0.3c0.5,0,1-0.2,1.5-0.3
	c0.6-0.2,1.2-0.4,1.8-0.4c0.6,0,1.2,0.2,1.7,0.7c0.6,0.5,0.9,1.2,0.8,2c-0.1,0.7-0.4,1.3-0.9,1.8C522.9,69.4,522.2,69.8,521.5,69.8z
	 M519.7,68.7c0.5,0.5,1.1,0.8,1.8,0.9c0.7-0.1,1.3-0.4,1.7-0.9c0.5-0.4,0.8-1,0.9-1.6c0.1-0.7-0.2-1.3-0.7-1.8
	c-0.4-0.4-0.9-0.6-1.5-0.6c-0.6,0-1.2,0.2-1.8,0.4c-0.5,0.2-1,0.3-1.5,0.3c-0.3,0-0.7-0.1-0.9-0.4c-0.3-0.3-0.5-0.7-0.5-1.1
	c0.1-0.3,0.2-0.7,0.5-0.9c0.6-0.7,1.3-0.7,2.1,0l0.6-0.7c-0.7-0.9-1.9-1-2.8-0.3c-0.1,0.1-0.3,0.2-0.4,0.4c-0.9,0.8-1,2.1-0.2,3
	c0.1,0.1,0.1,0.2,0.2,0.2c0.4,0.4,0.9,0.6,1.4,0.6c0.6,0,1.2-0.2,1.8-0.4c0.5-0.2,1-0.3,1.5-0.4c0.4,0,0.7,0.1,1,0.4
	c0.6,0.5,0.7,1.4,0.2,2c-0.1,0.1-0.2,0.2-0.2,0.2c-0.3,0.3-0.7,0.5-1.1,0.5c-0.4,0-0.9-0.2-1.2-0.5l-0.1-0.1L519.7,68.7z"/>
<path class="st0" d="M523.4,56.7l0.8-0.7l1.7,5.5l2.1,2.4l-0.8,0.7l-2.1-2.5l-5.2-2.5l0.9-0.8l3.9,2L523.4,56.7z"/>
<path class="st0" d="M527.2,64.9l-2.2-2.5l-5.3-2.5l1.1-1l3.8,1.9l-1.3-4l1-0.9l0.1,0.2l1.7,5.5l2.2,2.5L527.2,64.9z M520.1,59.8
	l5.1,2.5l2,2.4l0.6-0.6l-2-2.4l-1.7-5.3l-0.6,0.6l1.5,4.5l-4.2-2.1L520.1,59.8z"/>
<path class="st0" d="M529.9,59.3l0.2,0.2c0.4,0.6,1.2,0.9,1.8,0.5c0.1,0,0.1-0.1,0.2-0.1c0.7-0.5,1-1.2,0.5-2
	c-1.1-1.5-4.1,0.9-5.5-1.2c-0.8-0.9-0.6-2.3,0.3-3.1c0.1-0.1,0.2-0.2,0.3-0.2c0.8-0.8,2.1-0.8,3,0c0.2,0.2,0.3,0.4,0.4,0.6l-0.9,0.6
	c-0.5-0.8-1.1-1.1-1.9-0.5c-0.6,0.3-0.7,1-0.4,1.6c0,0.1,0.1,0.1,0.1,0.2c1,1.5,4-1,5.6,1.3c1.1,1.5,0.4,2.6-0.7,3.4
	c-2,1.5-3.2,0-3.6-0.7L529.9,59.3z"/>
<path class="st0" d="M531,61.4c-0.9-0.1-1.7-0.6-2.1-1.4l-0.1,0l1.1-0.8l0.2,0.3c0.2,0.4,0.6,0.7,1.1,0.7c0.3,0,0.6-0.1,0.8-0.3
	c0.3-0.2,0.5-0.5,0.7-0.8c0.1-0.4,0-0.7-0.3-1c-0.3-0.3-0.7-0.5-1.2-0.5c-0.4,0-0.7,0-1.1,0.1c-0.4,0.1-0.9,0.1-1.3,0.1
	c-0.8,0.1-1.5-0.3-2-0.9c-0.8-1-0.6-2.5,0.5-3.3c0.1-0.1,0.2-0.1,0.3-0.2c0.9-0.8,2.2-0.8,3.1,0.1c0.2,0.2,0.3,0.4,0.4,0.6l0.1,0.1
	l-1.1,0.8l0-0.1c-0.6-0.8-1.2-0.9-1.8-0.4c-0.2,0.2-0.4,0.4-0.5,0.7c-0.1,0.3,0,0.7,0.2,0.9c0.3,0.4,0.7,0.5,1.2,0.5
	c0.4,0,0.7,0,1.1-0.1c0.4-0.1,0.8-0.1,1.3-0.1c0.8-0.1,1.6,0.3,2.1,1c1,1.3,0.6,2.6-0.8,3.6C532.2,61.2,531.6,61.4,531,61.4z
	 M529.2,59.9c0.4,0.7,1.1,1.2,1.8,1.2c0.6-0.1,1.1-0.3,1.5-0.6c0.9-0.7,1.8-1.8,0.7-3.3c-0.4-0.6-1.2-1-1.9-0.9
	c-0.4,0-0.8,0-1.2,0.1c-0.4,0.1-0.7,0.1-1.1,0.1c-0.5,0.1-1-0.2-1.3-0.5c-0.3-0.3-0.4-0.8-0.3-1.2c0.1-0.3,0.3-0.6,0.6-0.8
	c0.8-0.6,1.4-0.4,2.1,0.5l0.7-0.6c-0.5-1-1.7-1.3-2.7-0.8c-0.2,0.1-0.3,0.2-0.4,0.3c-1,0.5-1.4,1.8-0.9,2.8c0.1,0.1,0.1,0.2,0.2,0.4
	c0.4,0.6,1.1,0.9,1.8,0.9c0.4,0,0.8-0.1,1.3-0.1c0.4-0.1,0.8-0.1,1.1-0.1c0.5,0,1,0.2,1.4,0.6c0.3,0.3,0.4,0.8,0.3,1.2
	c-0.1,0.4-0.4,0.8-0.8,1c-0.3,0.2-0.6,0.3-0.9,0.3c-0.5,0-1-0.3-1.3-0.8v-0.1L529.2,59.9z"/>
<path class="st0" d="M535.9,48.3l0.5,0.8l-1.9,1.1l3.8,6.5l-1,0.5l-3.8-6.5l-1.9,1.1l-0.5-0.8L535.9,48.3z"/>
<path class="st0" d="M537.3,57.5l-0.1-0.1l-3.7-6.5l-1.9,1.1l-0.6-1L531,51l4.9-2.9l0.6,1l-1.9,1.1l3.8,6.5L537.3,57.5z M533.5,50.6
	l0.1,0.1l3.7,6.4l0.8-0.4l-3.8-6.5l1.9-1.1l-0.3-0.6l-4.6,2.7l0.4,0.6L533.5,50.6z"/>
<path class="st0" d="M541.2,55.1l-3.6-7.7l4-1.9l0.4,0.9l-3,1.4l1.2,2.5l2.8-1.3l0.4,0.8l-2.8,1.3l1.3,2.7l3-1.5l0.4,0.8L541.2,55.1
	z"/>
<path class="st0" d="M541.1,55.3l-3.8-7.9l4.2-2l0.5,1.1l-3,1.4l1.1,2.3l2.8-1.3l0.5,1.1l-2.8,1.3l1.2,2.5l3.1-1.4l0.5,1.1
	L541.1,55.3z M537.7,47.5l3.5,7.5l3.8-1.8l-0.3-0.6l-3,1.4l-1.4-2.9l2.8-1.4l-0.3-0.6l-2.8,1.3l-1.3-2.7l3-1.4l-0.3-0.6L537.7,47.5z
	"/>
<path class="st0" d="M547.5,52.3l-0.9,0.3l-2.7-8.1l1.7-0.5l4.3,6.1l0,0l-0.2-7.5l1.7-0.5l2.7,8.1l-1,0.3l-2.4-7.2l0,0l0.1,7.9
	l-1,0.3l-4.6-6.4l0,0L547.5,52.3z"/>
<path class="st0" d="M546.5,52.8v-0.1l-2.7-8.2l1.9-0.6v0.1l4.1,5.8l-0.2-7.2l1.9-0.6V42l2.7,8.2l-1.3,0.4v-0.1l-2.2-6.5l0.2,7.4
	l-1.2,0.3l-4.3-5.9l2.2,6.6L546.5,52.8z M544,44.6l2.7,7.9l0.7-0.3l-2.4-7.2l0.2-0.1l0.1,0.1l4.6,6.3l0.8-0.3l-0.2-8l0.2-0.1v0.1
	l2.4,7.1l0.8-0.3l-2.7-7.9l-1.5,0.5l0.2,7.5l-0.2,0.1l-0.1-0.1l-4.2-6L544,44.6z"/>
<path class="st0" d="M561.2,42.5c0-0.4-0.2-0.8-0.4-1.1c-0.3-0.2-0.6-0.3-1-0.2c-0.9,0.2-1.2,0.7-1.2,0.8s-0.2,0.4,0,1.8L559,46
	c0.3,2.1,1,2.2,1.9,2.1c0.3,0,1.3-0.3,1-2l1.1-0.2c0.5,2.6-1.4,3-1.9,3.1c-1.1,0.2-2.7,0.3-3.2-2.9l-0.4-2.4
	c-0.4-2.3,0.6-3.2,2.2-3.5s2.4,0.5,2.6,2.2L561.2,42.5z"/>
<path class="st0" d="M560.3,49.1c-1.4,0-2.2-1-2.5-3.1l-0.4-2.4c-0.2-0.9-0.1-1.9,0.4-2.7c0.5-0.6,1.2-0.9,1.9-1
	c1.7-0.2,2.6,0.5,2.8,2.3v0.1l-1.3,0.2v-0.2c0-0.4-0.2-0.8-0.4-1.1c-0.2-0.1-0.4-0.2-0.7-0.2h-0.2c-1,0.2-1.1,0.8-1.1,0.8l0,0
	c-0.1,0.1-0.1,0.4,0,1.7l0.4,2.3c0.3,1.7,0.8,2,1.3,2c0.1,0,0.3,0,0.4,0c0.3-0.1,1.1-0.3,1-1.8V46l1.3-0.2v0.2
	c0.2,0.8,0.1,1.6-0.4,2.2c-0.4,0.5-1,0.9-1.7,0.9C560.9,49.1,560.6,49.1,560.3,49.1z M560.3,40.2c-0.2,0-0.4,0-0.6,0.1
	c-0.7,0-1.4,0.4-1.8,0.9c-0.4,0.7-0.6,1.6-0.3,2.4L558,46c0.4,2.6,1.5,2.9,2.3,2.9c0.2,0,0.5,0,0.7-0.1c0.6-0.1,1.2-0.4,1.6-0.8
	c0.3-0.6,0.4-1.3,0.2-2l-0.8,0.2c0.2,1.6-0.9,1.9-1.2,2c-0.1,0-0.3,0-0.5,0c-0.8,0-1.3-0.7-1.5-2.2l-0.4-2.3
	c-0.2-1.3-0.1-1.7-0.1-1.8l0,0c0.2-0.5,0.7-0.9,1.3-1c0.1,0,0.2,0,0.2,0c0.3,0,0.6,0.1,0.9,0.3c0.3,0.3,0.4,0.7,0.4,1.1l0.9-0.1
	C562,40.9,561.4,40.2,560.3,40.2L560.3,40.2z"/>
<path class="st0" d="M565,48.2l-0.6-8.5l4.4-0.3v1l-3.3,0.2l0.2,2.7l3-0.2l0.1,0.9l-3.1,0.2l0.2,3l3.4-0.2l0.1,0.9L565,48.2z"/>
<path class="st0" d="M564.9,48.4v-0.2l-0.6-8.6l4.6-0.3v1.2l-3.3,0.2l0.2,2.5l3-0.2l0.1,1.2l-3,0.2l0.2,2.7l3.4-0.2l0.1,1.2
	L564.9,48.4z M564.5,39.8l0.6,8.3l4.2-0.3v-0.7l-3.4,0.2l-0.2-3.2l3-0.2v-0.7l-3.1,0.2l-0.2-3l3.3-0.2l-0.1-0.7L564.5,39.8z"/>
<path class="st0" d="M571.9,44v3.9l-1.1,0l0.1-8.5h2.9c1.1-0.1,2,0.8,2,1.8c0,0.1,0,0.2,0,0.3c0.1,1-0.6,1.8-1.6,2l0,0
	c1,0.2,1.3,0.5,1.4,2.2c0,0.7,0.1,1.5,0.3,2.2l-1.1,0c-0.2-0.9-0.3-1.9-0.3-2.8c0-0.6-0.5-1.1-1.2-1.1c0,0-0.1,0-0.1,0L571.9,44z
	 M571.9,43.1h1.6c0.8,0,1.2-0.7,1.2-1.4c0.1-0.6-0.4-1.2-1-1.3c0,0-0.1,0-0.1,0h-1.6V43.1z"/>
<path class="st0" d="M576.1,48.1h-1.4V48c-0.2-0.6-0.3-1.3-0.3-1.9c0-0.3,0-0.6,0-1c0-0.6-0.4-1-1-1c-0.1,0-0.1,0-0.1,0h-1.2V48
	h-1.3v-0.1l0.1-8.6h3c1.1-0.1,2.1,0.8,2.1,1.9c0,0.1,0,0.2,0,0.4c0.1,0.9-0.5,1.7-1.3,2c0.7,0.2,1.1,0.7,1.1,2.2
	c0,0.8,0.1,1.5,0.3,2.2L576.1,48.1z M574.9,47.8h0.9c-0.1-0.7-0.2-1.4-0.2-2.1c0-1.7-0.4-2-1.2-2.1h-0.1v-0.2h0.1
	c0.9-0.1,1.6-1,1.5-1.9c0.1-1-0.7-1.9-1.7-2c-0.1,0-0.2,0-0.2,0h-2.8l-0.1,8.3h0.9v-3.9h1.4c0.9,0,1.3,0.4,1.4,1.2
	c0,0.4,0,0.7,0.1,1C574.6,46.6,574.7,47.2,574.9,47.8L574.9,47.8z M573.6,43.2h-1.7v-0.1v-2.8h1.8c0.7,0,1.3,0.5,1.3,1.2
	c0,0.1,0,0.1,0,0.2c0.1,0.7-0.4,1.4-1.1,1.5C573.7,43.2,573.6,43.2,573.6,43.2L573.6,43.2z M572.1,42.9h1.5c0.8,0,1.1-0.7,1.1-1.3
	c0.1-0.6-0.4-1.1-0.9-1.2c0,0,0,0-0.1,0h-1.6L572.1,42.9z"/>
<path class="st0" d="M582.9,40l-0.1,1l-2.3-0.2l-0.6,7.6l-1.1-0.1l0.6-7.5l-2.2-0.2l0.1-0.9L582.9,40z"/>
<path class="st0" d="M580,48.4l-1.3-0.1v-0.1l0.6-7.4l-2.2-0.2l0.1-1.2l5.8,0.5l-0.1,1.2l-2.2-0.2L580,48.4z M579,48.1h0.9l0.6-7.5
	l2.3,0.2l0.1-0.7l-5.3-0.5l-0.1,0.7l2.2,0.2v0.1L579,48.1z"/>
<path class="st0" d="M584.5,48.8l-1-0.2l1.2-8.4l1.1,0.2L584.5,48.8z"/>
<path class="st0" d="M584.6,48.9l-1.3-0.2v-0.1l1.2-8.5l1.3,0.2v0.1L584.6,48.9z M583.6,48.5l0.8,0.1l1.2-8.2l-0.8-0.1L583.6,48.5z"
	/>
<path class="st0" d="M586.4,49.1l1.7-8.4l4.2,0.8l-0.2,0.9l-3.1-0.6l-0.6,2.7l2.9,0.6l-0.2,0.9l-2.9-0.6l-0.8,3.8L586.4,49.1z"/>
<path class="st0" d="M587.6,49.5l-1.3-0.3l1.7-8.6l4.3,0.9l-0.2,1.1l-3.1-0.6l-0.5,2.5l2.9,0.6l-0.2,1.2l-2.9-0.6L587.6,49.5z
	 M586.6,49l0.8,0.2l0.8-3.8l2.9,0.6l0.1-0.7l-2.9-0.6l0.6-2.9l3.1,0.6l0.2-0.7l-3.9-0.7L586.6,49z"/>
<path class="st0" d="M592.8,50.5l-1-0.3L594,42l1,0.3L592.8,50.5z"/>
<path class="st0" d="M592.9,50.7l-1.3-0.3l2.2-8.4l1.3,0.3L592.9,50.7z M591.9,50.2l0.8,0.2l2.1-8l-0.8-0.2L591.9,50.2z"/>
<path class="st0" d="M600.4,46.4c0.2-0.4,0.2-0.8,0.2-1.2c-0.2-0.3-0.5-0.6-0.8-0.7c-0.5-0.2-1.1-0.1-1.5,0.2
	c-0.4,0.5-0.6,1-0.8,1.6l-0.7,2.1c-0.7,2-0.1,2.5,0.7,2.8c0.3,0.1,1.3,0.3,1.9-1.3l1.1,0.3c-0.8,2.6-2.6,1.9-3.2,1.8
	c-1-0.3-2.5-0.9-1.5-4l0.8-2.3c0.8-2.3,2-2.6,3.6-2c1.6,0.6,1.9,1.6,1.3,3.1L600.4,46.4z"/>
<path class="st0" d="M598.2,52.4c-0.3,0-0.7-0.1-1-0.2c-0.9-0.3-2.7-0.9-1.5-4.2l0.8-2.3c0.6-1.6,1.3-2.4,2.5-2.4
	c0.4,0,0.8,0.1,1.2,0.3c0.7,0.2,1.2,0.6,1.5,1.2c0.2,0.7,0.2,1.4-0.2,2.1v0.1l-1.3-0.4v-0.1c0.2-0.4,0.3-0.8,0.2-1.2
	c-0.1-0.3-0.6-0.5-0.7-0.6c-0.2-0.1-0.3-0.1-0.5-0.1c-0.3,0-0.6,0.1-0.8,0.3l0,0c0,0-0.3,0.3-0.8,1.5l-0.7,2.2
	c-0.7,1.9-0.1,2.3,0.6,2.5c0.1,0.1,0.2,0.1,0.4,0.1c0.5,0,1.1-0.4,1.3-1.2v-0.2l1.3,0.4l-0.1,0.1C599.9,52,599,52.4,598.2,52.4z
	 M598.9,43.6c-1.1,0-1.8,0.7-2.3,2.2l-0.8,2.3c-1.1,3.1,0.4,3.6,1.4,3.9c0.3,0.1,0.6,0.2,0.9,0.2c0.9,0,1.6-0.6,2-1.8l-0.8-0.3
	c-0.4,1.1-1,1.3-1.5,1.3c-0.2,0-0.3,0-0.4-0.1c-0.9-0.3-1.5-0.9-0.8-2.9l0.8-2.2c0.4-1.2,0.7-1.5,0.8-1.6l0,0c0.3-0.3,0.6-0.4,1-0.4
	c0.2,0,0.4,0,0.6,0.1c0.4,0.1,0.7,0.4,0.8,0.7c0.1,0.4,0.1,0.8-0.1,1.2l0.8,0.3c0.6-0.9,0.3-2-0.6-2.6c-0.2-0.1-0.5-0.2-0.7-0.3
	C599.7,43.7,599.3,43.6,598.9,43.6L598.9,43.6z"/>
<path class="st0" d="M606.3,46.3l1.3,0.6l-1,8.9l-1.1-0.5l0.3-2.1l-3-1.4l-1.4,1.6l-1-0.4L606.3,46.3z M606.5,47.5L606.5,47.5
	l-3.1,3.6l2.5,1.2L606.5,47.5z"/>
<path class="st0" d="M606.6,56l-1.3-0.6l0.3-2.1l-2.8-1.3l-1.4,1.6l-1.3-0.6l6.2-6.8l1.4,0.6v0.1L606.6,56z M605.6,55.2l0.9,0.4
	l1-8.6l-1.1-0.5l-5.8,6.4l0.8,0.3l1.4-1.6l3.2,1.5L605.6,55.2z M606,52.4l-2.8-1.2l3.3-3.8l0.2,0.1v0.1L606,52.4z M603.6,51l2.2,1
	l0.6-4.2L603.6,51z"/>
<path class="st0" d="M615.1,51l-0.5,0.8l-1.9-1.1l-3.8,6.5l-1-0.5l3.9-6.6l-2-1.1l0.5-0.8L615.1,51z"/>
<path class="st0" d="M609,57.4l-1.2-0.7v-0.1l3.7-6.4l-1.9-1.1l0.6-1l0.1,0.1l4.9,2.8l-0.5,1l-2-1.2L609,57.4z M608.1,56.6l0.7,0.4
	l3.8-6.5l1.9,1.1l0.4-0.6l-4.6-2.6L610,49l2,1.1v0.1L608.1,56.6z"/>
<path class="st0" d="M612.8,59.7l-0.9-0.6l4.8-7l0.9,0.6L612.8,59.7z"/>
<path class="st0" d="M612.8,59.9l-1.1-0.8l0.1-0.1l4.9-7.2l1.1,0.7l-0.1,0.1L612.8,59.9z M612,59.1l0.7,0.5l4.7-6.8l-0.7-0.5
	L612,59.1z"/>
<path class="st0" d="M616.4,58.5l1.8-2.2c0.9-1.2,2.6-1.3,3.7-0.4c1.2,0.9,1.3,2.6,0.4,3.7c0,0,0,0.1-0.1,0.1l-1.7,2.2
	c-1.5,1.8-2.8,2-4.2,0.8C614.9,61.6,614.9,60.3,616.4,58.5z M619.7,61.2l1.8-2.3c1.1-1.4,0.2-2.2,0-2.4c-0.2-0.2-1.3-1-2.4,0.4
	l-1.8,2.2c-1.2,1.4-1,2.1-0.3,2.8S618.5,62.6,619.7,61.2z"/>
<path class="st0" d="M618.1,63.5c-0.6-0.1-1.3-0.3-1.8-0.7c-0.7-0.5-1.1-1.2-1.2-2c0.1-0.9,0.5-1.8,1.2-2.4l1.8-2.2
	c0.5-0.7,1.3-1.2,2.2-1.2c0.7,0,1.3,0.3,1.8,0.8c0.6,0.5,1.1,1.2,1.1,2c0,0.8-0.3,1.5-0.8,2l-1.7,2.1
	C620.1,62.8,619.1,63.4,618.1,63.5z M620.3,55.2c-0.8,0.1-1.5,0.5-2,1.1l-1.7,2.2c-0.6,0.6-1,1.4-1.1,2.3c0,0.7,0.4,1.4,1,1.8
	c0.4,0.4,1,0.7,1.6,0.7c1-0.1,1.9-0.7,2.4-1.6l1.8-2.2c0.5-0.5,0.8-1.2,0.8-1.9c-0.1-0.7-0.5-1.4-1.1-1.8
	C621.5,55.5,620.9,55.3,620.3,55.2L620.3,55.2z M617.9,62.5L617.9,62.5c-0.4,0-0.7-0.2-1-0.4c-0.4-0.3-0.6-0.7-0.6-1.2
	c0.1-0.7,0.4-1.3,0.9-1.8l1.8-2.2c0.8-1,1.7-1.1,2.5-0.5c0.3,0.2,0.5,0.5,0.6,0.8c0.1,0.6-0.1,1.3-0.5,1.8l-1.8,2.2
	C619,62.1,618.4,62.5,617.9,62.5L617.9,62.5z M620.5,56.3c-0.5,0-1,0.3-1.3,0.8l-1.8,2.2c-0.5,0.4-0.8,1-0.9,1.6
	c0,0.4,0.2,0.8,0.5,1c0.2,0.2,0.5,0.3,0.9,0.4c0.5,0,1-0.4,1.7-1.2l1.8-2.2c0.4-0.4,0.6-1,0.5-1.5c-0.1-0.3-0.3-0.5-0.5-0.7
	C621.1,56.4,620.8,56.3,620.5,56.3L620.5,56.3z"/>
<path class="st0" d="M630.2,63.9l-6.2,5.9l-1-1.1l3-7.5l0,0l-5.4,5.1l-0.7-0.7l6.1-5.9l1.1,1.1l-3,7.4l0,0l5.3-5.1L630.2,63.9z"/>
<path class="st0" d="M624.1,69.9l-1.2-1.2v-0.1l2.8-7.1l-5.1,4.8l-0.8-0.9l6.3-6l1.2,1.3l0,0l-2.8,7l5-4.8l0.8,0.8l-0.1,0.1
	L624.1,69.9z M623.2,68.7l0.9,0.9l6-5.7l-0.5-0.5l-5.3,5l-0.2-0.1v-0.1l2.9-7.4l-0.9-1l-6,5.7l0.5,0.6l5.3-5.1l0.1,0.1v0.1
	L623.2,68.7z"/>
<path class="st2" d="M501.5,129.1l0.3,3c1.1,0,2.1-0.3,3-0.8c0.7-0.5,1.2-1.4,1.3-2.3c0.1-0.6,0.1-1.1,0-1.7
	c-0.1-0.8-0.3-1.7-0.6-2.4c-0.3-0.5-0.7-0.9-1.1-1.2c-0.7-0.5-1.6-0.7-2.5-0.7c-0.3,0-1.3,0-1.8,0.1c-0.5,0-0.9,0-1.4,0.1
	c-0.7,0.1-2.2,0.2-2.9,0.3c-0.2,0-0.9,0.1-1.1,0.2c-0.6,0.1-1.3,0.3-1.9,0.6c-0.3,0.1-0.5,0.3-0.7,0.5c-0.3,0.2-0.5,0.4-0.7,0.7
	c-0.1,0.1-0.2,0.4-0.4,0.8c-0.1,0.4-0.2,0.7-0.2,1.1c0,0.2,0,1.1,0,1.4c0,0.2,0.2,1.1,0.2,1.3c0.1,0.2,0.3,1.5,0.5,1.9
	c0.1,0.4,0.2,0.9,0.4,1.3l7.4-0.8l-0.4-4.4l-2.2,0.2l0,1.4l-3.3,0.3c-0.3-0.5-0.4-1.1-0.4-1.8c0.2-0.8,0.4-1.1,0.7-1.2
	c0.8-0.3,1.5-0.4,2.4-0.5l2.7-0.3l2.3-0.2c0.4,0,0.8,0,1.2,0c0.4,0,0.7,0.1,1,0.4c0.2,0.2,0.4,0.4,0.5,0.7c0,0.3,0,0.6,0,0.9
	c-0.1,0.3-0.3,0.6-0.6,0.7c-0.2,0.1-0.5,0.2-0.8,0.3l-0.5,0.1L501.5,129.1z"/>
<polygon class="st2" points="492.6,138.6 491.8,136.3 505.9,131.5 507.3,135.5 497.3,141.4 508.8,140 510.2,144 496.2,148.8 
	495.4,146.5 507,142.5 494.5,144 493.5,141.1 504.5,134.6 "/>
<path class="st2" d="M510,155.7c0.7-0.3,1.1-0.5,1.5-0.7c0.6-0.3,1.1-0.8,1.5-1.3c0.3-0.4,0.4-0.9,0.5-1.4c0-0.5,0-0.9-0.1-1.4
	c-0.2-0.5-0.4-1.1-0.6-1.6l-0.8-1.6l-1.1-2.3l-3,1.5l-3.5,1.7l-3.6,1.7l-3.3,1.6l1.4,2.7l2.1-1.1l3.2-1.5l0.5,1
	c0.3,0.6,0.6,1.2,1,1.7c0.3,0.4,0.7,0.8,1.2,1.1c0.6,0.3,1.3,0.4,1.9,0.3C509.1,156,509.5,155.9,510,155.7z M508.4,153
	c-0.3,0.1-0.6,0.1-0.9,0c-0.3-0.2-0.6-0.4-0.8-0.8c-0.3-0.4-0.5-0.8-0.6-1.3l4-2c0,0,0.3,0.5,0.4,0.7c0.1,0.2,0.2,0.5,0.3,0.8
	c0.1,0.3,0.1,0.7,0,1c-0.1,0.3-0.6,0.7-0.8,0.8c-0.2,0.2-0.5,0.3-0.8,0.4C508.9,152.8,508.6,152.9,508.4,153L508.4,153z"/>
<text transform="matrix(1.07 0 0 1 20.7701 88.6524)" class="st4 st5 st6">SISTEM </text>
<text transform="matrix(1.07 0 0 1 104.6471 88.6524)" class="st4 st5 st6 st7">A</text>
<text transform="matrix(1.07 0 0 1 120.2227 88.6524)" class="st4 st5 st6"> </text>
<text transform="matrix(1.07 0 0 1 120.1729 88.6524)" class="st4 st5 st6"> DE</text>
<text transform="matrix(1.07 0 0 1 157.8351 88.6524)" class="st4 st5 st6"> </text>
<text transform="matrix(1.07 0 0 1 20.7701 118.942)" class="st4 st5 st6">CERTIFICACIÓN</text>
<text transform="matrix(1.07 0 0 1 198.5265 118.942)" class="st4 st5 st6"> </text>
<text transform="matrix(1.07 0 0 1 20.7701 149.2325)" class="st4 st5 st6">INTERNACIONA</text>
<text transform="matrix(1.07 0 0 1 195.2667 149.2325)" class="st4 st5 st6"> </text>
<text transform="matrix(1.07 0 0 1 193.8106 149.2325)" class="st4 st5 st6 st7">L</text>
<text transform="matrix(1.07 0 0 1 207.2042 149.2325)" class="st4 st5 st6"> </text>
<text transform="matrix(1.07 0 0 1 20.7701 179.5226)" class="st4 st5 st6">HACC</text>
<text transform="matrix(1.07 0 0 1 86.8927 179.5226)" class="st4 st5 st6"> </text>
<text transform="matrix(1.07 0 0 1 86.4039 179.5226)" class="st4 st5 st6 st7">P Y</text>
<text transform="matrix(1.07 0 0 1 120.4522 179.5226)" class="st4 st5 st6"> </text>
<text transform="matrix(1.07 0 0 1 121.0934 179.5226)" class="st4 st5 st6"> GM</text>
<text transform="matrix(1.07 0 0 1 164.0499 179.5226)" class="st4 st5 st6"> </text>
<text transform="matrix(1.07 0 0 1 163.6788 179.5226)" class="st4 st5 st6 st7">P</text>
<rect x="233.1" y="41.2" class="st4" width="3.5" height="164.7"/>
</svg>
