<?xml version="1.0" encoding="utf-8"?>
<!-- Generator: Adobe Illustrator 23.0.3, SVG Export Plug-In . SVG Version: 6.00 Build 0)  -->
<svg version="1.1" id="Capa_1" xmlns="http://www.w3.org/2000/svg" xmlns:xlink="http://www.w3.org/1999/xlink" x="0px" y="0px"
	 viewBox="0 0 1000 1000" style="enable-background:new 0 0 1000 1000;" xml:space="preserve">
<style type="text/css">
	.st0{fill:#FFFFFF;}
</style>
<g>
	<path class="st0" d="M288.98,293.73c38-32.92,83.67-56.94,132.73-68.09c96.21-21.86,201.94,6.49,275.37,72.07
		c27.9,24.91,51.37,49.46,68.82,83.33c17.67,34.31,28.18,72.34,30.16,110.91c-40.12,3.6-81.38-7.07-114.72-29.68
		c-33.34-22.61-58.52-56.99-70.02-95.59c-56.8,48.45-117.78,94.54-188.6,118.16c-75.81,25.28-159.56,23.64-232.47,56.36
		c-10.13-34.05-5.73-70.96,4.68-104.93C211.84,381.05,245.36,331.52,288.98,293.73z"/>
	<path class="st0" d="M275.65,287.78c-39.65,35.34-70.81,80.25-88.82,130.24c-32.98,91.51-21.19,198,31,280.08
		S324.75,830.36,421.6,839.31c17.77,1.64,94.08-12.92,88.68,34.92c-2.67,23.66-32.8,21.66-51.32,21.3
		c-73.65-1.43-143.85-35.74-199.91-83.54c-56.05-47.8-99.51-108.51-139.39-170.45c-20.79-32.29-41.48-67.59-40.31-105.97
		c0.85-28.16,13.47-54.48,26.33-79.55c50.25-97.93,112.12-195.87,207.43-250.93c68.67-39.67,151.25-53.75,229.65-41.79
		c73.86,11.27,159.15,47.11,210.01,103.88c53.67,59.91,103.77,137.06,129.8,213.29c1.09,3.19,2.14,6.39,3.14,9.6
		c11.16,35.75,16.64,75.38,2.53,110.08c-14.1,34.7-52.91,61.29-88.96,51.14c12.28-91.78,18.54-189.46-21.71-272.84
		c-26.54-54.97-72.16-99.73-125.51-129.38c-79.14-43.98-176.55-54.8-262.71-26.96C347.38,235.67,308.58,258.42,275.65,287.78z"/>
	<path class="st0" d="M307.3,577.15c-1.14-33.91,28.19-65.75,61.99-67.31c35.27-1.63,65.2,25.24,67.64,60.74
		c2.48,35.98-28.23,70.44-63.38,71.1C341.62,642.28,308.39,609.92,307.3,577.15z"/>
	<path class="st0" d="M667.92,575.94c-0.39,34.71-30.05,65.51-63.36,65.78c-35.29,0.29-64.9-32.41-63.36-69.99
		c1.48-36.35,29.82-63.33,65.33-62.18C641.41,510.68,668.33,539.78,667.92,575.94z"/>
	<path class="st0" d="M398.61,732.22h187.25c0,0-3.06,75.26-95.8,75.26C413.66,807.48,398.61,732.22,398.61,732.22z"/>
</g>
</svg>
