<?xml version="1.0" encoding="utf-8"?>
<!-- Generator: Adobe Illustrator 23.0.3, SVG Export Plug-In . SVG Version: 6.00 Build 0)  -->
<svg version="1.1" id="Capa_1" xmlns="http://www.w3.org/2000/svg" xmlns:xlink="http://www.w3.org/1999/xlink" x="0px" y="0px"
	 viewBox="0 0 1000 1000" style="enable-background:new 0 0 1000 1000;" xml:space="preserve">
<style type="text/css">
	.st0{fill:#FFFFFF;}
</style>
<g>
	<path class="st0" d="M285.92,510.36c53.44,95.12,123.78,160.91,209.9,202.44c31.62-20.95,61.8-42.82,85.35-53.49
		c65.81-29.82,146.66-15.6,200.37,29.15c30.72,22.68,38.75,67.54,21.94,108.71c-24.99,61.23-84.97,93.46-149.95,104.28
		c-174.56,29.07-502.49-208.68-549.35-413.43c-17.47-76.34-30.86-162.87,33.77-226.37c27.72-27.23,74.32-46.83,113.1-48.21
		c46.61-1.65,57.81,47.37,67.5,86.75c6.8,27.64,11.36,55.85,18.56,83.38C350.69,435.53,350.77,482.19,285.92,510.36z"/>
	<g>
		<path class="st0" d="M651.48,542.48c-10.81,0-20.43-7.67-22.52-18.68c-9.93-52.46-39.75-94.24-88.64-124.18
			c-37.87-23.2-73.52-30.31-73.88-30.38c-12.42-2.41-20.56-14.43-18.18-26.85c2.38-12.42,14.35-20.58,26.77-18.22
			c1.73,0.33,42.95,8.35,87.75,35.42c60.4,36.49,98.87,90.32,111.25,155.68c2.36,12.45-5.82,24.45-18.27,26.81
			C654.33,542.34,652.89,542.48,651.48,542.48z"/>
	</g>
	<g>
		<path class="st0" d="M780.49,549.37c-12.74,0-23.85-9.39-25.65-22.36c-14.61-105.1-65.15-183.22-150.21-232.19
			c-64.79-37.3-126.57-43.18-127.19-43.24c-14.24-1.27-24.8-13.84-23.56-28.08c1.24-14.25,13.75-24.8,28-23.6
			c2.91,0.25,72.16,6.53,146.67,48.85c69.32,39.37,156.42,118.36,177.66,271.11c1.97,14.19-7.93,27.29-22.11,29.26
			C782.88,549.28,781.68,549.37,780.49,549.37z"/>
	</g>
	<g>
		<path class="st0" d="M879.29,521.83c-16.66,0-30.4-13.26-30.89-30.02c-3.8-129.91-65.89-225.29-184.54-283.49
			c-91.9-45.07-184.8-50.35-185.72-50.4c-17.04-0.88-30.16-15.4-29.3-32.44c0.86-17.04,15.36-30.15,32.38-29.33
			c4.23,0.21,104.87,5.67,208.01,55.73c140.1,68,216.52,184.92,220.99,338.12c0.5,17.07-12.93,31.31-30,31.81
			C879.9,521.82,879.59,521.83,879.29,521.83z"/>
	</g>
</g>
</svg>
