<?xml version="1.0" encoding="utf-8"?>
<!-- Generator: Adobe Illustrator 24.2.1, SVG Export Plug-In . SVG Version: 6.00 Build 0)  -->
<svg version="1.1" id="Capa_1" xmlns="http://www.w3.org/2000/svg" xmlns:xlink="http://www.w3.org/1999/xlink" x="0px" y="0px"
	 viewBox="0 0 138 70" style="enable-background:new 0 0 138 70;" xml:space="preserve">
<style type="text/css">
	.st0{fill:#05783F;}
</style>
<g>
	<g>
		<path class="st0" d="M28,2C52.7,2,77.3,2,102,2c-0.3,5.7-0.1,10.8,0.1,11.6c0.5,1.9,2,1.8,5.8,1.8c2.5,0,5,0,7.4,0
			c2.5,0,4.8,0.7,6.4,2.5c4.7,5.3,10.2,9.8,13.7,16.1c0,1.9,0,3.8,0,5.7c-0.2,1.2-1.3,10.6-1.8,14.1c-0.3,2.1-1.6,3.5-3.8,3.6
			c-2.5,0.1-2.1-2.1-2.5-3.6c-1.2-5.4-5.4-8.9-10.8-9c-6.3-0.2-11.4,3.2-13.5,9.5c-0.9,2.6-2.3,3.5-4.9,3.4
			c-11.4-0.1-22.8-0.1-34.2,0c-2.6,0-3.8-0.8-4.2-3.5c-1-6-5.5-9.4-11.6-9.4c-5.9,0.1-10.8,3.5-12.8,9.5c-0.9,2.6-2.3,3.6-4.9,3.4
			c-1.3-0.1-2.6,0-3.9-0.1c-3-0.1-4.6-1.8-4.4-4.8c0.2-3.6,0.6-7.1,0.9-10.6c0.2-2.8,1.6-3.9,4.4-3.8c2.5,0.1,5,0,7.5-0.1
			c1,0,1.9-0.5,1.8-1.7c-0.1-1-0.9-1.3-1.8-1.4C34,35,33,35,32.1,35c-7.9,0-15.9,0-23.8,0c-1.8,0-3.5,0-5.2-0.9
			c-0.7-0.5-0.9-1.8,0.2-2.7c0.4-0.5,2.6-1.1,4.4-1.1c3.2,0,6.4,0,9.6,0c9.7,0,19.5,0,29.2,0c1.4,0,3.6,0.3,3.5-1.9
			c-0.1-1.9-2.2-1.2-3.5-1.4c-0.7-0.1-1.4,0-2.1,0c-9,0-18,0-27.1,0c-1.3,0-2.6-0.1-3.9-0.3c-1.1-0.2-2-0.9-2-2.1
			c0-1.2,0.8-2,1.9-2.2c1.1-0.2,2.3-0.3,3.5-0.3c7,0,14,0,21,0c1.2,0,2.4-0.1,3.5-0.3c0.7-0.1,1.2-0.7,1.1-1.6
			c-0.1-0.7-0.6-1.1-1.2-1.2c-1-0.2-2.1-0.2-3.2-0.2c-8.3,0-16.6,0-24.9,0c-1.2,0-2.4,0-3.6-0.1c-1.3-0.1-2.4-0.7-2.3-2.2
			c0-1.4,1-2.1,2.3-2.2c1.2-0.1,2.4-0.1,3.6-0.1c10.1,0,20.2,0,30.3,0c1.2,0,2.4-0.1,3.5-0.3c0.7-0.1,1.3-0.7,1.3-1.5
			c0-0.8-0.6-1.3-1.4-1.4c-1.1-0.1-2.1-0.2-3.2-0.2c-7.4,0-14.7,0.1-22.1-0.1c-2.2,0-5.9,1.1-5.9-2.5c0-3.2,3.6-2.5,5.8-2.4
			C24.4,5.7,26.7,4.9,28,2z M128.1,31c-2.4-2.6-10.9-10.7-10.9-10.7h-10.6l0,10.7C106.6,31,120.5,31,128.1,31z"/>
		<path class="st0" d="M40.6,50.8c4.4-4.2,10.9-4.5,14.6-0.6c3.6,3.8,3,10.3-1.4,14.5s-10.9,4.5-14.6,0.6
			C35.6,61.5,36.2,55,40.6,50.8z M43.2,61.6c1.8,1.9,5.1,1.8,7.4-0.3c2.2-2.1,2.6-5.4,0.7-7.3c-1.8-1.9-5.1-1.8-7.4,0.3
			C41.7,56.3,41.3,59.6,43.2,61.6z"/>
		<path class="st0" d="M108.2,50.8c4.4-4.2,10.9-4.5,14.6-0.6c3.6,3.8,3,10.3-1.4,14.5c-4.4,4.2-10.9,4.5-14.6,0.6
			C103.2,61.5,103.8,55,108.2,50.8z M110.8,61.6c1.8,1.9,5.1,1.8,7.4-0.3c2.2-2.1,2.6-5.4,0.7-7.3c-1.8-1.9-5.1-1.8-7.4,0.3
			S108.9,59.6,110.8,61.6z"/>
	</g>
</g>
</svg>
