<svg id="Capa_1" data-name="Capa 1" xmlns="http://www.w3.org/2000/svg" viewBox="0 0 1200 1200"><defs><style>.cls-1{fill:#fff;}</style></defs><title>USUARIO blanco</title><path class="cls-1" d="M622.1,39.79c16.3,3.78,33.15,4.24,49.36,8.75C791.12,81.86,866.35,159,894.55,279.56c28.09,120.13-29.52,252-135.19,316.22-130.1,79.14-292.15,54.05-389.7-62.27C310.67,463.16,289,381,304.1,290.32c20.72-124,116.63-221.75,238.74-244.83,11.76-2.23,23.65-3.82,35.48-5.7ZM458.44,460.52A83.71,83.71,0,0,0,493.86,507c64.41,41.61,131.44,42.49,199,8.89,22.77-11.32,40.62-29.1,49.1-55.32Z"/><path class="cls-1" d="M610.09,1160.6c-102.3-.19-194-4.9-285.14-17.76-69-9.73-137.12-23.47-202-50.08-21-8.62-30.91-22.79-31-45.34-.08-34.28-.55-68.58.38-102.84,3.67-133.92,99.78-248.24,230.87-276.11,21.51-4.57,39.18-1.72,58.22,11.15,129.35,87.41,308.12,87.52,437.27.09,20.31-13.75,39-16,61.37-10.33C987.92,696.76,1060,762.71,1095.6,868.09c9.64,28.53,13,58.21,12.9,88.3-.11,29.9,0,59.81,0,89.72-.07,24.05-9.48,37.78-31.82,46.92-60.42,24.73-123.76,38-188,47.78C792.92,1155.36,696.49,1160.1,610.09,1160.6Z"/></svg>