<?xml version="1.0" encoding="utf-8"?>
<!-- Generator: Adobe Illustrator 23.0.3, SVG Export Plug-In . SVG Version: 6.00 Build 0)  -->
<svg version="1.1" id="Capa_1" xmlns="http://www.w3.org/2000/svg" xmlns:xlink="http://www.w3.org/1999/xlink" x="0px" y="0px"
	 viewBox="0 0 500 283.45" style="enable-background:new 0 0 500 283.45;" xml:space="preserve">
<style type="text/css">
	.st0{fill:#39A263;}
	.st1{fill:#07783F;}
	.st2{fill:#399B5F;}
	.st3{fill:#66AB4A;}
	.st4{fill:#E29912;}
</style>
<path class="st0" d="M31.48,164.41v-50.6C30.32,96.23,46.4,93.44,46.4,93.44l129.88-21.5l-22.05-14.98L47.09,74.74
	c-35.75,4.88-33.78,39.85-33.78,39.85v58.25L31.48,164.41z"/>
<path class="st1" d="M469.1,164.72v42.27c0,1.81,0.07,3.62,0.13,5.43c0.64,18.82-13.63,21.19-16.79,21.48
	c-0.74,0.07-1.47,0.14-2.21,0.22l-167.08,18.58c-33.4,4.25-64.79,0-64.79,0L49.24,233.94c-18.75-1.76-17.76-19.45-17.76-19.45
	v-50.08l-18.16,8.43v41.57c1.89,33.17,29.42,37.54,35.69,38.02c1.18,0.09,2.37,0.19,3.55,0.31l165.2,17.72
	c29.23,4.88,66.02,0,66.02,0l171.77-18.56c12.8-1.7,20.5-8.46,25.08-15.29c4.32-6.44,6.47-14.08,6.47-21.83v-41.5L469.1,164.72z"/>
<path class="st0" d="M487.08,173.29v-57.45c1.61-35.62-30.47-40.27-30.47-40.27L346.73,56.96l-21.71,14.76l119.63,20.1
	c1.78,0.21,3.53,0.52,5.27,0.82c17.9,3.09,19.37,15.52,19.26,19.48c-0.04,1.36-0.08,2.71-0.08,4.07v48.23v0.31L487.08,173.29z"/>
<g>
	<g>
		<g>
			<g>
				<g>
					<g>
						<path class="st2" d="M295.49,27.75c2.88,44.44-31.44,86.15-73.16,68.2C227.65,28.72,279.81,76.52,295.49,27.75"/>
						<path class="st3" d="M204.44,68.8c15.82-49.51,71.38-11.64,91.05-41.05c0,0-6.48,6.32-38.38,1.14
							C216.58,22.32,198.47,44.92,204.44,68.8"/>
					</g>
				</g>
			</g>
		</g>
		<g>
			<g>
				<g>
					<g>
						<path class="st1" d="M142.46,203.95c0.86,0,1.66,0.16,2.4,0.48c0.75,0.32,1.4,0.76,1.95,1.31c0.56,0.55,1,1.2,1.32,1.95
							c0.32,0.75,0.48,1.55,0.48,2.39c0,0.85-0.16,1.64-0.48,2.38c-0.32,0.74-0.76,1.38-1.32,1.93c-0.56,0.55-1.21,0.99-1.96,1.3
							c-0.75,0.32-1.55,0.47-2.41,0.47h-3.3v2.84c0,0.19-0.04,0.37-0.11,0.54c-0.07,0.17-0.17,0.32-0.3,0.44
							c-0.13,0.12-0.28,0.22-0.44,0.29c-0.17,0.07-0.35,0.11-0.55,0.11c-0.19,0-0.37-0.04-0.54-0.11c-0.17-0.07-0.32-0.17-0.44-0.29
							c-0.12-0.12-0.22-0.26-0.3-0.44c-0.07-0.17-0.11-0.35-0.11-0.54v-13.66c0-0.2,0.04-0.38,0.11-0.55
							c0.07-0.17,0.17-0.32,0.3-0.44c0.12-0.12,0.27-0.22,0.44-0.29c0.17-0.07,0.35-0.11,0.54-0.11H142.46z M139.15,206.74v6.65
							h3.35c0.46,0,0.9-0.09,1.3-0.27c0.41-0.18,0.76-0.42,1.06-0.72c0.3-0.31,0.54-0.66,0.71-1.05c0.17-0.4,0.26-0.81,0.26-1.25
							c0-0.44-0.09-0.86-0.26-1.26c-0.18-0.4-0.41-0.76-0.71-1.07c-0.3-0.31-0.65-0.56-1.05-0.74c-0.4-0.18-0.83-0.27-1.3-0.27
							H139.15z"/>
						<path class="st1" d="M152.58,219.02c0,0.19-0.03,0.37-0.1,0.54c-0.07,0.17-0.17,0.32-0.29,0.44
							c-0.12,0.12-0.27,0.22-0.43,0.29c-0.16,0.07-0.34,0.11-0.53,0.11c-0.2,0-0.38-0.04-0.56-0.11c-0.18-0.07-0.33-0.17-0.46-0.29
							c-0.13-0.12-0.23-0.26-0.31-0.44c-0.08-0.17-0.12-0.35-0.12-0.54v-4.15c0-0.88,0.17-1.71,0.51-2.49
							c0.34-0.78,0.8-1.46,1.38-2.04c0.58-0.58,1.26-1.04,2.04-1.38c0.78-0.34,1.61-0.51,2.48-0.51h0.03c0.46,0,0.82,0.13,1.07,0.39
							c0.25,0.26,0.38,0.59,0.38,0.99c0,0.2-0.04,0.38-0.12,0.55c-0.08,0.17-0.18,0.32-0.32,0.44c-0.13,0.13-0.29,0.22-0.46,0.3
							c-0.18,0.07-0.36,0.11-0.56,0.11h-0.03c-0.49,0-0.95,0.09-1.39,0.28c-0.44,0.19-0.83,0.45-1.15,0.77
							c-0.33,0.33-0.59,0.71-0.78,1.14c-0.2,0.44-0.3,0.9-0.3,1.4V219.02z"/>
						<path class="st1" d="M158.13,214.42c0-0.85,0.16-1.64,0.49-2.38c0.33-0.74,0.77-1.39,1.32-1.94c0.56-0.56,1.21-1,1.95-1.32
							c0.74-0.32,1.53-0.48,2.37-0.48c0.85,0,1.64,0.16,2.39,0.48c0.75,0.32,1.39,0.76,1.95,1.32c0.55,0.56,0.99,1.2,1.3,1.94
							c0.32,0.74,0.47,1.53,0.47,2.38c0,0.84-0.16,1.63-0.47,2.38c-0.32,0.74-0.75,1.39-1.3,1.95c-0.55,0.56-1.2,1-1.95,1.32
							c-0.75,0.32-1.54,0.48-2.39,0.48c-0.84,0-1.63-0.16-2.37-0.48c-0.74-0.32-1.39-0.76-1.95-1.32c-0.56-0.56-1-1.21-1.32-1.95
							S158.13,215.26,158.13,214.42 M160.92,214.42c0,0.45,0.09,0.88,0.26,1.29c0.18,0.41,0.42,0.76,0.72,1.07
							c0.3,0.3,0.66,0.54,1.06,0.72c0.4,0.18,0.84,0.26,1.3,0.26c0.46,0,0.9-0.09,1.3-0.26c0.41-0.17,0.76-0.41,1.06-0.72
							c0.3-0.3,0.53-0.66,0.71-1.07c0.17-0.41,0.26-0.84,0.26-1.29c0-0.46-0.09-0.9-0.26-1.3c-0.17-0.41-0.41-0.76-0.71-1.06
							c-0.3-0.3-0.65-0.54-1.06-0.71c-0.41-0.18-0.84-0.26-1.3-0.26c-0.45,0-0.88,0.09-1.29,0.26c-0.41,0.17-0.76,0.41-1.07,0.71
							c-0.3,0.3-0.55,0.65-0.72,1.06C161.01,213.52,160.92,213.96,160.92,214.42"/>
						<path class="st1" d="M183.74,214.47c-0.01,0.83-0.18,1.62-0.5,2.36c-0.33,0.74-0.77,1.38-1.32,1.93
							c-0.55,0.55-1.2,0.98-1.94,1.3c-0.74,0.32-1.53,0.48-2.37,0.48c-0.85,0-1.64-0.16-2.38-0.48c-0.74-0.32-1.39-0.76-1.94-1.32
							c-0.55-0.56-0.99-1.21-1.31-1.95c-0.32-0.74-0.48-1.54-0.48-2.38c0-0.85,0.16-1.64,0.48-2.39c0.32-0.75,0.76-1.39,1.31-1.95
							c0.55-0.55,1.2-0.99,1.94-1.31c0.74-0.32,1.54-0.48,2.38-0.48c0.62,0,1.21,0.09,1.77,0.26c0.56,0.17,1.08,0.42,1.57,0.74
							v-4.01c0-0.2,0.03-0.39,0.1-0.57c0.07-0.18,0.16-0.33,0.29-0.46c0.12-0.13,0.27-0.24,0.44-0.31c0.17-0.07,0.35-0.11,0.56-0.11
							c0.2,0,0.38,0.04,0.55,0.11c0.17,0.07,0.32,0.18,0.44,0.31c0.12,0.13,0.22,0.29,0.29,0.46c0.07,0.17,0.11,0.37,0.11,0.57
							V214.47z M180.96,214.42c0-0.46-0.09-0.9-0.26-1.3c-0.18-0.41-0.42-0.76-0.72-1.06c-0.3-0.3-0.66-0.54-1.06-0.71
							c-0.4-0.18-0.83-0.26-1.3-0.26c-0.46,0-0.9,0.09-1.3,0.26c-0.4,0.17-0.75,0.41-1.06,0.71c-0.3,0.3-0.54,0.65-0.71,1.06
							c-0.17,0.41-0.26,0.84-0.26,1.3c0,0.45,0.09,0.88,0.26,1.29c0.17,0.41,0.41,0.76,0.71,1.07c0.3,0.3,0.65,0.54,1.06,0.72
							c0.41,0.18,0.84,0.26,1.3,0.26c0.46,0,0.9-0.09,1.3-0.26c0.4-0.17,0.76-0.41,1.06-0.72c0.3-0.3,0.54-0.66,0.72-1.07
							C180.87,215.3,180.96,214.87,180.96,214.42"/>
						<path class="st1" d="M189.07,214.62c0,0.44,0.08,0.85,0.24,1.23c0.16,0.38,0.38,0.71,0.65,1c0.28,0.28,0.61,0.51,0.99,0.67
							c0.38,0.16,0.79,0.24,1.23,0.24c0.45,0,0.84-0.08,1.19-0.25c0.35-0.17,0.65-0.39,0.89-0.68c0.25-0.29,0.43-0.62,0.57-1.01
							c0.13-0.39,0.2-0.8,0.2-1.23v-4.75c0-0.19,0.04-0.38,0.11-0.55c0.08-0.17,0.18-0.31,0.31-0.44c0.13-0.13,0.28-0.22,0.46-0.3
							c0.17-0.07,0.35-0.11,0.54-0.11c0.2,0,0.38,0.04,0.54,0.11c0.16,0.07,0.31,0.17,0.43,0.3c0.13,0.13,0.22,0.27,0.29,0.44
							c0.07,0.17,0.1,0.35,0.1,0.55v4.71c0,0.82-0.14,1.6-0.42,2.32c-0.28,0.73-0.67,1.37-1.16,1.91c-0.5,0.54-1.09,0.97-1.78,1.29
							c-0.69,0.32-1.45,0.48-2.28,0.48c-0.82,0-1.59-0.16-2.3-0.47c-0.72-0.31-1.34-0.74-1.87-1.28c-0.53-0.54-0.95-1.17-1.26-1.89
							c-0.31-0.72-0.46-1.48-0.46-2.3v-4.78c0-0.19,0.04-0.38,0.11-0.55c0.07-0.17,0.17-0.31,0.29-0.44
							c0.12-0.13,0.27-0.22,0.44-0.3c0.17-0.07,0.35-0.11,0.54-0.11c0.19,0,0.37,0.04,0.54,0.11c0.17,0.07,0.32,0.17,0.45,0.3
							c0.13,0.13,0.23,0.27,0.3,0.44c0.07,0.17,0.11,0.35,0.11,0.55V214.62z"/>
						<path class="st1" d="M202.3,214.42c0,0.4,0.08,0.8,0.25,1.19c0.17,0.39,0.39,0.75,0.68,1.06c0.29,0.31,0.62,0.57,1.01,0.77
							c0.39,0.2,0.8,0.3,1.24,0.31c0.46,0,0.87-0.06,1.23-0.17c0.36-0.11,0.71-0.32,1.07-0.62c0.17-0.14,0.36-0.28,0.57-0.4
							c0.21-0.12,0.44-0.19,0.69-0.19c0.15,0,0.3,0.03,0.46,0.1c0.16,0.06,0.33,0.17,0.5,0.31c0.15,0.13,0.25,0.28,0.33,0.46
							c0.07,0.18,0.11,0.36,0.1,0.55c0,0.19-0.05,0.38-0.13,0.57c-0.08,0.19-0.2,0.37-0.37,0.54c-0.53,0.54-1.16,0.95-1.89,1.23
							c-0.73,0.28-1.5,0.42-2.3,0.42c-0.86,0-1.66-0.16-2.41-0.47c-0.75-0.31-1.41-0.74-1.98-1.29c-0.57-0.55-1.01-1.19-1.34-1.93
							c-0.33-0.74-0.49-1.54-0.49-2.39c0.01-0.01,0.01-0.02,0.01-0.03h-0.01c0-0.86,0.16-1.66,0.49-2.41
							c0.33-0.75,0.77-1.4,1.34-1.95c0.56-0.55,1.22-0.99,1.98-1.3c0.75-0.32,1.56-0.47,2.41-0.47c0.8,0,1.57,0.14,2.3,0.4
							c0.73,0.27,1.36,0.67,1.89,1.21c0.16,0.16,0.29,0.34,0.37,0.53c0.09,0.19,0.13,0.39,0.13,0.58c0,0.19-0.03,0.38-0.11,0.55
							c-0.08,0.17-0.19,0.33-0.35,0.47c-0.17,0.15-0.33,0.25-0.49,0.31c-0.16,0.06-0.31,0.09-0.45,0.09c-0.25,0-0.48-0.06-0.69-0.19
							c-0.21-0.12-0.4-0.26-0.58-0.4c-0.36-0.27-0.72-0.47-1.07-0.59c-0.35-0.12-0.72-0.18-1.1-0.18c-0.44,0-0.86,0.09-1.26,0.27
							c-0.4,0.18-0.75,0.42-1.05,0.73c-0.3,0.31-0.54,0.66-0.72,1.07c-0.18,0.4-0.27,0.82-0.27,1.26L202.3,214.42z"/>
						<path class="st1" d="M215.16,208.45h4.47c0.2,0,0.38,0.04,0.55,0.11c0.17,0.07,0.32,0.17,0.45,0.3
							c0.13,0.13,0.23,0.28,0.3,0.45c0.07,0.17,0.11,0.36,0.11,0.55c0,0.19-0.04,0.37-0.11,0.53c-0.07,0.17-0.17,0.31-0.3,0.44
							c-0.13,0.13-0.28,0.22-0.45,0.3c-0.17,0.07-0.35,0.11-0.55,0.11h-4.47v3.25c0,0.46,0.09,0.88,0.26,1.28
							c0.18,0.4,0.41,0.74,0.71,1.04c0.3,0.3,0.65,0.53,1.06,0.7c0.41,0.17,0.84,0.26,1.3,0.26c0.41,0,0.79-0.06,1.14-0.17
							c0.35-0.12,0.68-0.31,0.98-0.57c0.14-0.14,0.31-0.25,0.49-0.34c0.18-0.09,0.37-0.14,0.57-0.14c0.31,0,0.6,0.12,0.86,0.35
							c0.15,0.14,0.27,0.3,0.33,0.49c0.06,0.19,0.09,0.38,0.08,0.58c-0.01,0.2-0.06,0.4-0.15,0.58c-0.09,0.19-0.21,0.35-0.36,0.5
							c-0.51,0.5-1.1,0.87-1.77,1.12c-0.67,0.25-1.39,0.38-2.16,0.38c-0.85,0-1.64-0.16-2.38-0.48c-0.74-0.32-1.39-0.75-1.95-1.3
							c-0.56-0.55-1-1.19-1.32-1.93c-0.32-0.74-0.48-1.53-0.48-2.38v-8.25c0-0.2,0.04-0.38,0.11-0.55c0.08-0.17,0.18-0.32,0.31-0.45
							c0.13-0.13,0.28-0.23,0.45-0.3c0.17-0.07,0.35-0.11,0.54-0.11c0.19,0,0.37,0.04,0.53,0.11c0.17,0.07,0.31,0.17,0.44,0.3
							c0.13,0.13,0.23,0.28,0.29,0.45c0.07,0.17,0.11,0.36,0.11,0.55V208.45z"/>
						<path class="st1" d="M223.8,214.42c0-0.85,0.16-1.64,0.49-2.38c0.32-0.74,0.77-1.39,1.32-1.94c0.55-0.56,1.2-1,1.94-1.32
							c0.74-0.32,1.53-0.48,2.37-0.48c0.85,0,1.64,0.16,2.39,0.48c0.74,0.32,1.39,0.76,1.95,1.32c0.55,0.56,0.99,1.2,1.3,1.94
							c0.32,0.74,0.48,1.53,0.48,2.38c0,0.84-0.16,1.63-0.48,2.38c-0.32,0.74-0.75,1.39-1.3,1.95c-0.55,0.56-1.2,1-1.95,1.32
							c-0.74,0.32-1.54,0.48-2.39,0.48c-0.84,0-1.63-0.16-2.37-0.48c-0.74-0.32-1.39-0.76-1.94-1.32c-0.56-0.56-1-1.21-1.32-1.95
							C223.96,216.05,223.8,215.26,223.8,214.42 M226.58,214.42c0,0.45,0.09,0.88,0.26,1.29c0.18,0.41,0.41,0.76,0.72,1.07
							c0.3,0.3,0.66,0.54,1.06,0.72c0.4,0.18,0.83,0.26,1.3,0.26c0.46,0,0.9-0.09,1.3-0.26c0.41-0.17,0.76-0.41,1.06-0.72
							c0.3-0.3,0.53-0.66,0.71-1.07c0.17-0.41,0.26-0.84,0.26-1.29c0-0.46-0.09-0.9-0.26-1.3c-0.17-0.41-0.41-0.76-0.71-1.06
							c-0.3-0.3-0.65-0.54-1.06-0.71c-0.41-0.18-0.84-0.26-1.3-0.26c-0.45,0-0.88,0.09-1.29,0.26c-0.41,0.17-0.76,0.41-1.07,0.71
							c-0.31,0.3-0.54,0.65-0.72,1.06C226.67,213.52,226.58,213.96,226.58,214.42"/>
						<path class="st1" d="M240.74,215.37c-0.37-0.15-0.75-0.32-1.14-0.51c-0.39-0.19-0.75-0.42-1.08-0.69
							c-0.33-0.27-0.59-0.59-0.8-0.96c-0.21-0.37-0.31-0.82-0.31-1.34c0-0.54,0.1-1.03,0.32-1.47c0.21-0.44,0.51-0.82,0.89-1.13
							c0.38-0.31,0.83-0.55,1.36-0.72c0.52-0.17,1.09-0.25,1.72-0.25c0.36,0,0.73,0.03,1.12,0.08c0.39,0.06,0.75,0.15,1.1,0.27
							c0.35,0.13,0.66,0.29,0.93,0.49c0.27,0.2,0.48,0.44,0.63,0.72c0.13,0.28,0.17,0.55,0.14,0.82c-0.04,0.27-0.14,0.49-0.29,0.66
							c-0.12,0.14-0.26,0.24-0.42,0.32c-0.16,0.08-0.33,0.12-0.51,0.12c-0.14,0-0.29-0.04-0.45-0.1c-0.18-0.11-0.35-0.21-0.49-0.29
							c-0.15-0.09-0.31-0.16-0.46-0.22c-0.16-0.06-0.32-0.11-0.5-0.14c-0.18-0.03-0.38-0.04-0.6-0.04c-0.56,0-0.98,0.07-1.27,0.22
							c-0.29,0.15-0.43,0.38-0.43,0.69c0,0.16,0.05,0.3,0.16,0.41c0.11,0.1,0.25,0.2,0.44,0.29c0.18,0.08,0.41,0.17,0.67,0.24
							c0.26,0.08,0.55,0.16,0.85,0.26c0.5,0.15,0.99,0.33,1.44,0.54c0.46,0.2,0.86,0.46,1.21,0.75c0.35,0.3,0.62,0.64,0.83,1.04
							c0.2,0.4,0.31,0.88,0.31,1.43c0,0.51-0.11,0.99-0.33,1.45c-0.22,0.45-0.52,0.84-0.9,1.18c-0.39,0.33-0.84,0.6-1.38,0.79
							c-0.53,0.19-1.11,0.29-1.75,0.29c-0.39,0-0.81-0.04-1.25-0.11c-0.44-0.07-0.87-0.2-1.28-0.37c-0.42-0.18-0.8-0.4-1.15-0.68
							c-0.35-0.28-0.63-0.62-0.85-1.03c-0.16-0.28-0.23-0.55-0.23-0.79c0-0.24,0.05-0.46,0.16-0.64c0.11-0.18,0.26-0.33,0.45-0.43
							c0.19-0.1,0.41-0.15,0.64-0.15c0.21,0,0.42,0.04,0.64,0.13c0.22,0.09,0.45,0.23,0.67,0.43c0.1,0.13,0.23,0.25,0.38,0.37
							c0.15,0.12,0.33,0.22,0.51,0.31c0.19,0.09,0.39,0.16,0.61,0.21c0.22,0.05,0.45,0.08,0.69,0.08c0.21,0,0.41-0.02,0.61-0.07
							c0.19-0.05,0.35-0.11,0.5-0.2c0.15-0.09,0.26-0.19,0.35-0.31c0.08-0.12,0.13-0.26,0.13-0.41c0-0.18-0.09-0.34-0.28-0.5
							c-0.19-0.15-0.42-0.29-0.69-0.42c-0.27-0.13-0.55-0.24-0.85-0.34C241.19,215.52,240.94,215.44,240.74,215.37"/>
						<path class="st1" d="M257.89,209.07v9.94c0,0.19-0.04,0.37-0.11,0.54c-0.07,0.17-0.17,0.32-0.3,0.44
							c-0.13,0.12-0.28,0.22-0.44,0.29c-0.17,0.07-0.35,0.11-0.55,0.11c-0.19,0-0.37-0.04-0.54-0.11c-0.17-0.07-0.32-0.17-0.44-0.29
							c-0.13-0.12-0.22-0.26-0.3-0.44c-0.07-0.17-0.11-0.35-0.11-0.54v-13.65c0-0.37,0.12-0.68,0.36-0.94
							c0.11-0.15,0.25-0.26,0.43-0.35c0.17-0.08,0.37-0.13,0.6-0.13c0.21,0,0.41,0.05,0.6,0.13c0.19,0.09,0.36,0.22,0.51,0.39
							l8.89,10.67v-9.82c0-0.2,0.04-0.38,0.11-0.55c0.08-0.17,0.18-0.31,0.31-0.43c0.13-0.12,0.28-0.22,0.45-0.29
							c0.17-0.07,0.35-0.11,0.55-0.11c0.2,0,0.38,0.04,0.54,0.11c0.16,0.07,0.31,0.17,0.43,0.29c0.13,0.12,0.22,0.26,0.29,0.43
							c0.07,0.17,0.1,0.35,0.1,0.55v13.69c0,0.22-0.05,0.43-0.14,0.62c-0.1,0.19-0.22,0.34-0.39,0.46c-0.1,0.09-0.22,0.17-0.35,0.22
							c-0.13,0.05-0.28,0.08-0.46,0.08h-0.08c-0.2-0.01-0.38-0.06-0.54-0.15c-0.15-0.09-0.3-0.22-0.44-0.39L257.89,209.07z"/>
						<path class="st1" d="M271.44,214.42c0-0.85,0.16-1.64,0.49-2.38c0.33-0.74,0.77-1.39,1.32-1.94c0.56-0.56,1.2-1,1.95-1.32
							c0.74-0.32,1.53-0.48,2.37-0.48c0.85,0,1.65,0.16,2.39,0.48c0.74,0.32,1.39,0.76,1.95,1.32c0.55,0.56,0.99,1.2,1.3,1.94
							c0.32,0.74,0.48,1.53,0.48,2.38v4.55c0,0.2-0.04,0.38-0.11,0.55c-0.07,0.17-0.17,0.32-0.3,0.45
							c-0.13,0.13-0.28,0.23-0.45,0.31c-0.18,0.08-0.36,0.11-0.56,0.11c-0.34,0-0.62-0.1-0.85-0.3c-0.23-0.2-0.39-0.44-0.46-0.74
							c-0.49,0.37-1.02,0.66-1.59,0.87c-0.57,0.22-1.17,0.32-1.79,0.32c-0.84,0-1.63-0.16-2.37-0.48c-0.74-0.32-1.39-0.76-1.95-1.32
							c-0.56-0.56-1-1.21-1.32-1.95C271.6,216.05,271.44,215.26,271.44,214.42 M274.22,214.42c0,0.45,0.09,0.88,0.26,1.29
							c0.17,0.41,0.41,0.76,0.72,1.07c0.3,0.3,0.65,0.54,1.06,0.72c0.4,0.18,0.83,0.26,1.3,0.26c0.46,0,0.9-0.09,1.3-0.26
							c0.41-0.17,0.76-0.41,1.06-0.72c0.3-0.3,0.54-0.66,0.71-1.07c0.17-0.41,0.26-0.84,0.26-1.29c0-0.46-0.09-0.9-0.26-1.3
							c-0.17-0.41-0.41-0.76-0.71-1.06c-0.3-0.3-0.65-0.54-1.06-0.71c-0.41-0.18-0.84-0.26-1.3-0.26c-0.45,0-0.88,0.09-1.29,0.26
							c-0.41,0.17-0.76,0.41-1.07,0.71c-0.31,0.3-0.55,0.65-0.72,1.06C274.31,213.52,274.22,213.96,274.22,214.42"/>
						<path class="st1" d="M288.94,208.45h4.47c0.2,0,0.38,0.04,0.55,0.11c0.17,0.07,0.32,0.17,0.45,0.3
							c0.13,0.13,0.23,0.28,0.3,0.45c0.07,0.17,0.11,0.36,0.11,0.55c0,0.19-0.04,0.37-0.11,0.53c-0.07,0.17-0.17,0.31-0.3,0.44
							c-0.13,0.13-0.28,0.22-0.45,0.3c-0.17,0.07-0.35,0.11-0.55,0.11h-4.47v3.25c0,0.46,0.09,0.88,0.26,1.28
							c0.18,0.4,0.41,0.74,0.71,1.04c0.3,0.3,0.65,0.53,1.06,0.7c0.41,0.17,0.84,0.26,1.3,0.26c0.41,0,0.79-0.06,1.14-0.17
							c0.35-0.12,0.68-0.31,0.98-0.57c0.14-0.14,0.31-0.25,0.49-0.34c0.18-0.09,0.37-0.14,0.57-0.14c0.32,0,0.6,0.12,0.86,0.35
							c0.15,0.14,0.26,0.3,0.33,0.49c0.07,0.19,0.09,0.38,0.08,0.58c-0.01,0.2-0.06,0.4-0.15,0.58c-0.09,0.19-0.21,0.35-0.36,0.5
							c-0.51,0.5-1.1,0.87-1.77,1.12c-0.67,0.25-1.39,0.38-2.16,0.38c-0.85,0-1.64-0.16-2.38-0.48c-0.74-0.32-1.39-0.75-1.95-1.3
							c-0.56-0.55-1-1.19-1.32-1.93c-0.32-0.74-0.48-1.53-0.48-2.38v-8.25c0-0.2,0.04-0.38,0.11-0.55c0.08-0.17,0.18-0.32,0.31-0.45
							c0.13-0.13,0.28-0.23,0.45-0.3c0.17-0.07,0.35-0.11,0.54-0.11c0.19,0,0.37,0.04,0.53,0.11c0.17,0.07,0.31,0.17,0.44,0.3
							c0.13,0.13,0.22,0.28,0.3,0.45c0.07,0.17,0.11,0.36,0.11,0.55V208.45z"/>
						<path class="st1" d="M300.98,214.62c0,0.44,0.08,0.85,0.24,1.23c0.16,0.38,0.37,0.71,0.65,1c0.28,0.28,0.61,0.51,0.99,0.67
							c0.38,0.16,0.79,0.24,1.23,0.24c0.45,0,0.85-0.08,1.2-0.25c0.35-0.17,0.65-0.39,0.89-0.68c0.24-0.29,0.43-0.62,0.57-1.01
							c0.13-0.39,0.2-0.8,0.2-1.23v-4.75c0-0.19,0.04-0.38,0.11-0.55c0.08-0.17,0.18-0.31,0.32-0.44c0.13-0.13,0.28-0.22,0.46-0.3
							c0.17-0.07,0.35-0.11,0.54-0.11c0.2,0,0.38,0.04,0.54,0.11c0.16,0.07,0.31,0.17,0.43,0.3c0.12,0.13,0.22,0.27,0.29,0.44
							c0.07,0.17,0.1,0.35,0.1,0.55v4.71c0,0.82-0.14,1.6-0.42,2.32c-0.28,0.73-0.66,1.37-1.16,1.91c-0.5,0.54-1.09,0.97-1.78,1.29
							c-0.69,0.32-1.45,0.48-2.27,0.48c-0.82,0-1.59-0.16-2.3-0.47c-0.72-0.31-1.34-0.74-1.87-1.28c-0.53-0.54-0.95-1.17-1.26-1.89
							c-0.31-0.72-0.46-1.48-0.46-2.3v-4.78c0-0.19,0.04-0.38,0.11-0.55c0.07-0.17,0.17-0.31,0.3-0.44c0.12-0.13,0.27-0.22,0.44-0.3
							c0.17-0.07,0.35-0.11,0.54-0.11c0.19,0,0.37,0.04,0.54,0.11c0.17,0.07,0.32,0.17,0.45,0.3c0.13,0.13,0.23,0.27,0.3,0.44
							c0.07,0.17,0.11,0.35,0.11,0.55V214.62z"/>
						<path class="st1" d="M314.77,219.02c0,0.19-0.03,0.37-0.1,0.54c-0.07,0.17-0.16,0.32-0.29,0.44
							c-0.13,0.12-0.27,0.22-0.43,0.29c-0.16,0.07-0.34,0.11-0.53,0.11c-0.2,0-0.38-0.04-0.56-0.11c-0.18-0.07-0.33-0.17-0.46-0.29
							c-0.13-0.12-0.23-0.26-0.31-0.44c-0.08-0.17-0.12-0.35-0.12-0.54v-4.15c0-0.88,0.17-1.71,0.51-2.49
							c0.34-0.78,0.8-1.46,1.38-2.04c0.58-0.58,1.26-1.04,2.04-1.38c0.78-0.34,1.61-0.51,2.48-0.51h0.02c0.46,0,0.82,0.13,1.07,0.39
							c0.25,0.26,0.38,0.59,0.38,0.99c0,0.2-0.04,0.38-0.12,0.55c-0.08,0.17-0.18,0.32-0.31,0.44c-0.13,0.13-0.29,0.22-0.46,0.3
							c-0.18,0.07-0.36,0.11-0.56,0.11h-0.02c-0.49,0-0.95,0.09-1.39,0.28c-0.44,0.19-0.82,0.45-1.15,0.77
							c-0.33,0.33-0.59,0.71-0.78,1.14c-0.2,0.44-0.3,0.9-0.3,1.4V219.02z"/>
						<path class="st1" d="M320.32,214.42c0-0.85,0.16-1.64,0.49-2.38c0.32-0.74,0.77-1.39,1.32-1.94c0.56-0.56,1.2-1,1.95-1.32
							c0.74-0.32,1.53-0.48,2.37-0.48c0.85,0,1.64,0.16,2.39,0.48c0.74,0.32,1.39,0.76,1.95,1.32c0.55,0.56,0.99,1.2,1.3,1.94
							c0.32,0.74,0.48,1.53,0.48,2.38v4.55c0,0.2-0.04,0.38-0.11,0.55c-0.07,0.17-0.17,0.32-0.3,0.45
							c-0.13,0.13-0.28,0.23-0.45,0.31c-0.18,0.08-0.36,0.11-0.56,0.11c-0.34,0-0.62-0.1-0.85-0.3c-0.23-0.2-0.39-0.44-0.46-0.74
							c-0.49,0.37-1.02,0.66-1.59,0.87c-0.57,0.22-1.17,0.32-1.79,0.32c-0.84,0-1.63-0.16-2.37-0.48c-0.74-0.32-1.39-0.76-1.95-1.32
							c-0.56-0.56-1-1.21-1.32-1.95C320.48,216.05,320.32,215.26,320.32,214.42 M323.11,214.42c0,0.45,0.09,0.88,0.26,1.29
							c0.18,0.41,0.42,0.76,0.72,1.07c0.3,0.3,0.66,0.54,1.06,0.72c0.4,0.18,0.83,0.26,1.3,0.26c0.46,0,0.9-0.09,1.3-0.26
							c0.41-0.17,0.76-0.41,1.06-0.72c0.3-0.3,0.54-0.66,0.71-1.07c0.17-0.41,0.26-0.84,0.26-1.29c0-0.46-0.09-0.9-0.26-1.3
							c-0.17-0.41-0.41-0.76-0.71-1.06c-0.3-0.3-0.65-0.54-1.06-0.71c-0.41-0.18-0.84-0.26-1.3-0.26c-0.45,0-0.88,0.09-1.29,0.26
							c-0.41,0.17-0.76,0.41-1.07,0.71c-0.3,0.3-0.54,0.65-0.72,1.06C323.19,213.52,323.11,213.96,323.11,214.42"/>
						<path class="st1" d="M339.38,217.6c0.2,0,0.38,0.04,0.55,0.12c0.17,0.08,0.32,0.18,0.44,0.32c0.12,0.13,0.21,0.28,0.28,0.46
							c0.07,0.17,0.1,0.35,0.1,0.54c0,0.39-0.13,0.72-0.38,0.98c-0.26,0.26-0.59,0.38-0.99,0.38c-0.58,0-1.13-0.1-1.64-0.29
							c-0.51-0.2-0.96-0.47-1.34-0.82c-0.38-0.35-0.69-0.78-0.91-1.27c-0.22-0.5-0.34-1.05-0.36-1.64v-11.12
							c0-0.2,0.04-0.38,0.11-0.55c0.07-0.17,0.17-0.32,0.29-0.44c0.12-0.12,0.26-0.22,0.42-0.29c0.16-0.07,0.34-0.11,0.53-0.11
							c0.2,0,0.38,0.04,0.55,0.11c0.17,0.07,0.32,0.17,0.46,0.29c0.13,0.12,0.24,0.27,0.32,0.44c0.08,0.17,0.11,0.36,0.11,0.55
							v11.03c0,0.45,0.14,0.78,0.41,1C338.6,217.49,338.95,217.6,339.38,217.6"/>
						<path class="st1" d="M344.87,215.66c0.11,0.32,0.27,0.61,0.47,0.87c0.2,0.26,0.43,0.48,0.7,0.67
							c0.26,0.18,0.56,0.33,0.87,0.42c0.32,0.1,0.65,0.15,1,0.15c0.88,0,1.58-0.23,2.08-0.69c0.17-0.12,0.34-0.21,0.5-0.26
							c0.16-0.06,0.32-0.08,0.46-0.08c0.24,0,0.45,0.06,0.64,0.19c0.19,0.13,0.34,0.29,0.46,0.48c0.08,0.14,0.15,0.28,0.19,0.44
							c0.04,0.16,0.05,0.32,0.02,0.48c-0.02,0.16-0.07,0.32-0.15,0.48c-0.08,0.16-0.2,0.3-0.37,0.43c-0.19,0.17-0.4,0.34-0.64,0.49
							c-0.24,0.16-0.52,0.3-0.83,0.42c-0.31,0.12-0.66,0.22-1.05,0.29c-0.39,0.07-0.83,0.11-1.32,0.11c-0.85,0-1.64-0.16-2.39-0.48
							c-0.75-0.32-1.4-0.76-1.95-1.32c-0.56-0.56-1-1.2-1.32-1.94c-0.33-0.74-0.49-1.53-0.49-2.38c0-0.85,0.16-1.64,0.49-2.39
							c0.32-0.75,0.77-1.39,1.32-1.95c0.55-0.55,1.21-0.99,1.95-1.31c0.74-0.32,1.54-0.48,2.39-0.48c0.84,0,1.63,0.16,2.37,0.47
							c0.74,0.32,1.39,0.75,1.95,1.29c0.56,0.54,1.01,1.18,1.34,1.92c0.33,0.74,0.5,1.52,0.5,2.36c0,0.4-0.12,0.71-0.38,0.96
							c-0.25,0.25-0.58,0.37-0.99,0.37H344.87z M351.22,213.35c-0.09-0.35-0.24-0.67-0.44-0.95c-0.2-0.28-0.44-0.52-0.72-0.72
							c-0.28-0.2-0.6-0.35-0.95-0.45c-0.35-0.1-0.72-0.15-1.12-0.15c-0.39,0-0.76,0.05-1.11,0.16c-0.35,0.11-0.66,0.26-0.94,0.46
							c-0.28,0.2-0.52,0.44-0.71,0.72c-0.2,0.28-0.34,0.59-0.44,0.93H351.22z"/>
						<path class="st1" d="M358.73,215.37c-0.37-0.15-0.75-0.32-1.14-0.51c-0.39-0.19-0.75-0.42-1.08-0.69
							c-0.32-0.27-0.59-0.59-0.8-0.96c-0.21-0.37-0.31-0.82-0.31-1.34c0-0.54,0.11-1.03,0.32-1.47c0.21-0.44,0.51-0.82,0.89-1.13
							c0.38-0.31,0.83-0.55,1.36-0.72c0.52-0.17,1.09-0.25,1.72-0.25c0.36,0,0.73,0.03,1.12,0.08c0.38,0.06,0.75,0.15,1.1,0.27
							c0.35,0.13,0.66,0.29,0.93,0.49c0.27,0.2,0.48,0.44,0.63,0.72c0.13,0.28,0.17,0.55,0.14,0.82c-0.04,0.27-0.14,0.49-0.29,0.66
							c-0.12,0.14-0.26,0.24-0.42,0.32c-0.16,0.08-0.33,0.12-0.51,0.12c-0.14,0-0.29-0.04-0.45-0.1c-0.18-0.11-0.35-0.21-0.5-0.29
							c-0.15-0.09-0.3-0.16-0.46-0.22c-0.16-0.06-0.33-0.11-0.5-0.14c-0.18-0.03-0.38-0.04-0.6-0.04c-0.56,0-0.98,0.07-1.27,0.22
							c-0.29,0.15-0.43,0.38-0.43,0.69c0,0.16,0.05,0.3,0.16,0.41c0.11,0.1,0.25,0.2,0.44,0.29c0.18,0.08,0.41,0.17,0.67,0.24
							c0.26,0.08,0.55,0.16,0.85,0.26c0.5,0.15,0.99,0.33,1.44,0.54c0.46,0.2,0.86,0.46,1.21,0.75c0.35,0.3,0.62,0.64,0.83,1.04
							c0.2,0.4,0.31,0.88,0.31,1.43c0,0.51-0.11,0.99-0.33,1.45c-0.22,0.45-0.52,0.84-0.9,1.18c-0.39,0.33-0.85,0.6-1.38,0.79
							c-0.53,0.19-1.11,0.29-1.75,0.29c-0.39,0-0.81-0.04-1.25-0.11c-0.44-0.07-0.87-0.2-1.29-0.37c-0.41-0.18-0.8-0.4-1.15-0.68
							c-0.35-0.28-0.63-0.62-0.85-1.03c-0.15-0.28-0.23-0.55-0.23-0.79c0-0.24,0.06-0.46,0.16-0.64c0.11-0.18,0.26-0.33,0.45-0.43
							c0.19-0.1,0.4-0.15,0.64-0.15c0.21,0,0.42,0.04,0.64,0.13c0.22,0.09,0.45,0.23,0.67,0.43c0.1,0.13,0.23,0.25,0.38,0.37
							c0.15,0.12,0.33,0.22,0.51,0.31c0.19,0.09,0.39,0.16,0.61,0.21c0.22,0.05,0.45,0.08,0.69,0.08c0.21,0,0.41-0.02,0.6-0.07
							c0.19-0.05,0.35-0.11,0.5-0.2c0.15-0.09,0.26-0.19,0.35-0.31c0.09-0.12,0.13-0.26,0.13-0.41c0-0.18-0.09-0.34-0.28-0.5
							c-0.19-0.15-0.42-0.29-0.69-0.42c-0.27-0.13-0.55-0.24-0.85-0.34C359.19,215.52,358.94,215.44,358.73,215.37"/>
					</g>
					<g>
						<path class="st0" d="M243.46,159.87c2.76-4.47,5.58-8.94,8.31-13.47c5.81-9.63,11.68-19.22,15.76-29.77
							c0.89-2.3,1.64-4.63,1.37-7.12c-0.15-1.35,0.39-1.81,1.6-2.15c2.63-0.72,5.28-1.19,8-0.96c3.52,0.29,4.81,2.15,3.79,5.5
							c-1.62,5.3-4.45,10.02-7.37,14.68c-8.38,13.37-17.01,26.59-24.71,40.37c-2.12,3.8-4.01,7.73-5.92,11.65
							c-1.33,2.72-8.23,5.47-10.96,4.23c-1.29-0.58-1.52-1.86-1.66-3.07c-1.25-10.48-2.42-20.96-3.7-31.43
							c-1.09-8.91-1.99-17.85-4.17-26.58c-0.94-3.75-2.06-7.43-4.97-10.19c-0.86-0.81-0.62-1.21,0.16-1.77
							c3.5-2.52,7.37-3.95,11.72-3.78c2.66,0.1,4.22,1.84,5.32,4.08c1.89,3.82,2.34,8.01,2.93,12.14
							c1.74,12.09,2.95,24.23,3.78,36.42C242.75,159.06,242.73,159.51,243.46,159.87z"/>
						<path class="st0" d="M94.27,115.89c0.27,7.71-2.85,14.79-3.81,22.31c6.87,0.38,13.65-0.05,20.38-1.08
							c2.07-0.32,1.99,0.53,1.72,1.92c-0.97,4.9-4.66,7.91-10.41,8.2c-3.83,0.19-7.68,0.18-11.52,0.1c-1.65-0.04-2.5,0.37-2.93,2.1
							c-1.16,4.65-2.42,9.28-2.75,14.09c-0.38,5.58,1.95,8.09,7.54,8.32c6.73,0.29,13.15-1.14,19.45-3.38
							c3.46-1.23,3.55-1.06,2.95,2.5c-0.8,4.79-3.8,7.5-8.24,8.81c-6.2,1.83-12.6,1.56-18.96,1.57c-3.32,0.01-6.63-0.03-9.95-0.08
							c-5.68-0.09-7.93-2.36-7.97-7.99c-0.05-7.08,2.13-13.74,3.84-20.49c2.58-10.21,5.73-20.3,6.83-30.84
							c0.09-0.87,0.1-1.74,0.18-2.61c0.14-1.74,0.07-3.18-2.39-2.56c-1.14,0.29-1.47-0.46-1.5-1.52c-0.11-3.66,2.76-6.91,6.34-7.32
							c11.38-1.3,22.83-0.88,34.23-1.5c2.22-0.12,5.12-0.51,6.18,1.72c0.97,2.03-0.61,4.35-1.76,6.3c-2.21,3.75-4.24,4.3-8.17,2.57
							c-1.26-0.55-2.66-1.06-4-1.09C104.4,115.81,99.26,115.89,94.27,115.89z"/>
						<path class="st0" d="M158.92,165.01c1.51,3.6,0.68,6.39-1.68,8.74c-4.88,4.86-11.15,6.6-17.69,7.6
							c-3.75,0.58-7.49,0.34-11.12-0.78c-5.73-1.78-8.71-5.9-9.43-11.66c-1.9-15.2,7.18-31.58,21.03-38.11
							c5.91-2.79,12.1-3.1,18.4-1.82c2.31,0.47,4.37,1.55,4.99,4.06c0.66,2.69-0.58,4.74-2.65,6.37c-0.61,0.48-1.26,0.95-1.93,1.34
							c-3.6,2.09-3.81,2.02-5.42-1.71c-1.58-3.64-4.7-4.87-8.65-3.4c-3.51,1.3-5.7,4.01-7.19,7.24c-3.45,7.46-4.51,15.36-3.45,23.47
							c0.75,5.73,4.09,7.93,9.76,7C149.78,172.38,154.65,169.55,158.92,165.01z"/>
						<path class="st0" d="M377.68,168.19c-1.98,1.32-3.97,2.51-6.41,2.75c-1.29,0.13-1.84-0.3-2.08-1.63
							c-0.31-1.7,0.02-3.31,0.27-4.93c1.14-7.22,2.14-14.44,7.19-20.36c2.19-2.57,3.58-5.77,4.96-8.88
							c2.62-5.91,5.16-11.86,5.05-18.51c-0.03-1.55,0.01-3.2-1.16-4.44c-5.33-5.66-14.31-3.56-16.56,3.84
							c-4.23,13.93-7.99,27.98-11.39,42.13c-0.3,1.26-0.72,2.3-1.78,3.05c-3.98,2.81-7.94,5.66-11.96,8.43
							c-0.77,0.53-1.74,0.8-2.66,1.05c-2.98,0.82-3.71,0.33-3.62-2.74c0.13-4.91,1.52-9.62,2.45-14.41
							c0.43-2.19,1.33-4.06,2.65-5.86c4.79-6.51,8.38-13.66,10.87-21.34c1.25-3.85,1.96-7.77,1.36-11.85
							c-0.12-0.79-0.15-1.64-0.79-2.15c-2.99-2.37-6.41-3.61-10.22-2.96c-3.56,0.6-5.45,3.09-6.46,6.44
							c-3.57,11.94-7.07,23.91-9.82,36.06c-1.21,5.34-2.82,10.12-7.7,13.24c-1.29,0.83-2.2,2.23-3.33,3.32
							c-0.69,0.67-1.4,1.32-2.18,1.87c-1.51,1.06-2.52,1.04-2.68-1.21c-0.15-2.28-0.01-4.54,0.37-6.77
							c1.75-10.42,4.06-20.7,8.34-30.42c0.27-0.61,0.45-0.97-0.27-1.49c-2.98-2.14-9.32-2.5-12.5-0.44
							c-1.02,0.66-1.68,0.71-2.75,0.13c-3.61-1.95-7.53-2.13-11.46-1.35c-6.09,1.21-10.82,4.76-14.74,9.36
							c-7.98,9.37-12.5,20.11-11.9,32.6c0.38,7.8,4.7,11.43,12.34,10.68c2.88-0.28,5.28-1.72,7.52-3.43
							c3.57-2.74,6.4-6.17,8.96-9.83c0.76-1.09,1.55-2.16,2.57-3.56c0,3.28-0.17,6.08,0.03,8.85c0.43,5.99,5.33,9.61,10.79,7.57
							c7.63-2.85,12.8-8.25,14.61-16.43c0.17-0.78-0.04-1.72,1.32-1.87c-0.24,3.22-1.11,6.26-1.08,9.41
							c0.08,6.98,4.38,10.52,11.2,8.75c8.4-2.19,14.5-7.36,18.4-15.12c0.64-1.28,1.16-2.72,2.97-2.99
							c-0.35,3.29-0.96,6.49-0.96,9.69c-0.01,6.52,4.43,10.07,10.74,8.51c8.8-2.19,15.23-7.43,19-15.78
							c0.65-0.59,1.12-1.22,0.52-2.12C382.47,163.85,380.33,166.42,377.68,168.19z M381.25,119.91c0.38-1.06,0.8-2.11,1.23-3.16
							c0.2-0.49,0.5-0.97,1.13-0.91c0.85,0.08,0.81,0.81,0.83,1.39c0.06,2.28-0.25,4.53-0.92,6.7c-1.9,6.18-4.51,12.05-7.84,17.59
							c-0.3,0.51-0.51,1.14-1.44,1.35C376.25,135.04,378.57,127.43,381.25,119.91z M350.19,118.38c0.18-0.49,0.36-0.99,0.6-1.45
							c0.27-0.53,0.53-1.2,1.3-1.06c0.83,0.15,0.67,0.9,0.69,1.48c0.09,2.47-0.3,4.85-1.05,7.21c-1.93,6.1-4.58,11.87-7.9,17.33
							c-0.28,0.46-0.39,1.22-1.33,1.09C344.87,134.69,347.23,126.44,350.19,118.38z M303.09,142.49
							c-3.63,9.05-8.41,17.42-14.41,25.1c-0.38,0.48-0.78,0.95-1.23,1.36c-1.32,1.19-2.49,3.05-4.64,2.08
							c-2-0.9-1.88-2.94-1.98-4.77c-0.02-0.44,0-0.87,0-2.08c0.64-7.72,2.93-15.68,7.61-22.86c1-1.54,2.17-2.95,3.66-4.06
							c3.46-2.57,8.17-1.76,10.53,1.83C303.34,140.15,303.62,141.15,303.09,142.49z"/>
						<path class="st0" d="M211.48,144.51c-0.3-5.09-1.89-9.62-6.13-12.76c-5.67-4.18-12.05-4.28-18.49-2.47
							c-13.64,3.84-23.95,18.47-23.98,33.66c-0.5,9.48,4.29,15.68,11.18,17.76c5.75,1.73,11.4,1.07,16.8-1.45
							C203.22,173.47,212.29,158.15,211.48,144.51z M196.14,154.04c-0.93,5.08-2.44,9.97-5.08,14.45c-0.48,0.82-1.02,1.64-1.64,2.36
							c-2.07,2.38-4.37,4.45-7.87,3.33c-3.52-1.13-4.09-4.2-4.43-7.31c-0.1-0.95-0.02-1.92-0.02-2.87
							c0.31-7.75,1.94-15.17,5.72-22.03c0.97-1.76,2.16-3.38,3.73-4.67c4.16-3.43,8.69-1.96,9.96,3.26
							C197.62,145.08,196.96,149.57,196.14,154.04z"/>
						<path class="st0" d="M402.91,160.68c2.01-1.05,4.06-2,6.15-2.87c2.49-1.03,5.04-1.97,7.41-3.26
							c5.42-2.95,10.45-6.45,13.15-12.29c2.94-6.37-0.44-12.78-7.26-13.75c-2.85-0.4-5.78-0.49-8.6,0.2
							c-13.85,3.42-21.95,12.83-26.36,25.85c-0.91,2.69-1.13,5.62-1.67,8.44c-0.17,0.71-0.34,1.41-0.52,2.12
							c1.16,0.98,0.7,2.4,0.89,3.6c1,6.41,4.51,10.44,10.75,12.04c3.94,1.01,7.94,1.09,11.95,0.54c5.78-0.79,11.23-2.52,15.84-6.27
							c2.28-1.86,3.65-4.17,3.14-7.3c-0.3-1.81-0.64-2.6-2.41-0.93c-4.18,3.91-9.14,6.33-14.87,7.08c-4.18,0.55-7.49-1.09-9.58-4.54
							C399.16,166.48,398.86,162.8,402.91,160.68z M406.35,140.61c1.23-2.14,2.72-4.07,4.99-5.18c1.73-0.85,3.54-1.03,5.17,0.26
							c1.52,1.2,1.46,2.93,1.11,4.56c-0.77,3.65-2.83,6.44-5.88,8.61c-3.31,2.36-7.41,3.51-10.31,6.71
							C402.42,150.36,403.68,145.24,406.35,140.61z"/>
					</g>
				</g>
			</g>
		</g>
	</g>
	<g>
		<g>
			<g>
				<g>
					<path class="st4" d="M256.24,24.09c15.76,2.56,25.35,2.75,31.08,2.24c0,0,0-0.01,0-0.01c0-9.07-7.35-16.42-16.42-16.42
						c-8.21,0-15.01,6.07-16.19,13.98C255.22,23.95,255.72,24,256.24,24.09z"/>
				</g>
			</g>
		</g>
	</g>
</g>
</svg>
