<?xml version="1.0" encoding="utf-8"?>
<!-- Generator: Adobe Illustrator 23.0.3, SVG Export Plug-In . SVG Version: 6.00 Build 0)  -->
<svg version="1.1" id="Capa_1" xmlns="http://www.w3.org/2000/svg" xmlns:xlink="http://www.w3.org/1999/xlink" x="0px" y="0px"
     viewBox="0 0 1674.95 1315.75" style="enable-background:new 0 0 1674.95 1315.75;" xml:space="preserve">
<style type="text/css">
	.st0{fill:#FFFFFF;}
</style>
    <g>
	<g>
		<g>
			<g>
				<g>
					<path class="st0" d="M1193.74,161.79c23.18,358.09-253.32,694.11-589.48,549.51C647.21,169.63,1067.4,554.74,1193.74,161.79"/>
                    <path class="st0" d="M460.16,492.55c127.47-398.94,575.1-93.75,733.58-330.77c0,0-52.21,50.92-309.24,9.2
						C557.95,118.01,412.1,300.13,460.16,492.55"/>
				</g>
			</g>
		</g>
	</g>
        <g>
		<g>
			<g>
				<g>
					<path class="st0" d="M877.49,132.28c126.97,20.61,204.22,22.13,250.43,18.01c0-0.03,0.01-0.07,0.01-0.11
						c0-73.04-59.22-132.26-132.26-132.26c-66.17,0-120.93,48.92-130.44,112.62C869.34,131.14,873.34,131.6,877.49,132.28z"/>
				</g>
			</g>
		</g>
	</g>
</g>
    <g>
	<path class="st0" d="M807.17,1193.6c12.37-20.02,25-40.07,37.24-60.35c26.04-43.14,52.35-86.15,70.61-133.41
		c3.98-10.3,7.34-20.76,6.12-31.91c-0.66-6.05,1.76-8.13,7.18-9.62c11.79-3.25,23.66-5.31,35.87-4.31
		c15.76,1.29,21.57,9.62,16.98,24.63c-7.28,23.77-19.95,44.91-33.03,65.78c-37.54,59.93-76.24,119.14-110.75,180.91
		c-9.51,17.02-17.95,34.66-26.52,52.19c-5.96,12.19-36.88,24.52-49.13,18.95c-5.76-2.62-6.79-8.32-7.44-13.76
		c-5.59-46.94-10.86-93.92-16.6-140.85c-4.88-39.91-8.93-79.98-18.71-119.12c-4.19-16.79-9.23-33.3-22.28-45.68
		c-3.85-3.65-2.79-5.41,0.7-7.93c15.69-11.31,33.04-17.72,52.5-16.96c11.9,0.47,18.89,8.26,23.85,18.26
		c8.49,17.14,10.48,35.9,13.14,54.41c7.79,54.17,13.22,108.59,16.95,163.19C803.99,1189.95,803.88,1191.97,807.17,1193.6z"/>
        <path class="st0" d="M138.64,996.48c1.2,34.56-12.77,66.29-17.06,99.98c30.78,1.7,61.17-0.24,91.32-4.84
		c9.27-1.42,8.94,2.39,7.71,8.61c-4.36,21.98-20.9,35.44-46.66,36.75c-17.17,0.87-34.42,0.8-51.61,0.43
		c-7.38-0.16-11.21,1.66-13.14,9.39c-5.21,20.85-10.86,41.59-12.33,63.12c-1.7,25,8.74,36.24,33.78,37.3
		c30.17,1.28,58.93-5.12,87.16-15.14c15.5-5.5,15.9-4.77,13.23,11.22c-3.59,21.48-17.05,33.6-36.93,39.47
		c-27.8,8.21-56.47,6.99-84.98,7.05c-14.86,0.03-29.72-0.12-44.58-0.36c-25.45-0.41-35.55-10.57-35.73-35.82
		c-0.22-31.72,9.53-61.58,17.19-91.82c11.58-45.76,25.68-90.96,30.61-138.19c0.41-3.88,0.47-7.79,0.79-11.68
		c0.64-7.78,0.3-14.24-10.72-11.48c-5.11,1.28-6.6-2.06-6.74-6.83c-0.49-16.39,12.37-30.95,28.41-32.78
		c50.98-5.8,102.29-3.95,153.41-6.71c9.94-0.54,22.93-2.3,27.71,7.7c4.34,9.08-2.73,19.51-7.88,28.24
		c-9.91,16.81-18.98,19.26-36.61,11.51c-5.64-2.48-11.91-4.75-17.94-4.9C184.01,996.15,160.98,996.48,138.64,996.48z"/>
        <path class="st0" d="M428.34,1216.6c6.78,16.15,3.03,28.64-7.51,39.14c-21.85,21.77-49.96,29.56-79.27,34.07
		c-16.8,2.58-33.54,1.54-49.84-3.5c-25.69-7.95-39.05-26.42-42.27-52.26c-8.5-68.1,32.19-141.49,94.25-170.75
		c26.49-12.49,54.21-13.89,82.47-8.16c10.37,2.1,19.58,6.93,22.35,18.2c2.96,12.04-2.61,21.25-11.85,28.54
		c-2.75,2.17-5.62,4.25-8.65,6c-16.15,9.37-17.06,9.05-24.29-7.65c-7.07-16.32-21.06-21.81-38.78-15.24
		c-15.74,5.84-25.53,17.95-32.23,32.42c-15.46,33.44-20.21,68.84-15.48,105.17c3.35,25.67,18.31,35.52,43.72,31.38
		C387.34,1249.65,409.17,1236.97,428.34,1216.6z"/>
        <path class="st0" d="M1408.62,1230.87c-8.89,5.93-17.78,11.24-28.72,12.33c-5.8,0.58-8.24-1.34-9.31-7.32
		c-1.38-7.63,0.07-14.83,1.21-22.11c5.1-32.36,9.57-64.72,32.21-91.23c9.83-11.51,16.06-25.87,22.25-39.81
		c11.75-26.48,23.14-53.13,22.65-82.93c-0.11-6.94,0.06-14.32-5.21-19.92c-23.89-25.34-64.14-15.97-74.22,17.21
		c-18.97,62.4-35.82,125.38-51.02,188.8c-1.36,5.66-3.22,10.3-7.98,13.66c-17.85,12.61-35.59,25.38-53.6,37.76
		c-3.44,2.36-7.82,3.58-11.93,4.7c-13.37,3.66-16.61,1.48-16.24-12.26c0.59-22,6.81-43.11,10.97-64.56
		c1.91-9.83,5.95-18.21,11.88-26.27c21.46-29.18,37.55-61.2,48.73-95.65c5.59-17.25,8.76-34.83,6.1-53.09
		c-0.52-3.55-0.65-7.37-3.54-9.66c-13.42-10.64-28.72-16.17-45.8-13.28c-15.96,2.7-24.43,13.83-28.93,28.88
		c-16.02,53.5-31.68,107.13-43.99,161.59c-5.41,23.95-12.65,45.33-34.52,59.35c-5.77,3.7-9.86,9.98-14.9,14.89
		c-3.07,2.99-6.29,5.91-9.79,8.37c-6.77,4.76-11.31,4.66-11.99-5.42c-0.69-10.24-0.04-20.34,1.64-30.35
		c7.86-46.7,18.18-92.75,37.38-136.34c1.21-2.75,2.03-4.34-1.21-6.67c-13.34-9.58-41.77-11.2-56-1.99
		c-4.56,2.95-7.51,3.17-12.31,0.58c-16.19-8.74-33.73-9.54-51.34-6.04c-27.31,5.43-48.49,21.34-66.05,41.96
		c-35.77,41.99-56.01,90.1-53.31,146.09c1.69,34.94,21.04,51.2,55.3,47.86c12.9-1.26,23.67-7.69,33.69-15.39
		c15.99-12.28,28.67-27.63,40.16-44.04c3.42-4.88,6.97-9.66,11.51-15.96c0,14.72-0.75,27.24,0.15,39.65
		c1.95,26.83,23.9,43.05,48.36,33.9c34.2-12.79,57.35-36.96,65.47-73.64c0.77-3.49-0.19-7.69,5.92-8.39
		c-1.07,14.43-4.99,28.04-4.83,42.15c0.36,31.29,19.65,47.16,50.17,39.2c37.62-9.81,64.97-33,82.47-67.77
		c2.88-5.72,5.18-12.19,13.31-13.4c-1.56,14.76-4.3,29.1-4.32,43.43c-0.04,29.23,19.84,45.14,48.13,38.11
		c39.43-9.8,68.25-33.3,85.15-70.69c2.92-2.64,5.04-5.48,2.32-9.5C1430.1,1211.41,1420.5,1222.94,1408.62,1230.87z M1424.6,1014.51
		c1.7-4.77,3.59-9.47,5.53-14.15c0.91-2.2,2.26-4.36,5.04-4.08c3.81,0.37,3.64,3.63,3.71,6.25c0.27,10.22-1.13,20.28-4.12,30.01
		c-8.5,27.69-20.21,53.98-35.13,78.82c-1.36,2.27-2.28,5.09-6.47,6.07C1402.23,1082.33,1412.63,1048.19,1424.6,1014.51z
		 M1285.43,1007.64c0.81-2.2,1.62-4.42,2.7-6.5c1.23-2.38,2.37-5.4,5.82-4.77c3.74,0.68,3,4.05,3.1,6.63
		c0.42,11.05-1.36,21.75-4.7,32.31c-8.64,27.34-20.51,53.18-35.41,77.64c-1.26,2.06-1.75,5.45-5.98,4.89
		C1261.6,1080.75,1272.16,1043.78,1285.43,1007.64z M1074.35,1115.68c-16.28,40.53-37.71,78.06-64.59,112.47
		c-1.68,2.15-3.48,4.26-5.5,6.09c-5.93,5.35-11.14,13.65-20.79,9.31c-8.96-4.04-8.43-13.18-8.88-21.37
		c-0.11-1.95-0.02-3.91-0.02-9.32c2.86-34.59,13.13-70.25,34.12-102.44c4.5-6.9,9.71-13.22,16.42-18.21
		c15.5-11.53,36.59-7.89,47.21,8.19C1075.49,1105.21,1076.76,1109.67,1074.35,1115.68z"/>
        <path class="st0" d="M663.87,1124.76c-1.35-22.8-8.46-43.12-27.47-57.16c-25.39-18.75-54.02-19.17-82.84-11.05
		c-61.11,17.22-107.33,82.75-107.45,150.83c-2.24,42.46,19.21,70.26,50.08,79.57c25.75,7.77,51.09,4.81,75.28-6.51
		C626.86,1254.54,667.48,1185.85,663.87,1124.76z M595.1,1167.46c-4.18,22.77-10.95,44.67-22.76,64.76
		c-2.17,3.69-4.55,7.34-7.35,10.55c-9.28,10.67-19.58,19.94-35.25,14.93c-15.76-5.04-18.33-18.8-19.84-32.76
		c-0.46-4.25-0.07-8.58-0.07-12.88c1.39-34.73,8.71-67.99,25.63-98.7c4.36-7.9,9.68-15.14,16.72-20.94
		c18.65-15.36,38.96-8.77,44.63,14.62C601.73,1127.31,598.77,1147.44,595.1,1167.46z"/>
        <path class="st0" d="M1521.68,1197.19c9.01-4.73,18.17-8.98,27.57-12.84c11.18-4.6,22.61-8.84,33.19-14.6
		c24.3-13.22,46.83-28.89,58.94-55.07c13.2-28.53-1.99-57.27-32.55-61.61c-12.75-1.81-25.9-2.21-38.55,0.92
		c-62.08,15.34-98.34,57.5-118.12,115.83c-4.09,12.07-5.06,25.2-7.47,37.84c-0.77,3.17-1.54,6.33-2.32,9.5
		c5.2,4.38,3.15,10.75,3.99,16.13c4.49,28.72,20.22,46.77,48.19,53.97c17.65,4.54,35.6,4.88,53.53,2.43
		c25.91-3.54,50.34-11.28,70.98-28.1c10.21-8.32,16.37-18.67,14.08-32.7c-1.32-8.11-2.86-11.64-10.82-4.19
		c-18.74,17.54-40.97,28.36-66.64,31.72c-18.73,2.45-33.56-4.88-42.95-20.32C1504.89,1223.21,1503.53,1206.71,1521.68,1197.19z
		 M1537.11,1107.27c5.53-9.58,12.18-18.26,22.38-23.23c7.77-3.79,15.86-4.61,23.17,1.17c6.82,5.39,6.54,13.13,4.99,20.45
		c-3.47,16.35-12.67,28.87-26.34,38.6c-14.83,10.56-33.22,15.71-46.21,30.09C1519.49,1150.95,1525.13,1128.04,1537.11,1107.27z"/>
</g>
</svg>
