<?xml version="1.0" encoding="utf-8"?>
<!-- Generator: Adobe Illustrator 24.2.1, SVG Export Plug-In . SVG Version: 6.00 Build 0)  -->
<svg version="1.1" id="Capa_1" xmlns="http://www.w3.org/2000/svg" xmlns:xlink="http://www.w3.org/1999/xlink" x="0px" y="0px"
	 viewBox="0 0 823.9 475.3" style="enable-background:new 0 0 823.9 475.3;" xml:space="preserve">
<style type="text/css">
	.st0{fill:#FFFFFF;}
	.st1{fill:#39A263;}
	.st2{fill:#07783F;}
	.st3{fill:#399B5F;}
	.st4{fill:#66AB4A;}
	.st5{fill:#E29912;}
</style>
<g>
	<path class="st0" d="M522.6,58.1L769,105.9c0,0,55.5,8.7,52.7,75v184.3c0.1,14.3-3.8,28.4-11.2,40.6c-7.9,12.7-21.2,25.3-43.4,28.5
		L470,468.8c0,0-63.6,9.1-114.2,0L70,435.8c-2-0.2-4.1-0.4-6.1-0.6c-10.8-0.9-58.5-9-61.7-70.8V178.5c0,0-3.4-65.1,58.4-74.2
		l251.9-46.2c0,0,24.1-55,112.2-55.7S522.6,58.1,522.6,58.1z"/>
	<path class="st1" d="M51.3,272.5v-83C49.5,160.6,75.8,156,75.8,156L289,120.8l-36.2-24.6L77,125.3c-58.7,8-55.4,65.4-55.4,65.4
		v95.6L51.3,272.5z"/>
	<path class="st2" d="M769.5,273v69.4c0,3,0.1,5.9,0.2,8.9c1,30.9-22.4,34.8-27.5,35.3c-1.2,0.1-2.4,0.2-3.6,0.4l-274.2,30.5
		c-54.8,7-106.3,0-106.3,0L80.5,386.6c-30.8-2.9-29.2-31.9-29.2-31.9v-82.2l-29.8,13.8v68.2c3.1,54.4,48.3,61.6,58.6,62.4
		c2,0.1,3.9,0.3,5.8,0.5L357,446.6c48,8,108.4,0,108.4,0l281.9-30.5c21-2.8,33.6-13.9,41.2-25.1c7-10.6,10.7-23.1,10.6-35.8V287
		L769.5,273z"/>
	<path class="st1" d="M799,287v-94.2c2.7-58.4-50-66.1-50-66.1L568.7,96.2l-35.6,24.2l196.3,33c2.9,0.4,5.8,0.9,8.7,1.4
		c29.4,5.1,31.8,25.5,31.6,32c-0.1,2.2-0.1,4.4-0.1,6.7V273L799,287z"/>
	<path class="st3" d="M484.6,48.2c4.7,72.9-51.6,141.4-120.1,111.9C373.3,49.8,458.9,128.3,484.6,48.2"/>
	<path class="st4" d="M335.2,115.6c26-81.3,117.1-19.1,149.4-67.4c0,0-10.6,10.4-63,1.9C355.1,39.3,325.4,76.4,335.2,115.6"/>
	<path class="st2" d="M233.5,337.4c1.4,0,2.7,0.3,3.9,0.8c1.2,0.5,2.3,1.2,3.2,2.1c0.9,0.9,1.7,2,2.2,3.2c0.5,1.2,0.8,2.6,0.8,3.9
		c0,1.3-0.3,2.7-0.8,3.9c-1.6,3.7-5.3,6.1-9.3,6.1h-5.4v4.7c0,0.3-0.1,0.6-0.2,0.9c-0.1,0.3-0.3,0.5-0.5,0.7
		c-0.2,0.2-0.5,0.4-0.7,0.5c-0.9,0.4-1.8,0.2-2.5-0.5c-0.2-0.2-0.4-0.4-0.5-0.7c-0.1-0.3-0.2-0.6-0.2-0.9v-22.4
		c0-0.9,0.5-1.8,1.4-2.1c0.3-0.1,0.6-0.2,0.9-0.2L233.5,337.4z M228.1,342v10.9h5.5c0.7,0,1.5-0.1,2.1-0.4c0.6-0.3,1.2-0.7,1.7-1.2
		c0.5-0.5,0.9-1.1,1.1-1.7c0.3-0.7,0.4-1.4,0.4-2.1c0-0.7-0.2-1.4-0.4-2.1c-0.3-0.7-0.7-1.2-1.2-1.8c-0.5-0.5-1.1-0.9-1.7-1.2
		c-0.7-0.3-1.4-0.5-2.1-0.5H228.1z"/>
	<path class="st2" d="M250.1,362.1c0,0.3-0.1,0.6-0.2,0.9c-0.1,0.3-0.3,0.5-0.5,0.7c-0.2,0.2-0.4,0.4-0.7,0.5
		c-0.3,0.1-0.6,0.2-0.9,0.2c-0.3,0-0.6-0.1-0.9-0.2c-0.3-0.1-0.5-0.3-0.8-0.5c-0.2-0.2-0.4-0.4-0.5-0.7c-0.1-0.3-0.2-0.6-0.2-0.9
		v-6.8c0-1.4,0.3-2.8,0.8-4.1c0.5-1.2,1.3-2.4,2.3-3.4c1-1,2.1-1.7,3.4-2.3c1.3-0.6,2.7-0.8,4.1-0.8l0,0c0.7,0,1.3,0.2,1.8,0.6
		c0.4,0.4,0.6,1,0.6,1.6c0,0.3-0.1,0.6-0.2,0.9c-0.1,0.3-0.3,0.5-0.5,0.7c-0.5,0.4-1,0.7-1.7,0.7l0,0c-0.8,0-1.6,0.2-2.3,0.5
		c-0.7,0.3-1.3,0.7-1.9,1.3c-0.5,0.5-1,1.2-1.3,1.9c-0.3,0.7-0.5,1.5-0.5,2.3V362.1z"/>
	<path class="st2" d="M259.2,354.6c0-1.3,0.3-2.7,0.8-3.9c1-2.4,3-4.3,5.4-5.4c2.5-1.1,5.3-1.1,7.8,0c1.2,0.5,2.3,1.2,3.2,2.2
		c0.9,0.9,1.6,2,2.1,3.2c0.5,1.2,0.8,2.6,0.8,3.9c0,1.3-0.3,2.7-0.8,3.9c-0.5,1.2-1.2,2.3-2.1,3.2c-0.9,0.9-2,1.7-3.2,2.2
		c-2.5,1.1-5.3,1.1-7.8,0c-2.4-1-4.3-3-5.4-5.4C259.5,357.2,259.2,355.9,259.2,354.6 M263.8,354.6c0,0.7,0.1,1.4,0.4,2.1
		c0.3,0.7,0.7,1.2,1.2,1.8c0.5,0.5,1.1,0.9,1.7,1.2c1.4,0.6,2.9,0.6,4.3,0c0.7-0.3,1.2-0.7,1.7-1.2c0.5-0.5,0.9-1.1,1.2-1.8
		c0.6-1.4,0.6-2.9,0-4.3c-0.8-2-2.8-3.3-5-3.3c-0.7,0-1.4,0.1-2.1,0.4c-1.3,0.6-2.4,1.6-2.9,2.9C264,353.1,263.8,353.8,263.8,354.6"
		/>
	<path class="st2" d="M301.2,354.7c0,1.3-0.3,2.7-0.8,3.9c-1,2.4-2.9,4.3-5.3,5.3c-2.5,1.1-5.3,1.1-7.8,0c-2.4-1-4.3-3-5.3-5.4
		c-1.1-2.5-1.1-5.3,0-7.8c0.5-1.2,1.2-2.3,2.1-3.2c0.9-0.9,2-1.6,3.2-2.1c1.2-0.5,2.6-0.8,3.9-0.8c1,0,2,0.1,2.9,0.4
		c0.9,0.3,1.8,0.7,2.6,1.2v-6.6c0-0.3,0.1-0.6,0.2-0.9c0.1-0.3,0.3-0.5,0.5-0.8c0.4-0.5,1-0.7,1.6-0.7c0.3,0,0.6,0.1,0.9,0.2
		c0.3,0.1,0.5,0.3,0.7,0.5c0.2,0.2,0.4,0.5,0.5,0.8c0.1,0.3,0.2,0.6,0.2,0.9L301.2,354.7z M296.7,354.6c0-0.7-0.1-1.5-0.4-2.1
		c-0.3-0.7-0.7-1.2-1.2-1.7c-0.5-0.5-1.1-0.9-1.7-1.2c-1.4-0.6-2.9-0.6-4.3,0c-0.6,0.3-1.2,0.7-1.7,1.2c-0.5,0.5-0.9,1.1-1.2,1.7
		c-0.6,1.4-0.6,2.9,0,4.3c0.3,0.6,0.7,1.2,1.2,1.8c0.5,0.5,1.1,0.9,1.7,1.2c0.7,0.3,1.4,0.4,2.1,0.4c0.7,0,1.5-0.1,2.1-0.4
		c0.6-0.3,1.2-0.7,1.7-1.2c0.5-0.5,0.9-1.1,1.2-1.8C296.5,356,296.7,355.3,296.7,354.6"/>
	<path class="st2" d="M310,354.9c0,0.7,0.1,1.4,0.4,2c0.5,1.2,1.5,2.2,2.7,2.7c0.6,0.3,1.3,0.4,2,0.4c0.7,0,1.4-0.1,2-0.4
		c0.6-0.3,1.1-0.6,1.5-1.1c0.4-0.5,0.7-1.1,0.9-1.7c0.2-0.6,0.3-1.3,0.3-2V347c0-0.3,0.1-0.6,0.2-0.9c0.1-0.3,0.3-0.5,0.5-0.7
		c0.4-0.4,1-0.7,1.6-0.7c0.3,0,0.6,0.1,0.9,0.2c0.3,0.1,0.5,0.3,0.7,0.5c0.2,0.2,0.4,0.4,0.5,0.7c0.1,0.3,0.2,0.6,0.2,0.9v7.7
		c0,1.3-0.2,2.6-0.7,3.8c-0.4,1.2-1.1,2.2-1.9,3.1c-1.7,1.9-4.1,2.9-6.7,2.9c-1.3,0-2.6-0.3-3.8-0.8c-2.3-1-4.2-2.9-5.1-5.2
		c-0.5-1.2-0.8-2.5-0.8-3.8V347c0-0.3,0.1-0.6,0.2-0.9c0.2-0.5,0.7-1,1.2-1.2c0.6-0.2,1.2-0.2,1.8,0c0.3,0.1,0.5,0.3,0.7,0.5
		c0.2,0.2,0.4,0.4,0.5,0.7c0.1,0.3,0.2,0.6,0.2,0.9L310,354.9z"/>
	<path class="st2" d="M331.7,354.6c0,0.7,0.1,1.4,0.4,2c0.3,0.6,0.7,1.2,1.1,1.7c0.5,0.5,1,0.9,1.6,1.3c0.6,0.3,1.3,0.5,2,0.5
		c0.7,0,1.4-0.1,2-0.3c0.6-0.2,1.2-0.6,1.8-1c0.3-0.2,0.6-0.5,0.9-0.7c0.3-0.2,0.7-0.3,1.1-0.3c0.3,0,0.5,0.1,0.8,0.2
		c0.3,0.1,0.6,0.3,0.8,0.5c0.2,0.2,0.4,0.5,0.5,0.8c0.1,0.3,0.2,0.6,0.2,0.9c0,0.3-0.1,0.6-0.2,0.9c-0.1,0.3-0.3,0.6-0.6,0.9
		c-0.9,0.9-1.9,1.6-3.1,2c-1.2,0.5-2.5,0.7-3.8,0.7c-2.7,0-5.3-1-7.2-2.9c-0.9-0.9-1.7-2-2.2-3.2c-0.5-1.2-0.8-2.6-0.8-3.9l0,0l0,0
		c0-1.4,0.3-2.7,0.8-4c0.5-1.2,1.3-2.3,2.2-3.2c0.9-0.9,2-1.6,3.3-2.1c1.3-0.5,2.6-0.8,4-0.8c1.3,0,2.6,0.2,3.8,0.7
		c1.2,0.4,2.2,1.1,3.1,2c0.3,0.3,0.5,0.5,0.6,0.9c0.1,0.3,0.2,0.6,0.2,1c0,0.3,0,0.6-0.2,0.9c-0.1,0.3-0.3,0.6-0.6,0.8
		c-0.2,0.2-0.5,0.4-0.8,0.5c-0.2,0.1-0.5,0.1-0.7,0.1c-0.4,0-0.8-0.1-1.1-0.3c-0.3-0.2-0.7-0.4-1-0.7c-0.5-0.4-1.1-0.8-1.8-1
		c-0.6-0.2-1.2-0.3-1.8-0.3c-0.7,0-1.4,0.1-2.1,0.4c-0.6,0.3-1.2,0.7-1.7,1.2c-0.5,0.5-0.9,1.1-1.2,1.8
		C331.8,353.2,331.7,353.9,331.7,354.6L331.7,354.6z"/>
	<path class="st2" d="M352.8,344.8h7.3c0.3,0,0.6,0.1,0.9,0.2c0.3,0.1,0.5,0.3,0.7,0.5c0.2,0.2,0.4,0.5,0.5,0.7
		c0.1,0.3,0.2,0.6,0.2,0.9c0,0.3-0.1,0.6-0.2,0.9c-0.1,0.3-0.3,0.5-0.5,0.7c-0.2,0.2-0.5,0.4-0.7,0.5c-0.3,0.1-0.6,0.2-0.9,0.2h-7.3
		v5.3c0,0.7,0.1,1.4,0.4,2.1c0.6,1.3,1.6,2.3,2.9,2.9c0.7,0.3,1.4,0.4,2.1,0.4c0.6,0,1.3-0.1,1.9-0.3c0.6-0.2,1.1-0.5,1.6-0.9
		c0.2-0.2,0.5-0.4,0.8-0.5c0.3-0.2,0.6-0.2,0.9-0.2c0.5,0,1,0.2,1.4,0.6c0.2,0.2,0.4,0.5,0.5,0.8c0.1,0.3,0.2,0.7,0.1,1
		c0,0.3-0.1,0.7-0.2,1c-0.1,0.3-0.3,0.6-0.6,0.8c-0.8,0.8-1.8,1.4-2.9,1.9c-1.1,0.4-2.3,0.6-3.5,0.6c-1.3,0-2.7-0.3-3.9-0.8
		c-1.2-0.5-2.3-1.2-3.2-2.1c-0.9-0.9-1.7-2-2.2-3.2c-0.5-1.2-0.8-2.6-0.8-3.9v-13.6c0-0.3,0.1-0.6,0.2-0.9c0.1-0.3,0.3-0.5,0.5-0.7
		c0.2-0.2,0.5-0.4,0.7-0.5c0.3-0.1,0.6-0.2,0.9-0.2c0.3,0,0.6,0.1,0.9,0.2c0.3,0.1,0.5,0.3,0.7,0.5c0.2,0.2,0.4,0.5,0.5,0.7
		c0.1,0.3,0.2,0.6,0.2,0.9L352.8,344.8z"/>
	<path class="st2" d="M367,354.6c0-1.3,0.3-2.7,0.8-3.9c1-2.4,3-4.3,5.4-5.4c1.2-0.5,2.5-0.8,3.9-0.8c1.3,0,2.7,0.3,3.9,0.8
		c2.4,1,4.3,2.9,5.3,5.4c0.5,1.2,0.8,2.6,0.8,3.9c0,1.3-0.3,2.7-0.8,3.9c-1,2.4-2.9,4.3-5.3,5.4c-1.2,0.5-2.6,0.8-3.9,0.8
		c-1.3,0-2.7-0.3-3.9-0.8c-2.4-1-4.3-3-5.4-5.4C367.3,357.2,367,355.9,367,354.6 M371.6,354.6c0,0.7,0.1,1.5,0.4,2.1
		c0.6,1.3,1.6,2.4,2.9,2.9c0.7,0.3,1.4,0.4,2.1,0.4c0.7,0,1.5-0.1,2.1-0.4c0.7-0.3,1.2-0.7,1.7-1.2c0.5-0.5,0.9-1.1,1.2-1.8
		c0.6-1.4,0.6-2.9,0-4.3c-0.5-1.3-1.6-2.4-2.9-2.9c-1.4-0.6-2.9-0.6-4.3,0c-0.7,0.3-1.2,0.7-1.8,1.2c-0.5,0.5-0.9,1.1-1.1,1.8
		C371.7,353.1,371.6,353.8,371.6,354.6"/>
	<path class="st2" d="M394.8,356.1c-0.6-0.3-1.2-0.5-1.9-0.9c-0.6-0.3-1.2-0.7-1.8-1.1c-0.5-0.4-1-1-1.3-1.6
		c-0.4-0.7-0.5-1.4-0.5-2.2c0-0.8,0.2-1.7,0.5-2.4c0.3-0.7,0.9-1.4,1.5-1.9c0.7-0.5,1.4-0.9,2.2-1.2c0.9-0.3,1.9-0.4,2.8-0.4
		c0.6,0,1.2,0.1,1.8,0.1c0.6,0.1,1.2,0.2,1.8,0.4c0.5,0.2,1.1,0.5,1.5,0.8c0.4,0.3,0.8,0.7,1,1.2c0.2,0.4,0.3,0.9,0.2,1.3
		c0,0.4-0.2,0.8-0.5,1.1c-0.2,0.2-0.4,0.4-0.7,0.5c-0.3,0.1-0.5,0.2-0.8,0.2c-0.3,0-0.5-0.1-0.7-0.2c-0.3-0.2-0.6-0.4-0.8-0.5
		c-0.2-0.1-0.5-0.3-0.8-0.4c-0.3-0.1-0.5-0.2-0.8-0.2c-0.3-0.1-0.7-0.1-1-0.1c-0.7,0-1.4,0.1-2.1,0.4c-0.4,0.2-0.7,0.6-0.7,1.1
		c0,0.3,0.1,0.5,0.3,0.7c0.2,0.2,0.5,0.4,0.7,0.5c0.4,0.2,0.7,0.3,1.1,0.4l1.4,0.4c0.8,0.2,1.6,0.5,2.4,0.9c0.7,0.3,1.4,0.7,2,1.2
		c0.6,0.5,1,1.1,1.4,1.7c0.3,0.7,0.5,1.5,0.5,2.4c0,0.8-0.2,1.6-0.5,2.4c-0.4,0.7-0.9,1.4-1.5,1.9c-0.7,0.6-1.4,1-2.3,1.3
		c-0.9,0.3-1.9,0.5-2.9,0.5c-0.7,0-1.4-0.1-2.1-0.2c-0.7-0.1-1.4-0.3-2.1-0.6c-0.7-0.3-1.3-0.7-1.9-1.1c-0.6-0.4-1-1-1.3-1.7
		c-0.2-0.4-0.4-0.8-0.4-1.3c0-0.4,0.1-0.7,0.3-1.1c0.2-0.3,0.4-0.5,0.7-0.7c0.3-0.2,0.7-0.2,1-0.3c0.4,0,0.7,0.1,1,0.2
		c0.4,0.2,0.8,0.4,1.1,0.7c0.2,0.2,0.4,0.4,0.6,0.6c0.3,0.2,0.6,0.4,0.9,0.5c0.3,0.2,0.7,0.3,1,0.4c0.4,0.1,0.7,0.1,1.1,0.1
		c0.3,0,0.7,0,1-0.1c0.3-0.1,0.6-0.2,0.8-0.3c0.2-0.1,0.4-0.3,0.6-0.5c0.1-0.2,0.2-0.4,0.2-0.7c0-0.3-0.2-0.6-0.5-0.8
		c-0.3-0.3-0.7-0.5-1.1-0.7c-0.5-0.2-0.9-0.4-1.4-0.5C395.5,356.4,395.1,356.3,394.8,356.1"/>
	<path class="st2" d="M422.9,345.8v16.3c0,0.3-0.1,0.6-0.2,0.9c-0.1,0.3-0.3,0.5-0.5,0.7c-0.2,0.2-0.5,0.4-0.7,0.5
		c-0.3,0.1-0.6,0.2-0.9,0.2c-0.6,0-1.2-0.2-1.6-0.7c-0.2-0.2-0.4-0.4-0.5-0.7c-0.1-0.3-0.2-0.6-0.2-0.9v-22.4c0-0.6,0.2-1.1,0.6-1.5
		c0.2-0.2,0.4-0.4,0.7-0.6c0.3-0.1,0.7-0.2,1-0.2c0.3,0,0.7,0.1,1,0.2c0.3,0.2,0.6,0.4,0.8,0.6l14.5,17.5v-16.1
		c0-0.3,0.1-0.6,0.2-0.9c0.1-0.3,0.3-0.5,0.5-0.7c0.2-0.2,0.5-0.4,0.7-0.5c0.3-0.1,0.6-0.2,0.9-0.2c0.3,0,0.6,0.1,0.9,0.2
		c0.3,0.1,0.5,0.3,0.7,0.5c0.2,0.2,0.4,0.4,0.5,0.7c0.1,0.3,0.2,0.6,0.2,0.9v22.5c0,0.3-0.1,0.7-0.2,1c-0.1,0.3-0.4,0.6-0.6,0.8
		c-0.2,0.2-0.4,0.3-0.6,0.4c-0.2,0.1-0.5,0.1-0.8,0.1h-0.1c-0.3,0-0.6-0.1-0.9-0.3c-0.3-0.2-0.5-0.4-0.7-0.6L422.9,345.8z"/>
	<path class="st2" d="M445.1,354.6c0-1.3,0.3-2.7,0.8-3.9c1-2.4,3-4.3,5.4-5.4c1.2-0.5,2.6-0.8,3.9-0.8c1.3,0,2.7,0.3,3.9,0.8
		c2.4,1,4.3,2.9,5.3,5.4c0.5,1.2,0.8,2.6,0.8,3.9v7.5c0,0.3-0.1,0.6-0.2,0.9c-0.1,0.3-0.3,0.5-0.5,0.7c-0.2,0.2-0.5,0.4-0.8,0.5
		c-0.3,0.1-0.6,0.2-0.9,0.2c-0.5,0-1-0.2-1.4-0.5c-0.4-0.3-0.6-0.7-0.8-1.2c-0.8,0.6-1.7,1.1-2.6,1.4c-0.9,0.4-1.9,0.5-2.9,0.5
		c-1.3,0-2.7-0.3-3.9-0.8c-2.4-1-4.3-3-5.4-5.4C445.4,357.2,445.1,355.9,445.1,354.6 M449.7,354.6c0,0.7,0.1,1.5,0.4,2.1
		c0.3,0.7,0.7,1.2,1.2,1.8c0.5,0.5,1.1,0.9,1.7,1.2c0.7,0.3,1.4,0.4,2.1,0.4c0.7,0,1.5-0.1,2.1-0.4c0.6-0.3,1.2-0.7,1.7-1.2
		c0.5-0.5,0.9-1.1,1.2-1.8c0.6-1.4,0.6-2.9,0-4.3c-0.3-0.7-0.7-1.2-1.2-1.7c-0.5-0.5-1.1-0.9-1.7-1.2c-0.7-0.3-1.4-0.4-2.1-0.4
		c-0.7,0-1.5,0.1-2.1,0.4c-0.7,0.3-1.2,0.7-1.8,1.2c-0.5,0.5-0.9,1.1-1.2,1.7C449.9,353.1,449.7,353.8,449.7,354.6"/>
	<path class="st2" d="M473.9,344.8h7.3c0.3,0,0.6,0.1,0.9,0.2c0.6,0.2,1,0.7,1.2,1.2c0.1,0.3,0.2,0.6,0.2,0.9c0,0.3-0.1,0.6-0.2,0.9
		c-0.1,0.3-0.3,0.5-0.5,0.7c-0.2,0.2-0.5,0.4-0.7,0.5c-0.3,0.1-0.6,0.2-0.9,0.2h-7.3v5.3c0,1.4,0.6,2.8,1.6,3.8
		c0.5,0.5,1.1,0.9,1.7,1.1c0.7,0.3,1.4,0.4,2.1,0.4c0.6,0,1.3-0.1,1.9-0.3c0.6-0.2,1.1-0.5,1.6-0.9c0.2-0.2,0.5-0.4,0.8-0.5
		c0.8-0.4,1.7-0.3,2.3,0.3c0.2,0.2,0.4,0.5,0.5,0.8c0.1,0.3,0.2,0.7,0.1,1c0,0.3-0.1,0.7-0.3,1c-0.1,0.3-0.3,0.6-0.6,0.8
		c-0.8,0.8-1.8,1.4-2.9,1.8c-1.1,0.4-2.3,0.6-3.5,0.6c-1.3,0-2.7-0.3-3.9-0.8c-1.2-0.5-2.3-1.2-3.2-2.1c-0.9-0.9-1.6-2-2.2-3.2
		c-0.5-1.2-0.8-2.6-0.8-3.9v-13.6c0-0.3,0.1-0.6,0.2-0.9c0.1-0.3,0.3-0.5,0.5-0.7c0.2-0.2,0.5-0.4,0.7-0.5c0.3-0.1,0.6-0.2,0.9-0.2
		c0.3,0,0.6,0.1,0.9,0.2c0.3,0.1,0.5,0.3,0.7,0.5c0.2,0.2,0.4,0.5,0.5,0.7c0.1,0.3,0.2,0.6,0.2,0.9V344.8z"/>
	<path class="st2" d="M493.6,354.9c0,0.7,0.1,1.4,0.4,2c0.2,0.6,0.6,1.2,1.1,1.6c1,1,2.3,1.5,3.6,1.5c0.7,0,1.4-0.1,2-0.4
		c0.6-0.3,1.1-0.6,1.5-1.1c0.4-0.5,0.7-1.1,0.9-1.7c0.2-0.6,0.3-1.3,0.3-2V347c0-0.3,0.1-0.6,0.2-0.9c0.1-0.3,0.3-0.5,0.5-0.7
		c0.2-0.2,0.5-0.4,0.7-0.5c0.3-0.1,0.6-0.2,0.9-0.2c0.3,0,0.6,0.1,0.9,0.2c0.3,0.1,0.5,0.3,0.7,0.5c0.2,0.2,0.4,0.5,0.5,0.7
		c0.1,0.3,0.2,0.6,0.2,0.9v7.7c0,1.3-0.2,2.6-0.7,3.8c-0.4,1.2-1.1,2.2-1.9,3.1c-1.7,1.9-4.1,2.9-6.7,2.9c-1.3,0-2.6-0.3-3.8-0.8
		c-1.1-0.5-2.2-1.2-3.1-2.1c-0.9-0.9-1.6-1.9-2.1-3.1c-0.5-1.2-0.8-2.5-0.8-3.8V347c0-0.3,0.1-0.6,0.2-0.9c0.1-0.3,0.3-0.5,0.5-0.7
		c0.2-0.2,0.5-0.4,0.7-0.5c0.3-0.1,0.6-0.2,0.9-0.2c0.6,0,1.2,0.2,1.6,0.7c0.2,0.2,0.4,0.4,0.5,0.7c0.1,0.3,0.2,0.6,0.2,0.9
		L493.6,354.9z"/>
	<path class="st2" d="M516.3,362.1c0,0.3-0.1,0.6-0.2,0.9c-0.1,0.3-0.3,0.5-0.5,0.7c-0.2,0.2-0.4,0.4-0.7,0.5
		c-0.3,0.1-0.6,0.2-0.9,0.2c-0.3,0-0.6-0.1-0.9-0.2c-0.3-0.1-0.5-0.3-0.8-0.5c-0.2-0.2-0.4-0.4-0.5-0.7c-0.1-0.3-0.2-0.6-0.2-0.9
		v-6.8c0-1.4,0.3-2.8,0.8-4.1c0.5-1.2,1.3-2.4,2.3-3.4c1-1,2.1-1.7,3.3-2.3c1.3-0.6,2.7-0.8,4.1-0.8l0,0c0.7,0,1.3,0.2,1.8,0.6
		c0.4,0.4,0.6,1,0.6,1.6c0,0.3-0.1,0.6-0.2,0.9c-0.1,0.3-0.3,0.5-0.5,0.7c-0.2,0.2-0.5,0.4-0.8,0.5c-0.3,0.1-0.6,0.2-0.9,0.2l0,0
		c-0.8,0-1.6,0.2-2.3,0.5c-0.7,0.3-1.4,0.7-1.9,1.2c-0.5,0.5-1,1.2-1.3,1.9c-0.3,0.7-0.5,1.5-0.5,2.3L516.3,362.1z"/>
	<path class="st2" d="M525.4,354.6c0-1.3,0.3-2.7,0.8-3.9c0.5-1.2,1.3-2.3,2.2-3.2c0.9-0.9,2-1.6,3.2-2.2c1.2-0.5,2.6-0.8,3.9-0.8
		c1.3,0,2.7,0.3,3.9,0.8c2.4,1,4.3,2.9,5.3,5.4c0.5,1.2,0.8,2.6,0.8,3.9v7.5c0,0.3-0.1,0.6-0.2,0.9c-0.1,0.3-0.3,0.5-0.5,0.7
		c-0.2,0.2-0.5,0.4-0.7,0.5c-0.3,0.1-0.6,0.2-0.9,0.2c-0.5,0-1-0.2-1.4-0.5c-0.4-0.3-0.6-0.7-0.8-1.2c-0.8,0.6-1.7,1.1-2.6,1.4
		c-0.9,0.4-1.9,0.5-2.9,0.5c-1.3,0-2.7-0.3-3.9-0.8c-1.2-0.5-2.3-1.2-3.2-2.2c-0.9-0.9-1.7-2-2.2-3.2
		C525.6,357.2,525.4,355.9,525.4,354.6 M530,354.6c0,0.7,0.1,1.5,0.4,2.1c0.3,0.7,0.7,1.2,1.2,1.8c0.5,0.5,1.1,0.9,1.7,1.2
		c1.4,0.6,2.9,0.6,4.3,0c0.7-0.3,1.2-0.7,1.7-1.2c1.6-1.6,2-3.9,1.2-6c-0.3-0.7-0.7-1.2-1.2-1.7c-0.5-0.5-1.1-0.9-1.7-1.2
		c-1.4-0.6-2.9-0.6-4.3,0c-0.7,0.3-1.2,0.7-1.8,1.2c-0.5,0.5-0.9,1.1-1.2,1.7C530.1,353.1,529.9,353.9,530,354.6"/>
	<path class="st2" d="M556.7,359.8c0.3,0,0.6,0.1,0.9,0.2c0.3,0.1,0.5,0.3,0.7,0.5c0.2,0.2,0.4,0.5,0.5,0.8c0.1,0.3,0.2,0.6,0.2,0.9
		c0,1.2-0.9,2.2-2.1,2.2c-0.1,0-0.1,0-0.2,0c-0.9,0-1.8-0.2-2.7-0.5c-0.8-0.3-1.6-0.8-2.2-1.3c-0.6-0.6-1.1-1.3-1.5-2.1
		c-0.4-0.9-0.6-1.8-0.6-2.7v-18.3c0-0.3,0.1-0.6,0.2-0.9c0.1-0.3,0.3-0.5,0.5-0.7c0.2-0.2,0.4-0.4,0.7-0.5c0.3-0.1,0.6-0.2,0.9-0.2
		c0.3,0,0.6,0.1,0.9,0.2c0.3,0.1,0.5,0.3,0.8,0.5c0.2,0.2,0.4,0.5,0.5,0.7c0.1,0.3,0.2,0.6,0.2,0.9v18.1c0,0.6,0.2,1.2,0.7,1.6
		C555.4,359.6,556,359.8,556.7,359.8"/>
	<path class="st2" d="M565.7,356.6c0.2,0.5,0.4,1,0.8,1.4c0.3,0.4,0.7,0.8,1.2,1.1c0.4,0.3,0.9,0.5,1.4,0.7c0.5,0.2,1.1,0.2,1.7,0.2
		c1.2,0.1,2.5-0.3,3.4-1.1c0.3-0.2,0.5-0.3,0.8-0.4c0.2-0.1,0.5-0.1,0.8-0.1c0.4,0,0.7,0.1,1,0.3c0.3,0.2,0.6,0.5,0.8,0.8
		c0.1,0.2,0.2,0.5,0.3,0.7c0,0.3,0,0.5,0,0.8c0,0.3-0.1,0.5-0.3,0.8c-0.2,0.3-0.4,0.5-0.6,0.7c-0.3,0.3-0.7,0.6-1.1,0.8
		c-0.4,0.3-0.9,0.5-1.4,0.7c-0.6,0.2-1.1,0.4-1.7,0.5c-0.7,0.1-1.4,0.2-2.2,0.2c-1.3,0-2.7-0.3-3.9-0.8c-1.2-0.5-2.3-1.2-3.2-2.2
		c-0.9-0.9-1.7-2-2.2-3.2c-1.1-2.5-1.1-5.3,0-7.8c0.5-1.2,1.2-2.3,2.2-3.2c0.9-0.9,2-1.6,3.2-2.1c1.2-0.5,2.6-0.8,3.9-0.8
		c1.3,0,2.7,0.3,3.9,0.8c1.2,0.5,2.3,1.2,3.2,2.1c0.9,0.9,1.7,2,2.2,3.1c0.5,1.2,0.8,2.5,0.8,3.9c0,0.6-0.2,1.2-0.6,1.6
		c-0.4,0.4-1,0.6-1.6,0.6L565.7,356.6z M576.1,352.8c-0.1-0.6-0.4-1.1-0.7-1.6c-0.3-0.5-0.7-0.9-1.2-1.2c-0.5-0.3-1-0.6-1.6-0.7
		c-0.6-0.2-1.2-0.3-1.8-0.3c-0.6,0-1.2,0.1-1.8,0.3c-0.6,0.2-1.1,0.4-1.5,0.8c-0.9,0.7-1.6,1.6-1.9,2.7L576.1,352.8z"/>
	<path class="st2" d="M588.4,356.1c-0.6-0.3-1.2-0.5-1.9-0.9c-0.6-0.3-1.2-0.7-1.8-1.1c-0.5-0.4-1-1-1.3-1.6
		c-0.4-0.7-0.5-1.4-0.5-2.2c0-0.8,0.2-1.7,0.5-2.4c0.3-0.7,0.9-1.4,1.5-1.9c0.7-0.5,1.4-0.9,2.2-1.2c0.9-0.3,1.9-0.4,2.8-0.4
		c0.6,0,1.2,0.1,1.8,0.1c0.6,0.1,1.2,0.2,1.8,0.4c0.5,0.2,1.1,0.5,1.5,0.8c0.4,0.3,0.8,0.7,1,1.2c0.2,0.4,0.3,0.9,0.2,1.3
		c0,0.4-0.2,0.8-0.5,1.1c-0.2,0.2-0.4,0.4-0.7,0.5c-0.3,0.1-0.5,0.2-0.8,0.2c-0.3,0-0.5-0.1-0.7-0.2c-0.3-0.2-0.6-0.4-0.8-0.5
		c-0.2-0.1-0.5-0.3-0.8-0.4c-0.3-0.1-0.5-0.2-0.8-0.2c-0.3-0.1-0.7-0.1-1-0.1c-0.7,0-1.4,0.1-2.1,0.4c-0.4,0.2-0.7,0.6-0.7,1.1
		c0,0.3,0.1,0.5,0.3,0.7c0.2,0.2,0.5,0.4,0.7,0.5c0.4,0.2,0.7,0.3,1.1,0.4l1.4,0.4c0.8,0.2,1.6,0.5,2.4,0.9c0.7,0.3,1.4,0.7,2,1.2
		c0.6,0.5,1,1.1,1.4,1.7c0.3,0.7,0.5,1.5,0.5,2.4c0,0.8-0.2,1.6-0.5,2.4c-0.4,0.7-0.9,1.4-1.5,1.9c-0.7,0.6-1.4,1-2.3,1.3
		c-0.9,0.3-1.9,0.5-2.9,0.5c-0.7,0-1.4-0.1-2.1-0.2c-0.7-0.1-1.4-0.3-2.1-0.6c-0.7-0.3-1.3-0.7-1.9-1.1c-0.6-0.5-1.1-1-1.4-1.7
		c-0.2-0.4-0.4-0.8-0.4-1.3c0-0.4,0.1-0.7,0.3-1.1c0.2-0.3,0.4-0.5,0.7-0.7c0.3-0.2,0.7-0.2,1-0.3c0.4,0,0.7,0.1,1,0.2
		c0.4,0.2,0.8,0.4,1.1,0.7c0.2,0.2,0.4,0.4,0.6,0.6c0.3,0.2,0.6,0.4,0.8,0.5c0.3,0.2,0.7,0.3,1,0.4c0.4,0.1,0.8,0.1,1.1,0.1
		c0.3,0,0.7,0,1-0.1c0.3-0.1,0.6-0.2,0.8-0.3c0.2-0.1,0.4-0.3,0.6-0.5c0.1-0.2,0.2-0.4,0.2-0.7c0-0.3-0.2-0.6-0.5-0.8
		c-0.3-0.3-0.7-0.5-1.1-0.7c-0.5-0.2-0.9-0.4-1.4-0.5L588.4,356.1"/>
	<path class="st1" d="M399.2,265c4.5-7.3,9.2-14.7,13.6-22.1c9.5-15.8,19.2-31.5,25.9-48.9c1.5-3.8,2.7-7.6,2.2-11.7
		c-0.2-2.2,0.6-3,2.6-3.5c4.3-1.3,8.7-1.8,13.1-1.6c5.8,0.5,7.9,3.5,6.2,9c-2.7,8.7-7.3,16.4-12.1,24.1
		c-13.8,22-27.9,43.7-40.6,66.3c-3.5,6.2-6.6,12.7-9.7,19.1c-2.2,4.5-13.5,9-18,7c-2.1-1-2.5-3-2.7-5c-2-17.2-4-34.4-6.1-51.6
		c-1.8-14.6-3.3-29.3-6.9-43.6c-1.5-6.1-3.4-12.2-8.2-16.7c-1.4-1.3-1-2,0.3-2.9c5.8-4.1,12.1-6.5,19.2-6.2c4.4,0.2,6.9,3,8.7,6.7
		c3.1,6.3,3.8,13.1,4.8,19.9c2.9,19.8,4.8,39.8,6.2,59.8C398,263.9,398.5,264.7,399.2,265z"/>
	<path class="st1" d="M154.4,192.9c0.4,12.6-4.7,24.3-6.3,36.6c11.2,0.6,22.4,0,33.4-1.8c3.4-0.5,3.3,0.9,2.8,3.1
		c-1.6,8-7.7,13-17.1,13.5c-6.3,0.3-12.6,0.3-18.9,0.2c-2.7-0.1-4.1,0.6-4.8,3.4c-1.9,7.6-4,15.2-4.5,23.1
		c-0.6,9.1,3.2,13.3,12.4,13.7c11.1,0.5,21.6-1.9,31.9-5.5c5.7-2,5.8-1.7,4.8,4.1c-1.3,7.9-6.2,12.3-13.5,14.5
		c-10.2,3-20.7,2.6-31.1,2.6c-5.4,0-10.9,0-16.3-0.1c-9.3-0.1-13-3.9-13.1-13.1c-0.1-11.6,3.5-22.5,6.3-33.6
		c4.2-16.8,9.4-33.3,11.2-50.6c0.1-1.4,0.2-2.9,0.3-4.3c0.2-2.9,0.1-5.2-3.9-4.2c-1.9,0.5-2.4-0.8-2.5-2.5
		c-0.1-6.1,4.4-11.2,10.4-12c18.7-2.1,37.5-1.4,56.2-2.5c3.6-0.2,8.4-0.8,10.1,2.8c1.6,3.3-1,7.1-2.9,10.3c-3.6,6.2-7,7.1-13.4,4.2
		c-2.1-1-4.3-1.6-6.6-1.8C171,192.7,162.6,192.9,154.4,192.9z"/>
	<path class="st1" d="M260.5,273.5c2.5,5.9,1.1,10.5-2.8,14.3c-8,8-18.3,10.8-29,12.5c-6.1,1-12.4,0.6-18.3-1.3
		c-9.4-2.9-14.3-9.7-15.5-19.1c-3.1-24.9,11.8-51.8,34.5-62.5c9.7-4.6,19.9-5.1,30.2-3c3.8,0.8,7.2,2.5,8.2,6.7
		c1.1,4.4-1,7.8-4.3,10.5c-1,0.8-2.1,1.5-3.2,2.2c-5.9,3.4-6.3,3.3-8.9-2.8s-7.7-8-14.2-5.6c-5.8,2.1-9.4,6.6-11.8,11.9
		c-5.5,12-7.5,25.4-5.7,38.5c1.2,9.4,6.7,13,16,11.5C245.5,285.6,253.5,280.9,260.5,273.5z"/>
	<path class="st1" d="M619.5,278.7c-3.3,2.2-6.5,4.1-10.5,4.5c-2.1,0.2-3-0.5-3.4-2.7c-0.5-2.8,0-5.4,0.5-8.1
		c1.9-11.9,3.5-23.7,11.8-33.4c3.6-4.2,5.9-9.5,8.2-14.6c4.3-9.7,8.5-19.5,8.3-30.4c0-2.5,0-5.3-1.9-7.3c-5.9-6.6-15.9-7.1-22.5-1.3
		c-2.3,2-3.9,4.6-4.7,7.6c-7,22.9-13.1,45.9-18.7,69.1c-0.3,2-1.3,3.8-2.9,5c-6.5,4.6-13,9.3-19.6,13.8c-1.4,0.8-2.8,1.4-4.4,1.7
		c-4.9,1.3-6.1,0.5-6-4.5c0.2-8.1,2.5-15.8,4-23.7c0.7-3.5,2.2-6.8,4.4-9.6c7.8-10.6,13.8-22.4,17.8-35c2-6.3,3.2-12.8,2.2-19.4
		c-0.2-1.3-0.2-2.7-1.3-3.5c-4.9-3.9-10.5-5.9-16.8-4.9c-5.8,1-9,5.1-10.6,10.6c-5.9,19.6-11.6,39.2-16.1,59.2
		c-2,8.8-4.6,16.6-12.6,21.7c-2.1,1.4-3.6,3.7-5.5,5.5c-1.1,1.1-2.3,2.1-3.6,3.1c-2.5,1.7-4.1,1.7-4.4-2c-0.2-3.7,0-7.4,0.6-11.1
		c2.9-17.1,6.7-34,13.7-49.9c0.4-1,0.7-1.6-0.5-2.5c-4.9-3.5-15.3-4.1-20.5-0.7c-1.3,1.1-3.1,1.2-4.5,0.2
		c-5.9-3.2-12.4-3.5-18.8-2.2c-10,2-17.8,7.8-24.2,15.4c-13.1,15.4-20.5,33-19.5,53.5c0.6,12.8,7.7,18.8,20.3,17.5
		c4.7-0.5,8.7-2.8,12.3-5.6c5.9-4.5,10.5-10.1,14.7-16.1c1.3-1.8,2.5-3.5,4.2-5.9c0,5.4-0.3,10,0,14.5c0.7,9.8,8.8,15.8,17.7,12.4
		c12.5-4.7,21-13.5,24-27c0.3-1.3-0.1-2.8,2.2-3.1c-0.4,5.3-1.8,10.3-1.8,15.4c0.1,11.5,7.2,17.3,18.4,14.4
		c13.8-3.6,23.8-12.1,30.2-24.8c1-2.1,1.9-4.5,4.9-4.9c-0.6,5.4-1.6,10.7-1.6,15.9c0,10.7,7.3,16.5,17.6,14
		c14.4-3.6,25-12.2,31.2-25.9c1.1-1,1.8-2,0.8-3.5C627.4,271.6,623.9,275.8,619.5,278.7z M625.4,199.5c0.6-1.8,1.3-3.5,2-5.2
		c0.3-0.8,0.8-1.6,1.8-1.5c1.4,0.1,1.3,1.3,1.3,2.3c0.1,3.7-0.4,7.4-1.5,11c-3.1,10.1-7.4,19.8-12.9,28.9c-0.5,0.8-0.8,1.9-2.4,2.2
		C617.2,224.3,621,211.8,625.4,199.5z M574.4,197c0.3-0.8,0.6-1.6,1-2.4c0.5-0.9,0.9-2,2.1-1.7s1.1,1.5,1.1,2.4
		c0.1,4-0.5,8-1.7,11.8c-3.2,10-7.5,19.5-13,28.4c-0.5,0.8-0.6,2-2.2,1.8C565.7,223.7,569.5,210.2,574.4,197L574.4,197z M497,236.5
		c-5.9,14.8-13.9,28.6-23.6,41.2c-0.6,0.8-1.3,1.5-2,2.2c-2.2,2-4.1,5-7.6,3.4c-3.3-1.5-3.1-4.8-3.3-7.8c0-0.7,0-1.4,0-3.4
		c1-13.4,5.3-26.2,12.5-37.5c1.6-2.6,3.6-4.8,6-6.7c5.2-4,12.7-3,16.7,2.2c0.2,0.3,0.4,0.5,0.6,0.8
		C497.6,232.5,497.9,234.7,497,236.5L497,236.5z"/>
	<path class="st1" d="M346.8,239.9c-0.5-8.4-3.1-15.8-10.1-20.9c-9.3-6.9-19.8-7-30.3-4c-22.4,6.3-39.3,30.3-39.4,55.2
		c-0.8,15.5,7,25.7,18.3,29.1c9.4,2.9,18.7,1.8,27.6-2.4C333.2,287.4,348.1,262.2,346.8,239.9z M321.6,255.5
		c-1.4,8.3-4.2,16.4-8.3,23.7c-0.8,1.4-1.7,2.7-2.7,3.9c-3.4,3.9-7.2,7.3-12.9,5.5s-6.7-6.9-7.3-12c-0.1-1.6-0.1-3.1,0-4.7
		c0.5-12.7,3.2-24.9,9.4-36.1c1.5-2.9,3.6-5.5,6.1-7.7c6.8-5.6,14.3-3.2,16.4,5.4C324,240.8,322.9,248.2,321.6,255.5L321.6,255.5z"
		/>
	<path class="st1" d="M660.9,266.4c3.3-1.7,6.7-3.3,10.1-4.7c4.1-1.6,8.2-3.3,12.2-5.4c8.9-4.8,17.2-10.6,21.6-20.2
		c4.8-10.5-0.7-21-11.9-22.6c-4.7-0.8-9.5-0.7-14.1,0.3c-22.7,5.6-36,21.1-43.3,42.4c-1.5,4.4-1.8,9.2-2.7,13.9l-0.8,3.5
		c1.9,1.6,1.2,3.9,1.5,5.9c1.6,10.5,7.4,17.1,17.6,19.8c6.4,1.6,13.1,1.9,19.6,0.9c9.5-1.3,18.4-4.1,26-10.3c3.7-3,6-6.8,5.2-12
		c-0.5-3-1-4.3-4-1.5c-6.7,6.4-15.2,10.4-24.4,11.6c-6.9,0.9-12.3-1.8-15.7-7.5C654.8,275.9,654.3,269.9,660.9,266.4z M666.6,233.4
		c2-3.5,4.5-6.7,8.2-8.5c2.8-1.4,5.8-1.7,8.5,0.4c2.5,2,2.4,4.8,1.8,7.5c-1.2,5.8-4.7,10.9-9.6,14.2c-5.4,3.9-12.2,5.8-16.9,11
		C660.1,249.4,662.2,241,666.6,233.4z"/>
	<path class="st5" d="M420.2,42.2c25.9,4.2,41.6,4.5,51,3.7l0,0c0-14.9-12-26.9-26.8-27c-13.4,0-24.7,9.7-26.7,23
		C418.5,42,419.4,42.1,420.2,42.2z"/>
</g>
</svg>
