<?xml version="1.0" encoding="utf-8"?>
<!-- Generator: Adobe Illustrator 24.2.1, SVG Export Plug-In . SVG Version: 6.00 Build 0)  -->
<svg version="1.1" id="Capa_1" xmlns="http://www.w3.org/2000/svg" xmlns:xlink="http://www.w3.org/1999/xlink" x="0px" y="0px"
     viewBox="0 0 85 70" style="enable-background:new 0 0 85 70;" xml:space="preserve">
<style type="text/css">
	.st0{fill:#ee9722;}
</style>
    <g>
	<g>
		<g>
			<path class="st0" d="M11.9,42.6H9.2c-3.1,0-5.6-2.5-5.6-5.6V7.6C3.5,4.5,6.1,2,9.2,2h53.1c3.1,0,5.6,2.5,5.6,5.6v2.8h-4.5V7.6
				c0-0.6-0.5-1.1-1.1-1.1H9.2C8.5,6.5,8,7,8,7.6V37c0,0.6,0.5,1.1,1.1,1.1h2.7V42.6z"/>
		</g>
	</g>
        <path class="st0" d="M75.7,14.7H21.5c-3.1,0-5.7,2.5-5.7,5.6v29.4c0,3.1,2.6,5.6,5.7,5.6h10.4v-4.5H21.5c-0.7,0-1.2-0.5-1.2-1.1
		V31.1H77v18.3c0,0.8-0.7,1.5-1.5,1.5h-9v4.5h9c3.3,0,5.9-2.7,5.9-5.9v-29C81.5,17.3,78.9,14.7,75.7,14.7z M20.3,23.8v-3.5
		c0-0.6,0.5-1.1,1.2-1.1h54.3c0.7,0,1.2,0.5,1.2,1.1v3.5H20.3z"/>
        <g>
		<g>
			<path class="st0" d="M57.9,52.6h-3.6v-7.2c-0.1-0.9-1-5.6-5.7-5.7c-4.9-0.1-5.7,6-5.7,6.3l-3.6-0.4c0.4-3.3,2.8-9.6,9.4-9.5
				c6.5,0.2,8.8,6,9.2,9l0,0.2L57.9,52.6L57.9,52.6z"/>
		</g>
	</g>
        <g>
		<g>
			<path class="st0" d="M56.5,68H41.4c-2.2,0-3.9-1.7-3.9-3.9V53.6c0-2.2,1.7-3.9,3.9-3.9h15.1c2.2,0,3.9,1.7,3.9,3.9v10.5
				C60.4,66.3,58.7,68,56.5,68z"/>
		</g>
	</g>
</g>
</svg>
