<?xml version="1.0" encoding="utf-8"?>
<!-- Generator: Adobe Illustrator 24.2.1, SVG Export Plug-In . SVG Version: 6.00 Build 0)  -->
<svg version="1.1" id="Capa_1" xmlns="http://www.w3.org/2000/svg" xmlns:xlink="http://www.w3.org/1999/xlink" x="0px" y="0px"
	 viewBox="0 0 1674.9 98" style="enable-background:new 0 0 1674.9 98;" xml:space="preserve">
<style type="text/css">
	.st0{fill:#279457;}
</style>
<path class="st0" d="M31.4,0h1612.2c-6,2.1-13,3.9-19.6,6.9c-5.2,2.5-10.2,5.6-14.7,9.3c-5,3.8-7.5,9.4-8.6,15.6
	c-6.3,33.2-27,52.9-58.7,62.1c-11.3,3.3-22.9,4.1-34.6,4.1c-51.5,0.1-103.1,0.1-154.6,0H454.2c-98.8,0-197.6,0-296.3,0
	c-16.1,0-32-1.7-47.2-7.7c-19.8-7.9-31.7-22.7-38-42.6c-1.1-3.5-2.2-7-3.1-10.6c-2.1-9.3-7.7-17.4-15.5-22.8
	C46.6,8.9,38.6,4.5,31.4,0z"/>
</svg>
